<svg width="45" height="45" viewBox="0 0 45 45" fill="none" xmlns="http://www.w3.org/2000/svg">
<circle cx="22.5" cy="22.5" r="22.5" fill="#23AA49"/>
<path d="M30.23 26.26L27.69 25.97C27.3913 25.9349 27.0886 25.968 26.8045 26.0667C26.5205 26.1654 26.2625 26.3273 26.05 26.54L24.21 28.38C21.3712 26.9362 19.0638 24.6288 17.62 21.79L19.47 19.94C19.9 19.51 20.11 18.91 20.04 18.3L19.75 15.78C19.6933 15.2922 19.4592 14.8422 19.0922 14.5159C18.7253 14.1895 18.2511 14.0094 17.76 14.01H16.03C14.9 14.01 13.96 14.95 14.03 16.08C14.56 24.62 21.39 31.44 29.92 31.97C31.05 32.04 31.99 31.1 31.99 29.97V28.24C32 27.23 31.24 26.38 30.23 26.26Z" fill="white"/>
</svg>
