<svg width="12" height="12" viewBox="0 0 12 12" fill="none" xmlns="http://www.w3.org/2000/svg">
<path d="M6.2273 0.125C5.1395 0.125 4.07613 0.447569 3.17166 1.05192C2.26719 1.65626 1.56224 2.51525 1.14596 3.52024C0.729678 4.52523 0.62076 5.6311 0.832978 6.698C1.0452 7.76489 1.56902 8.7449 2.33821 9.51409C3.1074 10.2833 4.0874 10.8071 5.1543 11.0193C6.2212 11.2315 7.32706 11.1226 8.33206 10.7063C9.33705 10.2901 10.196 9.5851 10.8004 8.68063C11.4047 7.77616 11.7273 6.7128 11.7273 5.625C11.7273 4.16631 11.1478 2.76736 10.1164 1.73591C9.08493 0.704462 7.68599 0.125 6.2273 0.125ZM9.25622 3.93964L5.32765 7.86821C5.29113 7.90503 5.24768 7.93426 5.19981 7.95421C5.15194 7.97415 5.10059 7.98442 5.04873 7.98442C4.99686 7.98442 4.94552 7.97415 4.89764 7.95421C4.84977 7.93426 4.80632 7.90503 4.7698 7.86821L2.80551 5.90393C2.76888 5.8673 2.73983 5.82381 2.72 5.77595C2.70018 5.7281 2.68998 5.6768 2.68998 5.625C2.68998 5.52038 2.73153 5.42005 2.80551 5.34607C2.87949 5.27209 2.97982 5.23053 3.08444 5.23053C3.18906 5.23053 3.28939 5.27209 3.36337 5.34607L5.04873 7.03536L8.69837 3.38179C8.77234 3.30781 8.87268 3.26625 8.9773 3.26625C9.08191 3.26625 9.18225 3.30781 9.25622 3.38179C9.3302 3.45576 9.37176 3.5561 9.37176 3.66071C9.37176 3.76533 9.3302 3.86567 9.25622 3.93964Z" fill="#39C19D"/>
</svg>
