<svg width="21" height="21" viewBox="0 0 21 21" fill="none" xmlns="http://www.w3.org/2000/svg">
<circle cx="10.5" cy="10.5" r="10.5" fill="#39C19D"/>
<path d="M8.16816 12.7908L15.0471 6.30242C15.2608 6.10081 15.5329 6 15.8632 6C16.1936 6 16.4656 6.10081 16.6794 6.30242C16.8931 6.50404 17 6.76064 17 7.07223C17 7.38382 16.8931 7.64043 16.6794 7.84204L8.9843 15.1002C8.75112 15.3202 8.47907 15.4302 8.16816 15.4302C7.85725 15.4302 7.5852 15.3202 7.35202 15.1002L4.32063 12.241C4.10688 12.0393 4 11.7827 4 11.4711C4 11.1596 4.10688 10.903 4.32063 10.7013C4.53438 10.4997 4.80643 10.3989 5.13677 10.3989C5.46711 10.3989 5.73916 10.4997 5.95291 10.7013L8.16816 12.7908Z" fill="white"/>
</svg>
