<svg width="45" height="45" viewBox="0 0 45 45" fill="none" xmlns="http://www.w3.org/2000/svg">
<circle cx="22.5" cy="22.5" r="22.5" fill="black" fill-opacity="0.6"/>
<path d="M29.6762 28.0704L29.6753 28.0695L25.0236 23.5357L25.0233 23.5354L23.9701 22.5224L29.6753 16.9758C29.7947 16.8596 29.8919 16.7303 29.9532 16.5874C30.0134 16.4469 30.05 16.2936 30.05 16.1392C30.05 15.977 30.0263 15.8223 29.9525 15.678C29.8929 15.5394 29.8086 15.3984 29.6985 15.2913L29.6985 15.2912L29.6965 15.2895C29.5782 15.186 29.4458 15.0919 29.2996 15.0327C29.1527 14.9732 28.9835 14.9501 28.8284 14.9501C28.6701 14.9501 28.5132 14.9856 28.3584 15.0435L28.3584 15.0434L28.3572 15.0439C28.2109 15.1032 28.078 15.1974 27.9699 15.3026L21.4041 21.686C21.2944 21.7927 21.2097 21.9224 21.1494 22.0631L21.1494 22.063L21.1488 22.0644C21.0892 22.2151 21.0525 22.368 21.0525 22.5226C21.0525 22.677 21.0892 22.8303 21.1494 22.9709C21.2097 23.1115 21.2944 23.2413 21.4041 23.3479L27.9699 29.7314L27.9699 29.7314L27.9709 29.7323C28.2015 29.9447 28.504 30.05 28.8168 30.05C29.1319 30.05 29.4343 29.9206 29.6521 29.7088C29.8815 29.4857 30.0033 29.2026 30.0036 28.8958C30.0155 28.5881 29.8936 28.2935 29.6762 28.0704Z" fill="white" stroke="white" stroke-width="0.1"/>
<path d="M15.3238 16.9297L15.3247 16.9306L19.9764 21.4645L19.9767 21.4647L21.0299 22.4777L15.3247 28.0244C15.2053 28.1405 15.1081 28.2698 15.0468 28.4127C14.9866 28.5532 14.95 28.7065 14.95 28.861C14.95 29.0231 14.9737 29.1778 15.0475 29.3221C15.1071 29.4608 15.1914 29.6017 15.3015 29.7088L15.3015 29.7089L15.3035 29.7106C15.4218 29.8142 15.5542 29.9082 15.7004 29.9675C15.8473 30.0269 16.0165 30.0501 16.1716 30.0501C16.3299 30.0501 16.4868 30.0145 16.6416 29.9567L16.6416 29.9567L16.6428 29.9562C16.7891 29.8969 16.922 29.8027 17.0301 29.6976L23.5959 23.3141C23.7056 23.2075 23.7903 23.0777 23.8506 22.9371L23.8506 22.9371L23.8512 22.9358C23.9108 22.785 23.9475 22.6321 23.9475 22.4775C23.9475 22.3231 23.9108 22.1698 23.8506 22.0293C23.7903 21.8886 23.7056 21.7589 23.5959 21.6522L17.0301 15.2688L17.0301 15.2687L17.0291 15.2678C16.7985 15.0554 16.496 14.9501 16.1832 14.9501C15.8681 14.9501 15.5657 15.0796 15.3479 15.2913C15.1185 15.5144 14.9967 15.7975 14.9964 16.1044C14.9845 16.412 15.1064 16.7066 15.3238 16.9297Z" fill="white" stroke="white" stroke-width="0.1"/>
</svg>
