<svg width="8" height="7" viewBox="0 0 8 7" fill="none" xmlns="http://www.w3.org/2000/svg">
<path d="M7.11084 6.11577C7.20828 6.21577 7.26241 6.34735 7.257 6.48419C7.257 6.62104 7.20287 6.74735 7.10002 6.84735C7.00258 6.94209 6.86725 6.99998 6.7265 6.99998C6.58576 6.99998 6.45043 6.95261 6.34758 6.85788L3.28369 3.87894C3.23497 3.83157 3.19708 3.77368 3.17001 3.71052C3.14295 3.64736 3.12671 3.57894 3.12671 3.51052C3.12671 3.4421 3.14295 3.37368 3.17001 3.30526C3.19708 3.2421 3.23497 3.1842 3.28369 3.13683L6.34758 0.157894C6.3963 0.110526 6.45584 0.0684209 6.5208 0.0421052C6.59117 0.0157894 6.66155 0 6.73192 0C6.80229 0 6.87808 0.0105263 6.94303 0.036842C7.00799 0.0631577 7.06754 0.105263 7.12167 0.152631C7.17039 0.2 7.20828 0.263157 7.23535 0.326315C7.26783 0.389473 7.27865 0.457894 7.27865 0.531578C7.27865 0.599999 7.26241 0.668419 7.23535 0.731577C7.20828 0.794735 7.16498 0.852629 7.11084 0.905261L4.4313 3.51052L4.94014 3.99999L7.11084 6.11577Z" fill="white"/>
<path d="M0.44653 0.884225C0.349092 0.784225 0.29496 0.652647 0.300373 0.515805C0.300373 0.378963 0.354505 0.252648 0.457356 0.152648C0.554794 0.0579111 0.690125 1.63585e-05 0.830869 1.6371e-05C0.971613 1.63834e-05 1.10694 0.0473849 1.20979 0.142122L4.27368 3.12106C4.3224 3.16843 4.36029 3.22632 4.38736 3.28948C4.41442 3.35264 4.43066 3.42106 4.43066 3.48948C4.43066 3.5579 4.41442 3.62632 4.38736 3.69474C4.36029 3.7579 4.3224 3.8158 4.27368 3.86317L1.20979 6.84211C1.16108 6.88947 1.10153 6.93158 1.03657 6.95789C0.966199 6.98421 0.895827 7 0.825455 7C0.755083 7 0.679298 6.98947 0.614339 6.96316C0.549381 6.93684 0.489835 6.89474 0.435703 6.84737C0.386984 6.8 0.349091 6.73684 0.322025 6.67368C0.289546 6.61053 0.278719 6.54211 0.278719 6.46842C0.278719 6.4 0.294959 6.33158 0.322025 6.26842C0.349091 6.20526 0.392397 6.14737 0.446529 6.09474L3.12608 3.48948L2.61723 3.00001L0.44653 0.884225Z" fill="white"/>
</svg>
