<svg width="20" height="18" viewBox="0 0 20 18" fill="none" xmlns="http://www.w3.org/2000/svg">
<path d="M7 14.86L9 15.86V9.27C8.9989 9.00766 8.89474 8.75626 8.71 8.57L2.23 2H17.79L11.32 8.57C11.1353 8.75626 11.0311 9.00766 11.03 9.27L11 17L13 18V9.68L19.58 3C19.8432 2.73296 19.9936 2.3749 20 2V1C20 0.734784 19.8946 0.48043 19.7071 0.292893C19.5196 0.105357 19.2652 0 19 0H1C0.734784 0 0.48043 0.105357 0.292893 0.292893C0.105357 0.48043 0 0.734784 0 1V2C0.0063975 2.3749 0.156785 2.73296 0.42 3L7 9.68V14.86Z" fill="#3A3A3A"/>
</svg>
