<svg width="19" height="17" viewBox="0 0 19 17" fill="none" xmlns="http://www.w3.org/2000/svg">
<path d="M4.912 0.756395L4.91196 0.756392C3.77704 0.694609 2.68867 1.07943 1.88395 1.90933C0.278491 3.56502 0.352309 6.49586 2.27386 8.47584L3.04644 9.27135L3.04666 9.27159L9.50069 15.9229L15.9533 9.27164L15.9536 9.27135L16.726 8.47603L4.912 0.756395ZM4.912 0.756395C6.05114 0.818337 7.23644 1.33308 8.18623 2.31381L8.18696 2.31455L8.96272 3.11335L9.50127 3.66789M4.912 0.756395L9.50127 3.66789M9.50127 3.66789L10.0393 3.11283M9.50127 3.66789L10.0393 3.11283M10.0393 3.11283L10.8134 2.31418C12.7283 0.339715 15.5284 0.27202 17.1161 1.90933C18.7213 3.56483 18.6478 6.49396 16.7263 8.47565L10.0393 3.11283Z" stroke="white" stroke-width="1.5"/>
</svg>
