<svg width="15" height="20" viewBox="0 0 15 20" fill="none" xmlns="http://www.w3.org/2000/svg">
<path d="M7.5 19.0909C7.65379 19.09 7.80277 19.0372 7.92273 18.9409C8.18182 18.7091 15 13.2136 15 7.5C15 5.51088 14.2098 3.60322 12.8033 2.1967C11.3968 0.790177 9.48912 0 7.5 0C5.51088 0 3.60322 0.790177 2.1967 2.1967C0.790177 3.60322 0 5.51088 0 7.5C0 13.2136 6.81818 18.7091 7.07727 18.9409C7.19723 19.0372 7.34621 19.09 7.5 19.0909ZM1.36364 7.5C1.36364 5.87254 2.01014 4.31173 3.16094 3.16094C4.31173 2.01014 5.87254 1.36364 7.5 1.36364C9.12746 1.36364 10.6883 2.01014 11.8391 3.16094C12.9899 4.31173 13.6364 5.87254 13.6364 7.5C13.6364 11.7955 8.95227 16.2341 7.5 17.5159C6.04773 16.2341 1.36364 11.7955 1.36364 7.5Z" fill="url(#paint0_linear_88_187)"/>
<path d="M10.9091 7.50004C10.9091 6.82578 10.7092 6.16667 10.3346 5.60605C9.95997 5.04542 9.42754 4.60847 8.80461 4.35045C8.18168 4.09242 7.49623 4.02491 6.83493 4.15645C6.17363 4.28799 5.56619 4.61267 5.08942 5.08944C4.61265 5.56621 4.28796 6.17366 4.15642 6.83495C4.02488 7.49625 4.09239 8.18171 4.35042 8.80464C4.60845 9.42757 5.0454 9.95999 5.60602 10.3346C6.16664 10.7092 6.82576 10.9091 7.50001 10.9091C8.40416 10.9091 9.27127 10.55 9.9106 9.91063C10.5499 9.2713 10.9091 8.40418 10.9091 7.50004ZM5.45456 7.50004C5.45456 7.09548 5.57452 6.70001 5.79928 6.36364C6.02403 6.02727 6.34349 5.7651 6.71725 5.61028C7.09101 5.45547 7.50228 5.41496 7.89906 5.49388C8.29584 5.57281 8.6603 5.76762 8.94636 6.05368C9.23243 6.33974 9.42724 6.70421 9.50616 7.10099C9.58509 7.49777 9.54458 7.90904 9.38976 8.2828C9.23495 8.65655 8.97278 8.97601 8.6364 9.20077C8.30003 9.42553 7.90456 9.54549 7.50001 9.54549C6.95752 9.54549 6.43725 9.32999 6.05366 8.94639C5.67006 8.56279 5.45456 8.04252 5.45456 7.50004Z" fill="url(#paint1_linear_88_187)"/>
<defs>
<linearGradient id="paint0_linear_88_187" x1="7.5" y1="0" x2="7.5" y2="19.0909" gradientUnits="userSpaceOnUse">
<stop stop-color="#4FEEC2"/>
<stop offset="1" stop-color="#4AB1DC"/>
</linearGradient>
<linearGradient id="paint1_linear_88_187" x1="7.50001" y1="4.09094" x2="7.50001" y2="10.9091" gradientUnits="userSpaceOnUse">
<stop stop-color="#4FEEC2"/>
<stop offset="1" stop-color="#4AB1DC"/>
</linearGradient>
</defs>
</svg>
