<svg width="24" height="29" viewBox="0 0 24 29" fill="none" xmlns="http://www.w3.org/2000/svg">
<path d="M11.9829 28.9163C12.2187 28.915 12.4472 28.8352 12.6311 28.69C13.0284 28.3402 23.4829 20.0476 23.4829 11.4258C23.4829 8.42423 22.2713 5.54561 20.1146 3.42319C17.958 1.30076 15.0329 0.108398 11.9829 0.108398C8.93292 0.108398 6.00785 1.30076 3.85118 3.42319C1.69451 5.54561 0.48291 8.42423 0.48291 11.4258C0.48291 20.0476 10.9375 28.3402 11.3347 28.69C11.5187 28.8352 11.7471 28.915 11.9829 28.9163ZM2.57382 11.4258C2.57382 8.96997 3.56513 6.61473 5.32968 4.87821C7.09422 3.14168 9.48746 2.16611 11.9829 2.16611C14.4784 2.16611 16.8716 3.14168 18.6361 4.87821C20.4007 6.61473 21.392 8.96997 21.392 11.4258C21.392 17.9076 14.2097 24.6054 11.9829 26.5397C9.75609 24.6054 2.57382 17.9076 2.57382 11.4258Z" fill="url(#paint0_linear_112_444)"/>
<path d="M17.21 11.4264C17.21 10.4089 16.9035 9.41434 16.3291 8.56837C15.7547 7.7224 14.9383 7.06305 13.9832 6.67369C13.028 6.28433 11.977 6.18246 10.963 6.38095C9.94899 6.57945 9.01758 7.06939 8.28653 7.78883C7.55548 8.50827 7.05763 9.42489 6.85594 10.4228C6.65424 11.4207 6.75776 12.455 7.1534 13.395C7.54904 14.335 8.21903 15.1384 9.07865 15.7037C9.93827 16.2689 10.9489 16.5706 11.9828 16.5706C13.3691 16.5706 14.6987 16.0287 15.679 15.0639C16.6593 14.0992 17.21 12.7907 17.21 11.4264ZM8.84641 11.4264C8.84641 10.8159 9.03035 10.2192 9.37498 9.71158C9.71961 9.20399 10.2094 8.80838 10.7825 8.57477C11.3556 8.34115 11.9863 8.28003 12.5946 8.39912C13.203 8.51822 13.7619 8.81218 14.2005 9.24385C14.6391 9.67551 14.9379 10.2255 15.0589 10.8242C15.1799 11.423 15.1178 12.0436 14.8804 12.6076C14.643 13.1715 14.241 13.6536 13.7252 13.9928C13.2095 14.3319 12.6031 14.5129 11.9828 14.5129C11.151 14.5129 10.3532 14.1877 9.76503 13.6089C9.17684 13.0301 8.84641 12.245 8.84641 11.4264Z" fill="url(#paint1_linear_112_444)"/>
<defs>
<linearGradient id="paint0_linear_112_444" x1="11.9829" y1="0.108398" x2="11.9829" y2="28.9163" gradientUnits="userSpaceOnUse">
<stop stop-color="#4FEEC2"/>
<stop offset="1" stop-color="#4AB1DC"/>
</linearGradient>
<linearGradient id="paint1_linear_112_444" x1="11.9828" y1="6.2821" x2="11.9828" y2="16.5706" gradientUnits="userSpaceOnUse">
<stop stop-color="#4FEEC2"/>
<stop offset="1" stop-color="#4AB1DC"/>
</linearGradient>
</defs>
</svg>
