<svg width="10" height="12" viewBox="0 0 10 12" fill="none" xmlns="http://www.w3.org/2000/svg">
<path d="M4.99993 12C5.0966 11.9994 5.19024 11.9662 5.26565 11.9057C5.4285 11.76 9.71422 8.30571 9.71422 4.71429C9.71422 3.46398 9.21753 2.26488 8.33343 1.38078C7.44933 0.496682 6.25024 0 4.99993 0C3.74962 0 2.55053 0.496682 1.66643 1.38078C0.782327 2.26488 0.285645 3.46398 0.285645 4.71429C0.285645 8.30571 4.57136 11.76 4.73422 11.9057C4.80962 11.9662 4.90326 11.9994 4.99993 12ZM1.14279 4.71429C1.14279 3.69131 1.54916 2.71023 2.27252 1.98687C2.99587 1.26352 3.97695 0.857143 4.99993 0.857143C6.02291 0.857143 7.00399 1.26352 7.72734 1.98687C8.4507 2.71023 8.85707 3.69131 8.85707 4.71429C8.85707 7.41429 5.91279 10.2043 4.99993 11.01C4.08707 10.2043 1.14279 7.41429 1.14279 4.71429Z" fill="#87D2D4"/>
<path d="M7.1428 4.71427C7.1428 4.29045 7.01713 3.87615 6.78167 3.52376C6.54621 3.17137 6.21154 2.89672 5.81998 2.73453C5.42842 2.57234 4.99757 2.5299 4.58189 2.61259C4.16622 2.69527 3.7844 2.89936 3.48472 3.19904C3.18503 3.49872 2.98094 3.88055 2.89826 4.29622C2.81558 4.71189 2.85801 5.14275 3.0202 5.53431C3.18239 5.92586 3.45705 6.26053 3.80944 6.49599C4.16183 6.73145 4.57613 6.85713 4.99994 6.85713C5.56827 6.85713 6.11331 6.63136 6.51517 6.2295C6.91704 5.82763 7.1428 5.28259 7.1428 4.71427ZM3.71423 4.71427C3.71423 4.45998 3.78964 4.2114 3.93091 3.99996C4.07219 3.78853 4.27299 3.62374 4.50792 3.52642C4.74286 3.42911 5.00137 3.40365 5.25078 3.45326C5.50018 3.50287 5.72927 3.62532 5.90908 3.80513C6.08889 3.98494 6.21134 4.21404 6.26095 4.46344C6.31056 4.71284 6.2851 4.97136 6.18779 5.20629C6.09048 5.44122 5.92568 5.64203 5.71425 5.7833C5.50281 5.92458 5.25423 5.99998 4.99994 5.99998C4.65895 5.99998 4.33193 5.86453 4.09081 5.62341C3.84969 5.38229 3.71423 5.05526 3.71423 4.71427Z" fill="#87D2D4"/>
</svg>
