<svg width="13" height="17" viewBox="0 0 13 17" fill="none" xmlns="http://www.w3.org/2000/svg">
<path d="M6.49597 7.71661C6.41532 7.70904 6.31855 7.70904 6.22984 7.71661C5.3042 7.6871 4.42713 7.32049 3.78438 6.6944C3.14163 6.06832 2.78366 5.23193 2.78629 4.36236C2.78629 2.50731 4.38306 1.00055 6.36694 1.00055C6.83662 0.992592 7.30338 1.07157 7.74056 1.23298C8.17773 1.39439 8.57677 1.63506 8.91488 1.94126C9.25299 2.24746 9.52355 2.61318 9.71112 3.01755C9.89869 3.42192 9.99959 3.85702 10.0081 4.298C10.0165 4.73899 9.93242 5.17722 9.7605 5.58768C9.58859 5.99814 9.33225 6.37278 9.00612 6.69023C8.67999 7.00768 8.29046 7.26171 7.85977 7.43781C7.42907 7.61392 6.96566 7.70865 6.49597 7.71661ZM2.46371 10.5105C0.512097 11.7372 0.512097 13.7361 2.46371 14.9551C4.68145 16.3483 8.31855 16.3483 10.5363 14.9551C12.4879 13.7285 12.4879 11.7296 10.5363 10.5105C8.32661 9.12494 4.68952 9.12494 2.46371 10.5105Z" stroke="#115B7A" stroke-width="1.2" stroke-linecap="round" stroke-linejoin="round"/>
</svg>
