<svg width="14" height="15" viewBox="0 0 14 15" fill="none" xmlns="http://www.w3.org/2000/svg">
<path d="M13.4157 9.79466L12.1656 8.52517C11.7929 8.14978 11.29 7.93814 10.7651 7.93588C10.2402 7.93361 9.73547 8.1409 9.3597 8.51305C9.1592 8.71783 8.89468 8.84525 8.61166 8.87337C8.32864 8.90149 8.04482 8.82855 7.80903 8.66712C6.8784 8.0364 6.07892 7.22607 5.45603 6.28221C5.29986 6.0401 5.23065 5.75072 5.26004 5.46282C5.28943 5.17493 5.41564 4.90613 5.61741 4.7017C5.98055 4.31974 6.18204 3.8086 6.17875 3.27767C6.17546 2.74674 5.96765 2.23822 5.59979 1.86093L4.34971 0.591444C3.97545 0.212679 3.46861 0 2.94024 0C2.41186 0 1.90503 0.212679 1.53077 0.591444L1.17108 0.957287C-0.704045 2.86152 -0.563694 6.86503 3.33771 10.8247C5.69014 13.2142 8.05791 14.2148 9.97793 14.2148C10.5431 14.2339 11.1064 14.1386 11.635 13.9344C12.1635 13.7302 12.6468 13.4213 13.0565 13.0255L13.4168 12.6597C13.7905 12.2794 14.0002 11.7641 14 11.2269C13.9998 10.6897 13.7896 10.1746 13.4157 9.79466ZM12.6122 11.8437L12.2519 12.2096C10.7746 13.7099 7.51356 13.4358 4.14003 10.0093C0.76651 6.58285 0.496037 3.26891 1.97341 1.76861L2.33082 1.40334C2.49174 1.24051 2.70966 1.14908 2.93683 1.14908C3.164 1.14908 3.38191 1.24051 3.54283 1.40334L4.79292 2.67283C4.95092 2.83409 5.0406 3.05167 5.04283 3.27914C5.04506 3.50661 4.95966 3.72596 4.80485 3.89038C4.42089 4.28279 4.18138 4.79727 4.12645 5.34764C4.07152 5.89801 4.20451 6.45083 4.50313 6.9135C5.21087 7.98905 6.12099 8.91192 7.18115 9.62905C7.63537 9.93235 8.17832 10.0682 8.7193 10.0139C9.26028 9.9596 9.76654 9.71845 10.1535 9.33072C10.3151 9.17164 10.5317 9.08331 10.7568 9.08472C10.9818 9.08612 11.1973 9.17714 11.357 9.33822L12.6071 10.6077C12.6877 10.6883 12.7517 10.7844 12.7956 10.8902C12.8395 10.9961 12.8623 11.1098 12.8628 11.2246C12.8633 11.3395 12.8414 11.4533 12.7984 11.5596C12.7554 11.6658 12.6921 11.7624 12.6122 11.8437Z" fill="#115B7A"/>
</svg>
