<svg width="14" height="14" viewBox="0 0 14 14" fill="none" xmlns="http://www.w3.org/2000/svg">
<path d="M12.8058 4.93341L9.15964 4.617L7.73583 1.26466C7.4797 0.654456 6.60583 0.654456 6.34969 1.26466L4.92589 4.62454L1.28727 4.93341C0.624338 4.98614 0.353137 5.81481 0.857872 6.25174L3.62262 8.64735L2.79395 12.2031C2.64328 12.851 3.34388 13.3632 3.91642 13.0167L7.04276 11.1334L10.1691 13.0242C10.7416 13.3708 11.4422 12.8585 11.2916 12.2106L10.4629 8.64735L13.2277 6.25174C13.7324 5.81481 13.4687 4.98614 12.8058 4.93341ZM7.04276 9.72462L4.21022 11.4347L4.96355 8.21042L2.46248 6.04081L5.76209 5.75454L7.04276 2.7186L8.33097 5.76208L11.6306 6.04834L9.1295 8.21795L9.88284 11.4422L7.04276 9.72462Z" fill="black"/>
</svg>
