<svg width="17" height="17" viewBox="0 0 17 17" fill="none" xmlns="http://www.w3.org/2000/svg">
<path d="M1.02 17L11.9 17C12.1705 17 12.43 16.8925 12.6212 16.7012C12.8125 16.51 12.92 16.2505 12.92 15.98L12.92 12.92L15.98 12.92C16.2505 12.92 16.51 12.8125 16.7012 12.6212C16.8925 12.43 17 12.1705 17 11.9L17 1.02C17 0.749479 16.8925 0.490038 16.7012 0.298752C16.51 0.107464 16.2505 6.55216e-08 15.98 8.91712e-08L5.1 1.04033e-06C4.82948 1.06398e-06 4.57004 0.107465 4.37875 0.298753C4.18746 0.490039 4.08 0.74948 4.08 1.02L4.08 4.08L1.02 4.08C0.749478 4.08 0.490037 4.18747 0.298751 4.37875C0.107463 4.57004 -1.06398e-06 4.82948 -1.04033e-06 5.1L-8.91712e-08 15.98C-6.55216e-08 16.2505 0.107464 16.51 0.298752 16.7013C0.490038 16.8925 0.749479 17 1.02 17ZM6.12 2.04L14.96 2.04L14.96 10.88L6.12 10.88L6.12 2.04ZM2.04 6.12L4.08 6.12L4.08 11.9C4.08 12.1705 4.18746 12.43 4.37875 12.6213C4.57004 12.8125 4.82948 12.92 5.1 12.92L10.88 12.92L10.88 14.96L2.04 14.96L2.04 6.12Z" fill="#39C19D"/>
</svg>
