<svg width="15" height="21" viewBox="0 0 15 21" fill="none" xmlns="http://www.w3.org/2000/svg">
<path d="M7.53104 9.50111C7.43521 9.49153 7.32021 9.49153 7.21479 9.50111C6.11482 9.46376 5.07257 8.99974 4.30877 8.20732C3.54497 7.4149 3.11958 6.35629 3.12271 5.25569C3.12271 2.90777 5.02021 1.00069 7.37771 1.00069C7.93585 0.990623 8.49052 1.09059 9.01003 1.29488C9.52954 1.49917 10.0037 1.80379 10.4055 2.19134C10.8073 2.57889 11.1288 3.04178 11.3517 3.55358C11.5746 4.06539 11.6945 4.61609 11.7046 5.17423C11.7147 5.73238 11.6147 6.28704 11.4104 6.80655C11.2061 7.32607 10.9015 7.80025 10.5139 8.20204C10.1264 8.60383 9.6635 8.92535 9.15169 9.14824C8.63988 9.37114 8.08919 9.49104 7.53104 9.50111ZM2.73937 13.0374C0.420208 14.5899 0.420208 17.1199 2.73937 18.6628C5.37479 20.4261 9.69688 20.4261 12.3323 18.6628C14.6515 17.1103 14.6515 14.5803 12.3323 13.0374C9.70646 11.2836 5.38437 11.2836 2.73937 13.0374Z" stroke="#A9A9A9" stroke-width="1.5" stroke-linecap="round" stroke-linejoin="round"/>
</svg>
