<svg width="23" height="23" viewBox="0 0 23 23" fill="none" xmlns="http://www.w3.org/2000/svg">
<path d="M11.5 0.71875C9.40313 0.71875 7.39215 1.55173 5.90944 3.03444C4.42673 4.51715 3.59375 6.52813 3.59375 8.625C3.59375 12.7937 10.6375 21.6344 10.9394 22.0153C11.0067 22.0993 11.0921 22.167 11.1891 22.2136C11.2861 22.2601 11.3924 22.2843 11.5 22.2843C11.6076 22.2843 11.7139 22.2601 11.8109 22.2136C11.9079 22.167 11.9933 22.0993 12.0606 22.0153C12.3625 21.6344 19.4062 12.7937 19.4062 8.625C19.4062 6.52813 18.5733 4.51715 17.0906 3.03444C15.6079 1.55173 13.5969 0.71875 11.5 0.71875ZM11.5 20.3981C9.27906 17.5231 5.03125 11.4137 5.03125 8.625C5.03125 6.90938 5.71278 5.26403 6.9259 4.0509C8.13903 2.83778 9.78438 2.15625 11.5 2.15625C13.2156 2.15625 14.861 2.83778 16.0741 4.0509C17.2872 5.26403 17.9688 6.90938 17.9688 8.625C17.9688 11.4137 13.7209 17.5087 11.5 20.3981Z" fill="#37474F"/>
<path d="M11.9456 3.7305C11.8187 3.63023 11.6617 3.57568 11.5 3.57568C11.3383 3.57568 11.1813 3.63023 11.0544 3.7305L7.46062 6.6055C7.37302 6.67467 7.30273 6.76329 7.25532 6.86435C7.20791 6.9654 7.18469 7.0761 7.1875 7.18769V11.5002C7.1875 11.6908 7.26322 11.8736 7.39802 12.0084C7.53281 12.1432 7.71562 12.2189 7.90625 12.2189H15.0937C15.2844 12.2189 15.4672 12.1432 15.602 12.0084C15.7368 11.8736 15.8125 11.6908 15.8125 11.5002V7.18769C15.812 7.07973 15.7872 6.97327 15.7399 6.87621C15.6926 6.77916 15.6241 6.694 15.5394 6.62706L11.9456 3.7305ZM14.375 10.7814H8.625V7.51113L11.5 5.21113L14.375 7.51113V10.7814Z" fill="#37474F"/>
</svg>
