<svg width="19" height="19" viewBox="0 0 19 19" fill="none" xmlns="http://www.w3.org/2000/svg">
<path d="M17.2727 6.90909C17.5318 6.90909 17.7045 6.73636 17.7045 6.47727V5.18182H18.5682C18.8273 5.18182 19 5.00909 19 4.75V3.02273C19 2.85 18.8705 2.67727 18.6977 2.59091L9.62955 0H9.37045L0.302273 2.59091C0.129545 2.67727 0 2.85 0 3.02273V4.75C0 5.00909 0.172727 5.18182 0.431818 5.18182H1.29545V6.47727C1.29545 6.73636 1.46818 6.90909 1.72727 6.90909H2.15909V14.6818H1.72727C1.46818 14.6818 1.29545 14.8545 1.29545 15.1136V16.4091H0.431818C0.172727 16.4091 0 16.5818 0 16.8409V18.5682C0 18.8273 0.172727 19 0.431818 19H18.5682C18.8273 19 19 18.8273 19 18.5682V16.8409C19 16.5818 18.8273 16.4091 18.5682 16.4091H17.7045V15.1136C17.7045 14.8545 17.5318 14.6818 17.2727 14.6818H16.8409V6.90909H17.2727ZM0.863636 3.36818L9.5 0.863636L18.1364 3.325V4.31818H0.863636V3.36818ZM16.8409 5.18182V6.04545H2.15909V5.18182H16.8409ZM10.7955 14.6818V6.90909H14.25V14.6818H10.7955ZM4.75 14.6818V6.90909H8.20455V14.6818H4.75ZM9.06818 6.90909H9.93182V14.6818H9.06818V6.90909ZM3.02273 6.90909H3.88636V14.6818H3.02273V6.90909ZM18.1364 18.1364H0.863636V17.2727H18.1364V18.1364ZM2.15909 16.4091V15.5455H16.8409V16.4091H2.15909ZM15.9773 14.6818H15.1136V6.90909H15.9773V14.6818Z" fill="#37474F"/>
<path d="M9.49999 3.45432C9.97696 3.45432 10.3636 3.06766 10.3636 2.59069C10.3636 2.11371 9.97696 1.72705 9.49999 1.72705C9.02302 1.72705 8.63635 2.11371 8.63635 2.59069C8.63635 3.06766 9.02302 3.45432 9.49999 3.45432Z" fill="#37474F"/>
<path d="M6.47735 3.45397C6.71584 3.45397 6.90917 3.26064 6.90917 3.02215C6.90917 2.78366 6.71584 2.59033 6.47735 2.59033C6.23886 2.59033 6.04553 2.78366 6.04553 3.02215C6.04553 3.26064 6.23886 3.45397 6.47735 3.45397Z" fill="#37474F"/>
<path d="M12.5226 3.45397C12.7611 3.45397 12.9545 3.26064 12.9545 3.02215C12.9545 2.78366 12.7611 2.59033 12.5226 2.59033C12.2842 2.59033 12.0908 2.78366 12.0908 3.02215C12.0908 3.26064 12.2842 3.45397 12.5226 3.45397Z" fill="#37474F"/>
</svg>
