<svg width="14" height="15" viewBox="0 0 14 15" fill="none" xmlns="http://www.w3.org/2000/svg">
<path d="M13.4157 10.4006L12.1656 9.13113C11.7929 8.75574 11.29 8.5441 10.7651 8.54183C10.2402 8.53957 9.73547 8.74685 9.3597 9.11901C9.1592 9.32379 8.89468 9.4512 8.61166 9.47932C8.32864 9.50744 8.04482 9.43451 7.80903 9.27308C6.8784 8.64235 6.07892 7.83203 5.45603 6.88817C5.29986 6.64605 5.23065 6.35667 5.26004 6.06878C5.28943 5.78089 5.41564 5.51209 5.61741 5.30766C5.98055 4.9257 6.18204 4.41455 6.17875 3.88363C6.17546 3.3527 5.96765 2.84418 5.59979 2.46689L4.34971 1.1974C3.97545 0.818636 3.46861 0.605957 2.94024 0.605957C2.41186 0.605957 1.90503 0.818636 1.53077 1.1974L1.17108 1.56324C-0.704045 3.46748 -0.563694 7.47098 3.33771 11.4306C5.69014 13.8202 8.05791 14.8207 9.97793 14.8207C10.5431 14.8399 11.1064 14.7445 11.635 14.5404C12.1635 14.3362 12.6468 14.0272 13.0565 13.6315L13.4168 13.2656C13.7905 12.8854 14.0002 12.3701 14 11.8329C13.9998 11.2957 13.7896 10.7806 13.4157 10.4006ZM12.6122 12.4497L12.2519 12.8155C10.7746 14.3158 7.51356 14.0417 4.14003 10.6153C0.76651 7.18881 0.496037 3.87487 1.97341 2.37456L2.33082 2.0093C2.49174 1.84646 2.70966 1.75504 2.93683 1.75504C3.164 1.75504 3.38191 1.84646 3.54283 2.0093L4.79292 3.27878C4.95092 3.44004 5.0406 3.65762 5.04283 3.8851C5.04506 4.11257 4.95966 4.33192 4.80485 4.49634C4.42089 4.88874 4.18138 5.40323 4.12645 5.9536C4.07152 6.50397 4.20451 7.05679 4.50313 7.51945C5.21087 8.595 6.12099 9.51787 7.18115 10.235C7.63537 10.5383 8.17832 10.6741 8.7193 10.6199C9.26028 10.5656 9.76654 10.3244 10.1535 9.93668C10.3151 9.7776 10.5317 9.68927 10.7568 9.69067C10.9818 9.69208 11.1973 9.7831 11.357 9.94418L12.6071 11.2137C12.6877 11.2943 12.7517 11.3903 12.7956 11.4962C12.8395 11.6021 12.8623 11.7157 12.8628 11.8306C12.8633 11.9455 12.8414 12.0593 12.7984 12.1656C12.7554 12.2718 12.6921 12.3684 12.6122 12.4497Z" fill="#115B7A"/>
</svg>
