<svg width="19" height="18" viewBox="0 0 19 18" fill="none" xmlns="http://www.w3.org/2000/svg">
<path d="M17.5484 15.6642L17.5484 15.6642L17.5471 15.6629L12.313 10.5615L12.3127 10.5612L11.1381 9.43138L17.5471 3.20042C17.6825 3.06882 17.7931 2.92179 17.8629 2.75893C17.9313 2.59934 17.973 2.42495 17.973 2.249C17.973 2.0654 17.9462 1.88904 17.862 1.72414C17.7944 1.56716 17.6988 1.40699 17.5732 1.28488L17.5733 1.28481L17.5705 1.28238C17.4367 1.1653 17.2864 1.05841 17.1198 0.990936C16.9524 0.92313 16.7601 0.89696 16.5844 0.89696C16.4041 0.89696 16.226 0.93739 16.0507 1.00294L16.0507 1.00291L16.0489 1.00363C15.8823 1.0711 15.7313 1.17827 15.6086 1.29757L8.22074 8.48023C8.09581 8.60169 7.99947 8.74931 7.93102 8.90904L7.93099 8.90902L7.93026 8.91087C7.86271 9.08162 7.82091 9.25552 7.82091 9.43166C7.82091 9.60761 7.86262 9.782 7.93102 9.94159C7.99947 10.1013 8.09581 10.2489 8.22074 10.3704L15.6086 17.5531L15.6086 17.5531L15.61 17.5544C15.8724 17.796 16.2163 17.9156 16.5713 17.9156C16.9297 17.9156 17.2734 17.7684 17.521 17.5277C17.7817 17.2742 17.9204 16.9522 17.9208 16.603C17.9343 16.2528 17.7955 15.9178 17.5484 15.6642Z" fill="white" stroke="white" stroke-width="0.14065"/>
<path d="M1.37869 3.14876L1.37868 3.14877L1.37998 3.15004L6.61413 8.25151L6.61446 8.25183L7.78901 9.3816L1.38004 15.6126C1.24467 15.7442 1.13401 15.8912 1.06421 16.0541C0.995815 16.2136 0.9541 16.388 0.9541 16.564C0.9541 16.7476 0.980934 16.924 1.06517 17.0889C1.1327 17.2458 1.22833 17.406 1.35393 17.5281L1.35387 17.5282L1.35665 17.5306C1.49044 17.6477 1.64073 17.7546 1.80729 17.8221C1.97468 17.8899 2.16698 17.916 2.34275 17.916C2.52298 17.916 2.70115 17.8756 2.87644 17.8101L2.87645 17.8101L2.87822 17.8094C3.04478 17.7419 3.19581 17.6347 3.31852 17.5154L10.7064 10.3328C10.8313 10.2113 10.9277 10.0637 10.9961 9.90395L10.9961 9.90396L10.9969 9.90212C11.0644 9.73137 11.1062 9.55747 11.1062 9.38133C11.1062 9.20538 11.0645 9.03099 10.9961 8.8714C10.9277 8.71168 10.8313 8.56405 10.7064 8.4426L3.31852 1.25994L3.31854 1.25992L3.31714 1.25863C3.05477 1.01697 2.71086 0.897396 2.35581 0.897396C1.99746 0.897396 1.65374 1.0446 1.40615 1.28531C1.14543 1.5388 1.00668 1.8608 1.00631 2.20996C0.992857 2.56015 1.13165 2.89524 1.37869 3.14876Z" fill="white" stroke="white" stroke-width="0.14065"/>
</svg>
