<svg width="18" height="18" viewBox="0 0 18 18" fill="none" xmlns="http://www.w3.org/2000/svg">
<path d="M9 0C7.21997 0 5.47991 0.527841 3.99987 1.51677C2.51983 2.50571 1.36628 3.91131 0.685088 5.55585C0.00389955 7.20038 -0.17433 9.00998 0.172936 10.7558C0.520203 12.5016 1.37737 14.1053 2.63604 15.364C3.89471 16.6226 5.49836 17.4798 7.24419 17.8271C8.99002 18.1743 10.7996 17.9961 12.4442 17.3149C14.0887 16.6337 15.4943 15.4802 16.4832 14.0001C17.4722 12.5201 18 10.78 18 9C18 6.61305 17.0518 4.32387 15.364 2.63604C13.6761 0.948211 11.387 0 9 0ZM13.9564 6.24214L7.52786 12.6707C7.4681 12.731 7.397 12.7788 7.31866 12.8114C7.24032 12.8441 7.1563 12.8609 7.07143 12.8609C6.98657 12.8609 6.90254 12.8441 6.8242 12.8114C6.74587 12.7788 6.67476 12.731 6.615 12.6707L3.40072 9.45643C3.34078 9.39649 3.29323 9.32533 3.26079 9.24701C3.22835 9.1687 3.21166 9.08476 3.21166 9C3.21166 8.8288 3.27967 8.66462 3.40072 8.54357C3.52177 8.42252 3.68595 8.35451 3.85715 8.35451C4.02834 8.35451 4.19252 8.42252 4.31357 8.54357L7.07143 11.3079L13.0436 5.32928C13.1646 5.20823 13.3288 5.14023 13.5 5.14023C13.6712 5.14023 13.8354 5.20823 13.9564 5.32928C14.0775 5.45034 14.1455 5.61452 14.1455 5.78571C14.1455 5.95691 14.0775 6.12109 13.9564 6.24214Z" fill="white"/>
</svg>
