<svg width="14" height="14" viewBox="0 0 14 14" fill="none" xmlns="http://www.w3.org/2000/svg">
<path fill-rule="evenodd" clip-rule="evenodd" d="M7.00225 0.582153C3.46496 0.582153 0.580994 3.46203 0.580994 6.99874C0.580994 10.5354 3.46554 13.4188 7.00225 13.4188C10.539 13.4188 13.4177 10.5354 13.4177 6.99874C13.4177 3.46203 10.539 0.582153 7.00225 0.582153ZM7.00225 1.74881C7.69195 1.74765 8.37509 1.88267 9.0125 2.14611C9.6499 2.40955 10.229 2.79623 10.7167 3.28398C11.2043 3.77172 11.5909 4.35094 11.8542 4.9884C12.1175 5.62587 12.2523 6.30904 12.251 6.99874C12.2524 7.68863 12.1176 8.372 11.8544 9.0097C11.5912 9.64739 11.2047 10.2269 10.7171 10.7149C10.2294 11.203 9.65031 11.59 9.01285 11.8538C8.37539 12.1176 7.69213 12.2529 7.00225 12.2522C6.31206 12.253 5.62849 12.1177 4.99067 11.854C4.35285 11.5903 3.7733 11.2034 3.28521 10.7154C2.79713 10.2275 2.41008 9.64799 2.14624 9.01023C1.88241 8.37246 1.74695 7.68892 1.74765 6.99874C1.74765 4.09261 4.09612 1.74881 7.00225 1.74881ZM6.99291 2.90729C6.91581 2.90805 6.83962 2.92408 6.76876 2.95447C6.69789 2.98485 6.63375 3.02899 6.58005 3.08432C6.52634 3.13965 6.48414 3.20508 6.45589 3.27682C6.42763 3.34856 6.41387 3.42519 6.41542 3.50228V6.99874C6.41574 7.0755 6.43121 7.15144 6.46094 7.22221C6.49067 7.29298 6.53408 7.35719 6.58867 7.41115L8.92197 9.74562C8.97594 9.80116 9.04044 9.8454 9.11169 9.87575C9.18293 9.90611 9.25951 9.92197 9.33696 9.92241C9.4144 9.92286 9.49116 9.90788 9.56275 9.87834C9.63435 9.84881 9.69934 9.80532 9.75395 9.7504C9.80856 9.69548 9.85168 9.63024 9.88081 9.55849C9.90993 9.48673 9.92448 9.40989 9.9236 9.33245C9.92272 9.255 9.90642 9.17852 9.87566 9.10744C9.84491 9.03636 9.80031 8.97212 9.74446 8.91847L7.58324 6.75724V3.50228C7.58481 3.42411 7.57065 3.34642 7.54159 3.27383C7.51254 3.20124 7.46919 3.13523 7.41413 3.07973C7.35906 3.02422 7.29339 2.98036 7.22103 2.95073C7.14867 2.92111 7.0711 2.90634 6.99291 2.90729Z" fill="#3A3A3A"/>
</svg>
