<svg width="15" height="15" viewBox="0 0 15 15" fill="none" xmlns="http://www.w3.org/2000/svg">
<circle cx="7.5" cy="7.5" r="7.5" fill="#FE5656"/>
<path d="M9.91633 9.29025C10.0924 9.46633 10.0924 9.74025 9.91633 9.91633C9.82829 10.0044 9.72068 10.0435 9.60329 10.0435C9.4859 10.0435 9.37829 10.0044 9.29025 9.91633L7.50003 8.12612L5.70981 9.91633C5.62177 10.0044 5.51416 10.0435 5.39677 10.0435C5.27938 10.0435 5.17177 10.0044 5.08373 9.91633C4.90764 9.74025 4.90764 9.46633 5.08373 9.29025L6.87394 7.50003L5.08373 5.70981C4.90764 5.53373 4.90764 5.25981 5.08373 5.08373C5.25981 4.90764 5.53373 4.90764 5.70981 5.08373L7.50003 6.87394L9.29025 5.08373C9.46633 4.90764 9.74025 4.90764 9.91633 5.08373C10.0924 5.25981 10.0924 5.53373 9.91633 5.70981L8.12612 7.50003L9.91633 9.29025Z" fill="white"/>
</svg>
