<svg width="20" height="16" viewBox="0 0 20 16" fill="none" xmlns="http://www.w3.org/2000/svg">
<path d="M7.49996 10.2918L12.5 5.29183M16.25 8.41683C16.25 7.86429 16.4695 7.33439 16.8602 6.94369C17.2509 6.55299 17.7808 6.3335 18.3333 6.3335V5.50016C18.3333 2.16683 17.5 1.3335 14.1666 1.3335H5.83329C2.49996 1.3335 1.66663 2.16683 1.66663 5.50016V5.91683C2.21916 5.91683 2.74906 6.13632 3.13977 6.52702C3.53047 6.91772 3.74996 7.44763 3.74996 8.00016C3.74996 8.5527 3.53047 9.0826 3.13977 9.4733C2.74906 9.864 2.21916 10.0835 1.66663 10.0835V10.5002C1.66663 13.8335 2.49996 14.6668 5.83329 14.6668H14.1666C17.5 14.6668 18.3333 13.8335 18.3333 10.5002C17.7808 10.5002 17.2509 10.2807 16.8602 9.88997C16.4695 9.49927 16.25 8.96936 16.25 8.41683Z" stroke="#37474F" stroke-width="1.5" stroke-linecap="round" stroke-linejoin="round"/>
</svg>
