<svg width="16" height="17" viewBox="0 0 16 17" fill="none" xmlns="http://www.w3.org/2000/svg">
<path d="M15.2 3.09091H12V2.31818C12 1.70336 11.7471 1.11372 11.2971 0.67898C10.847 0.244236 10.2365 0 9.6 0H6.4C5.76348 0 5.15303 0.244236 4.70294 0.67898C4.25286 1.11372 4 1.70336 4 2.31818V3.09091H0.8C0.587827 3.09091 0.384344 3.17232 0.234315 3.31724C0.0842854 3.46215 0 3.6587 0 3.86364C0 4.06858 0.0842854 4.26512 0.234315 4.41004C0.384344 4.55495 0.587827 4.63636 0.8 4.63636H1.6V14.6818C1.6 15.2966 1.85286 15.8863 2.30294 16.321C2.75303 16.7558 3.36348 17 4 17H12C12.6365 17 13.247 16.7558 13.6971 16.321C14.1471 15.8863 14.4 15.2966 14.4 14.6818V4.63636H15.2C15.4122 4.63636 15.6157 4.55495 15.7657 4.41004C15.9157 4.26512 16 4.06858 16 3.86364C16 3.6587 15.9157 3.46215 15.7657 3.31724C15.6157 3.17232 15.4122 3.09091 15.2 3.09091ZM5.6 2.31818C5.6 2.11324 5.68429 1.9167 5.83431 1.77178C5.98434 1.62687 6.18783 1.54545 6.4 1.54545H9.6C9.81217 1.54545 10.0157 1.62687 10.1657 1.77178C10.3157 1.9167 10.4 2.11324 10.4 2.31818V3.09091H5.6V2.31818ZM12.8 14.6818C12.8 14.8868 12.7157 15.0833 12.5657 15.2282C12.4157 15.3731 12.2122 15.4545 12 15.4545H4C3.78783 15.4545 3.58434 15.3731 3.43431 15.2282C3.28429 15.0833 3.2 14.8868 3.2 14.6818V4.63636H12.8V14.6818ZM6.4 8.5V13.1364C6.4 13.3413 6.31571 13.5379 6.16569 13.6828C6.01566 13.8277 5.81217 13.9091 5.6 13.9091C5.38783 13.9091 5.18434 13.8277 5.03431 13.6828C4.88429 13.5379 4.8 13.3413 4.8 13.1364V8.5C4.8 8.29506 4.88429 8.09851 5.03431 7.9536C5.18434 7.80868 5.38783 7.72727 5.6 7.72727C5.81217 7.72727 6.01566 7.80868 6.16569 7.9536C6.31571 8.09851 6.4 8.29506 6.4 8.5ZM11.2 8.5V13.1364C11.2 13.3413 11.1157 13.5379 10.9657 13.6828C10.8157 13.8277 10.6122 13.9091 10.4 13.9091C10.1878 13.9091 9.98434 13.8277 9.83432 13.6828C9.68429 13.5379 9.6 13.3413 9.6 13.1364V8.5C9.6 8.29506 9.68429 8.09851 9.83432 7.9536C9.98434 7.80868 10.1878 7.72727 10.4 7.72727C10.6122 7.72727 10.8157 7.80868 10.9657 7.9536C11.1157 8.09851 11.2 8.29506 11.2 8.5Z" fill="#FF725E"/>
</svg>
