<svg width="14" height="14" viewBox="0 0 14 14" fill="none" xmlns="http://www.w3.org/2000/svg">
<path d="M12.7628 11.435L12.7628 11.435L12.7615 11.4337L9.04015 7.8067L9.03981 7.80638L8.21988 7.01771L12.7615 2.60229C12.8591 2.50736 12.9396 2.40068 12.9905 2.28182C13.04 2.16625 13.0704 2.03954 13.0704 1.91127C13.0704 1.779 13.0511 1.65033 12.9896 1.52945C12.9409 1.41648 12.8716 1.30032 12.78 1.21123L12.7801 1.21116L12.7773 1.20873C12.6812 1.12466 12.5724 1.04711 12.4511 0.997977C12.329 0.948509 12.1895 0.929675 12.0628 0.929675C11.9316 0.929675 11.8025 0.959102 11.6763 1.00631L11.6762 1.00628L11.6745 1.007C11.5532 1.05614 11.4436 1.13396 11.3549 1.22025L6.10229 6.32696C6.01131 6.41541 5.94138 6.52269 5.89179 6.6384L5.89176 6.63839L5.89103 6.64023C5.84235 6.76331 5.81186 6.88953 5.81186 7.01798C5.81186 7.14626 5.84226 7.27296 5.89179 7.38854C5.94138 7.50424 6.01131 7.61152 6.10229 7.69997L11.3549 12.8067L11.3549 12.8067L11.3563 12.808C11.547 12.9836 11.7966 13.0702 12.0535 13.0702C12.3138 13.0702 12.5632 12.9633 12.7429 12.7886C12.9319 12.6048 13.033 12.3708 13.0333 12.117C13.043 11.8622 12.9419 11.6188 12.7628 11.435Z" fill="#3A3A3A" stroke="white" stroke-width="0.14065"/>
<path d="M1.23747 2.56596L1.23745 2.56598L1.23875 2.56724L4.96011 6.19427L4.96045 6.19459L5.78038 6.98327L1.23881 11.3987C1.14117 11.4936 1.06068 11.6003 1.00975 11.7192C0.960216 11.8347 0.92982 11.9614 0.92982 12.0897C0.92982 12.222 0.949112 12.3506 1.01071 12.4715C1.05938 12.5845 1.12861 12.7007 1.22025 12.7897L1.22018 12.7898L1.22296 12.7922C1.31903 12.8763 1.42782 12.9539 1.54911 13.003C1.67123 13.0525 1.81071 13.0713 1.93745 13.0713C2.06863 13.0713 2.19776 13.0419 2.32401 12.9947L2.32402 12.9947L2.32578 12.994C2.44708 12.9448 2.55661 12.867 2.64536 12.7807L7.89797 7.67401C7.98895 7.58556 8.05888 7.47828 8.10847 7.36258L8.1085 7.36259L8.10923 7.36074C8.15791 7.23767 8.1884 7.11145 8.1884 6.983C8.1884 6.85472 8.158 6.72801 8.10847 6.61244C8.05888 6.49673 7.98895 6.38945 7.89797 6.301L2.64537 1.19429L2.64538 1.19427L2.64399 1.19299C2.45329 1.01735 2.20369 0.930783 1.94673 0.930783C1.68647 0.930782 1.43706 1.03764 1.25737 1.21234C1.06832 1.39613 0.967306 1.63013 0.966942 1.88393C0.957265 2.13875 1.05834 2.38213 1.23747 2.56596Z" fill="#3A3A3A" stroke="white" stroke-width="0.14065"/>
</svg>
