<svg width="12" height="16" viewBox="0 0 12 16" fill="none" xmlns="http://www.w3.org/2000/svg">
<path d="M1.90538 16H10.0946C10.7634 16 11.3073 15.5344 11.3073 14.9622V5.03375H11.6405C11.8392 5.03375 12 4.89047 12 4.71375V2.38156C12 2.02609 11.6752 1.73703 11.276 1.73703H8.97196C8.45664 0.691542 7.29854 0 6.00017 0C4.69955 0 3.53217 0.689139 3.01808 1.73703H0.723953C0.324761 1.73703 0 2.02609 0 2.38156V4.71375C0 4.89047 0.160802 5.03375 0.359519 5.03375H0.692707V14.9622C0.692703 15.5344 1.23655 16 1.90538 16ZM10.5883 14.9622C10.5883 15.1816 10.3667 15.36 10.0946 15.36H1.90538C1.63328 15.36 1.41174 15.1816 1.41174 14.9622V5.03375H10.5883L10.5883 14.9622ZM6.00017 0.64C6.90283 0.64 7.72334 1.06641 8.17484 1.73703H3.82515C4.27666 1.06641 5.09716 0.64 6.00017 0.64ZM0.723953 2.37703L11.281 2.38156V4.39375C10.4094 4.39375 3.3964 4.39375 0.719739 4.39375L0.723953 2.37703Z" fill="#FF5F5F"/>
<path d="M8.2952 14.3442C8.49391 14.3442 8.65472 14.2009 8.65472 14.0242V6.89715C8.65472 6.72043 8.49391 6.57715 8.2952 6.57715C8.09648 6.57715 7.93568 6.72043 7.93568 6.89715V14.0242C7.93568 14.2009 8.09648 14.3442 8.2952 14.3442ZM6.0001 14.3442C6.19882 14.3442 6.35962 14.2009 6.35962 14.0242V6.89715C6.35962 6.72043 6.19882 6.57715 6.0001 6.57715C5.80139 6.57715 5.64058 6.72043 5.64058 6.89715V14.0242C5.64058 14.2009 5.80138 14.3442 6.0001 14.3442ZM3.70466 14.3442C3.90337 14.3442 4.06418 14.2009 4.06418 14.0242V6.89715C4.06418 6.72043 3.90337 6.57715 3.70466 6.57715C3.50594 6.57715 3.34514 6.72043 3.34514 6.89715V14.0242C3.34514 14.2009 3.50594 14.3442 3.70466 14.3442Z" fill="#FF5F5F"/>
</svg>
