<svg width="15" height="16" viewBox="0 0 15 16" fill="none" xmlns="http://www.w3.org/2000/svg">
<path fill-rule="evenodd" clip-rule="evenodd" d="M14.7563 3.42052C15.0812 3.09053 15.0812 2.55746 14.7563 2.22746L12.8065 0.247485C12.6509 0.0890417 12.4395 0 12.2191 0C11.9987 0 11.7874 0.0890417 11.6317 0.247485L10.1069 1.79593L13.2315 4.96897L14.7563 3.42052ZM0 12.2374V14.8096C0 15.0466 0.183308 15.2327 0.416609 15.2327H2.94959C3.05791 15.2327 3.16623 15.1904 3.24122 15.1058L12.34 5.87437L9.21539 2.70133L0.124983 11.9328C0.0416609 12.0174 0 12.1189 0 12.2374ZM9.98194 5.87227L9.21538 5.09382L1.66643 12.7599V13.5383H2.43299L9.98194 5.87227Z" fill="#39C19D"/>
</svg>
