<svg width="21" height="21" viewBox="0 0 21 21" fill="none" xmlns="http://www.w3.org/2000/svg">
<path d="M2.625 19.6875C2.45095 19.6875 2.28403 19.6184 2.16096 19.4953C2.03789 19.3722 1.96875 19.2053 1.96875 19.0312V17.0625C1.44661 17.0625 0.945846 16.8551 0.576634 16.4859C0.207421 16.1167 0 15.6159 0 15.0938L0 3.28125C0 2.75911 0.207421 2.25835 0.576634 1.88913C0.945846 1.51992 1.44661 1.3125 1.96875 1.3125H19.0312C19.5534 1.3125 20.0542 1.51992 20.4234 1.88913C20.7926 2.25835 21 2.75911 21 3.28125V15.0938C21 15.6159 20.7926 16.1167 20.4234 16.4859C20.0542 16.8551 19.5534 17.0625 19.0312 17.0625H9.1875C9.01345 17.0625 8.84653 16.9934 8.72346 16.8703C8.60039 16.7472 8.53125 16.5803 8.53125 16.4062C8.53125 16.2322 8.60039 16.0653 8.72346 15.9422C8.84653 15.8191 9.01345 15.75 9.1875 15.75H19.0312C19.2053 15.75 19.3722 15.6809 19.4953 15.5578C19.6184 15.4347 19.6875 15.2678 19.6875 15.0938V3.28125C19.6875 3.1072 19.6184 2.94028 19.4953 2.81721C19.3722 2.69414 19.2053 2.625 19.0312 2.625H1.96875C1.7947 2.625 1.62778 2.69414 1.50471 2.81721C1.38164 2.94028 1.3125 3.1072 1.3125 3.28125V15.0938C1.3125 15.2678 1.38164 15.4347 1.50471 15.5578C1.62778 15.6809 1.7947 15.75 1.96875 15.75H2.625C2.79905 15.75 2.96597 15.8191 3.08904 15.9422C3.21211 16.0653 3.28125 16.2322 3.28125 16.4062V17.8041L6.20156 15.8353C6.27267 15.778 6.35495 15.7362 6.44315 15.7126C6.53134 15.6889 6.6235 15.6839 6.71373 15.6979C6.80396 15.7119 6.89029 15.7445 6.96718 15.7938C7.04407 15.843 7.10984 15.9078 7.16028 15.9839C7.21071 16.06 7.24471 16.1458 7.2601 16.2358C7.27548 16.3258 7.27192 16.418 7.24963 16.5066C7.22733 16.5951 7.18681 16.6781 7.13064 16.7501C7.07448 16.822 7.0039 16.8815 6.92344 16.9247C2.6775 19.7859 2.90719 19.6875 2.625 19.6875Z" fill="#37474F"/>
<path d="M10.5 11.8124C10.3259 11.8124 10.159 11.7432 10.0359 11.6201C9.91287 11.4971 9.84373 11.3301 9.84373 11.1561C9.84362 10.703 9.97752 10.26 10.2286 9.88284C10.4796 9.50567 10.8366 9.21118 11.2547 9.03641C11.6031 8.89038 11.9021 8.64719 12.1161 8.33585C12.3301 8.02451 12.45 7.65818 12.4615 7.28057C12.473 6.90296 12.3756 6.53002 12.1809 6.20625C11.9862 5.88248 11.7025 5.62155 11.3636 5.45461C11.0247 5.28766 10.645 5.22175 10.2696 5.26473C9.89431 5.30772 9.53927 5.45779 9.24689 5.69703C8.95452 5.93627 8.73714 6.25458 8.62072 6.61398C8.50429 6.97337 8.49373 7.35868 8.5903 7.72391C8.61988 7.80951 8.63143 7.9003 8.62422 7.99057C8.617 8.08084 8.59118 8.16864 8.54838 8.24845C8.50558 8.32826 8.44673 8.39835 8.37552 8.4543C8.30431 8.51026 8.2223 8.55087 8.13463 8.57358C8.04696 8.59629 7.95555 8.60061 7.86613 8.58627C7.77671 8.57193 7.69123 8.53924 7.61506 8.49025C7.53889 8.44126 7.47369 8.37704 7.42355 8.30162C7.37341 8.22621 7.33943 8.14123 7.32373 8.05204C7.16675 7.44273 7.18827 6.80114 7.38572 6.20372C7.58317 5.6063 7.94822 5.07825 8.43737 4.68249C8.92653 4.28673 9.51916 4.03996 10.1446 3.97158C10.7701 3.90321 11.4021 4.0161 11.9652 4.29683C12.5283 4.57755 12.9988 5.01425 13.3207 5.5549C13.6425 6.09555 13.8022 6.71734 13.7805 7.34617C13.7589 7.975 13.5569 8.58435 13.1987 9.10161C12.8405 9.61887 12.341 10.0222 11.76 10.2636C11.5825 10.3362 11.4304 10.4596 11.323 10.6184C11.2155 10.7773 11.1575 10.9644 11.1562 11.1561C11.1562 11.3301 11.0871 11.4971 10.964 11.6201C10.841 11.7432 10.674 11.8124 10.5 11.8124ZM10.5 14.4374C10.3702 14.4374 10.2433 14.3989 10.1354 14.3268C10.0275 14.2546 9.94336 14.1522 9.89369 14.0322C9.84402 13.9123 9.83102 13.7804 9.85634 13.6531C9.88166 13.5258 9.94417 13.4088 10.0359 13.3171C10.1277 13.2253 10.2447 13.1628 10.372 13.1375C10.4993 13.1121 10.6312 13.1251 10.7511 13.1748C10.871 13.2245 10.9735 13.3086 11.0456 13.4165C11.1177 13.5244 11.1562 13.6513 11.1562 13.7811C11.1562 13.9551 11.0871 14.1221 10.964 14.2451C10.841 14.3682 10.674 14.4374 10.5 14.4374Z" fill="#37474F"/>
</svg>
