<svg width="16" height="14" viewBox="0 0 16 14" fill="none" xmlns="http://www.w3.org/2000/svg">
<path d="M4.14413 0.50547L4.14416 0.505472C5.1412 0.558492 6.17108 0.998576 6.99209 1.82762L6.99258 1.82812L7.64585 2.48595L8.00097 2.84355L8.35575 2.4856L9.00766 1.82787C9.0077 1.82784 9.00773 1.82781 9.00776 1.82777C10.6621 0.159663 13.1123 0.0829232 14.5119 1.49448C15.915 2.90955 15.8387 5.38872 14.1836 7.05793C14.1836 7.05797 14.1835 7.05801 14.1835 7.05804C14.1835 7.05809 14.1834 7.05814 14.1834 7.05818L13.5329 7.71322L13.5327 7.71341L8.00059 13.2901L2.46727 7.71337L2.46712 7.71322L1.8165 7.05806C1.81646 7.05802 1.81642 7.05798 1.81638 7.05793C0.16137 5.3901 0.0849267 2.90965 1.48812 1.49448C2.19357 0.783001 3.14966 0.452527 4.14413 0.50547Z" stroke="white"/>
</svg>
