<svg width="19" height="17" viewBox="0 0 19 17" fill="none" xmlns="http://www.w3.org/2000/svg">
<path d="M4.91196 0.756392L4.912 0.756395C6.05114 0.818337 7.23644 1.33308 8.18623 2.31381L8.18696 2.31455L8.96272 3.11335L9.50127 3.66789L10.0393 3.11283L10.8134 2.31418C10.8135 2.31413 10.8135 2.31408 10.8135 2.31403C12.7284 0.339712 15.5284 0.27206 17.1161 1.90933C18.7214 3.56493 18.6478 6.49433 16.726 8.47603L15.9536 9.27135L15.9533 9.27164L9.50069 15.9229L3.04666 9.27159L3.04644 9.27135L2.27386 8.47584C0.352309 6.49586 0.278491 3.56502 1.88395 1.90933C2.68867 1.07943 3.77704 0.694609 4.91196 0.756392Z" stroke="#37474F" stroke-width="1.5"/>
</svg>
