<svg width="17" height="13" viewBox="0 0 17 13" fill="none" xmlns="http://www.w3.org/2000/svg">
<path d="M5.49986 9.46952L13.9662 1.21296C14.2293 0.956404 14.5641 0.828125 14.9707 0.828125C15.3773 0.828125 15.7121 0.956404 15.9752 1.21296C16.2383 1.46952 16.3698 1.79605 16.3698 2.19256C16.3698 2.58906 16.2383 2.91559 15.9752 3.17215L6.50434 12.4083C6.21734 12.6882 5.88252 12.8281 5.49986 12.8281C5.1172 12.8281 4.78237 12.6882 4.49537 12.4083L0.76443 8.76982C0.501351 8.51326 0.369812 8.18672 0.369812 7.79022C0.369812 7.39372 0.501351 7.06719 0.76443 6.81063C1.02751 6.55407 1.36234 6.42579 1.76891 6.42579C2.17549 6.42579 2.51032 6.55407 2.7734 6.81063L5.49986 9.46952Z" fill="#3A3A3A"/>
</svg>
