<svg width="17" height="21" viewBox="0 0 17 21" fill="none" xmlns="http://www.w3.org/2000/svg">
<path d="M10.1042 4.325H6.4625M15.5667 5.75V15.25C15.5667 19.05 14.6562 20 11.0146 20H5.55208C1.91042 20 1 19.05 1 15.25V5.75C1 1.95 1.91042 1 5.55208 1H11.0146C14.6562 1 15.5667 1.95 15.5667 5.75Z" stroke="#37474F" stroke-width="1.5" stroke-linecap="round" stroke-linejoin="round"/>
<path d="M8.28322 17.2448C8.65748 17.2448 9.01641 17.0897 9.28105 16.8135C9.54569 16.5374 9.69436 16.1628 9.69436 15.7723C9.69436 15.3818 9.54569 15.0072 9.28105 14.7311C9.01641 14.4549 8.65748 14.2998 8.28322 14.2998C7.90896 14.2998 7.55003 14.4549 7.28539 14.7311C7.02074 15.0072 6.87207 15.3818 6.87207 15.7723C6.87207 16.1628 7.02074 16.5374 7.28539 16.8135C7.55003 17.0897 7.90896 17.2448 8.28322 17.2448Z" stroke="#37474F" stroke-width="1.5" stroke-linecap="round" stroke-linejoin="round"/>
</svg>
