<svg width="30" height="30" viewBox="0 0 30 30" fill="none" xmlns="http://www.w3.org/2000/svg">
<circle cx="15" cy="15" r="15" fill="black" fill-opacity="0.6"/>
<path d="M19.796 18.7019L19.795 18.701L16.6939 15.6785L16.6936 15.6782L16.004 15.0148L19.795 11.3291C19.8758 11.2505 19.9421 11.1626 19.984 11.0648C20.0249 10.9694 20.0499 10.865 20.0499 10.7594C20.0499 10.6499 20.0339 10.5441 19.9833 10.4449C19.943 10.3513 19.8858 10.2555 19.8105 10.1822L19.8105 10.1821L19.8085 10.1804C19.7289 10.1107 19.639 10.0467 19.5392 10.0063C19.4387 9.9656 19.3237 9.95 19.2188 9.95C19.1108 9.95 19.0042 9.97423 18.8997 10.0133L18.8997 10.0133L18.8984 10.0138C18.7985 10.0543 18.7082 10.1184 18.6349 10.1897L14.2577 14.4453C14.1828 14.5182 14.1251 14.6066 14.0841 14.7021L14.0841 14.7021L14.0836 14.7034C14.0433 14.8053 14.0182 14.9093 14.0182 15.015C14.0182 15.1206 14.0433 15.225 14.0841 15.3204C14.1251 15.416 14.1828 15.5044 14.2577 15.5772L18.6349 19.8328L18.6348 19.8328L18.6358 19.8337C18.793 19.9785 18.9988 20.05 19.2111 20.05C19.4256 20.05 19.6313 19.9619 19.7795 19.8178C19.9355 19.6661 20.0187 19.4733 20.019 19.2641C20.027 19.0542 19.9438 18.8536 19.796 18.7019Z" fill="white" stroke="white" stroke-width="0.1"/>
<path d="M10.2038 11.2981L10.2047 11.299L13.3059 14.3215L13.3061 14.3218L13.9958 14.9852L10.2048 18.6709C10.124 18.7495 10.0577 18.8374 10.0158 18.9352C9.97489 19.0306 9.94987 19.135 9.94987 19.2406C9.94987 19.3501 9.96586 19.4559 10.0165 19.5551C10.0567 19.6487 10.1139 19.7445 10.1893 19.8178L10.1892 19.8179L10.1912 19.8196C10.2709 19.8893 10.3607 19.9533 10.4606 19.9937C10.561 20.0344 10.6761 20.05 10.781 20.05C10.889 20.05 10.9956 20.0258 11.1001 19.9867L11.1001 19.9867L11.1013 19.9862C11.2012 19.9457 11.2916 19.8816 11.3649 19.8103L15.7421 15.5547C15.817 15.4818 15.8747 15.3934 15.9156 15.2979L15.9156 15.2979L15.9161 15.2966C15.9564 15.1947 15.9815 15.0907 15.9815 14.985C15.9815 14.8794 15.9565 14.775 15.9156 14.6796C15.8747 14.584 15.817 14.4956 15.7421 14.4228L11.3649 10.1672L11.3649 10.1672L11.3639 10.1663C11.2068 10.0215 11.0009 9.95002 10.7887 9.95002C10.5741 9.95002 10.3684 10.0381 10.2202 10.1822C10.0642 10.3339 9.98107 10.5267 9.98081 10.7359C9.97279 10.9458 10.056 11.1464 10.2038 11.2981Z" fill="white" stroke="white" stroke-width="0.1"/>
</svg>
