<svg width="23" height="23" viewBox="0 0 23 23" fill="none" xmlns="http://www.w3.org/2000/svg">
<path d="M11.5192 2.78857C8.34708 2.78857 5.76916 5.36649 5.76916 8.53857V11.3082C5.76916 11.8927 5.51999 12.784 5.22291 13.2823L4.12083 15.1127C3.44041 16.2436 3.90999 17.499 5.15583 17.9207C9.28624 19.3007 13.7425 19.3007 17.8729 17.9207C19.0325 17.5373 19.5404 16.1669 18.9079 15.1127L17.8058 13.2823C17.5183 12.784 17.2692 11.8927 17.2692 11.3082V8.53857C17.2692 5.37607 14.6817 2.78857 11.5192 2.78857Z" stroke="#37474F" stroke-width="1.5" stroke-miterlimit="10" stroke-linecap="round"/>
<path d="M13.2921 3.06687C12.1332 2.73681 10.9051 2.73681 9.74625 3.06687C10.0242 2.35771 10.7142 1.85938 11.5192 1.85938C12.3242 1.85938 13.0142 2.35771 13.2921 3.06687Z" stroke="#37474F" stroke-width="1.5" stroke-miterlimit="10" stroke-linecap="round" stroke-linejoin="round"/>
<path d="M14.3942 18.2656C14.3942 19.8469 13.1004 21.1406 11.5192 21.1406C10.7333 21.1406 10.005 20.8148 9.4875 20.2973C8.94906 19.758 8.64588 19.0277 8.64417 18.2656" stroke="#37474F" stroke-width="1.5" stroke-miterlimit="10"/>
</svg>
