<svg width="23" height="25" viewBox="0 0 23 25" fill="none" xmlns="http://www.w3.org/2000/svg">
<path d="M21.8766 11.3356C21.6003 11.3355 21.3353 11.2256 21.1399 11.0302C20.9445 10.8348 20.8346 10.5698 20.8344 10.2935C20.8384 8.8565 20.5574 7.43303 20.0076 6.10543C19.4577 4.77782 18.6501 3.57245 17.6313 2.55908C17.5337 2.46251 17.4561 2.34761 17.403 2.22095C17.3499 2.0943 17.3224 1.95841 17.322 1.82109C17.3217 1.68377 17.3484 1.54772 17.4008 1.42079C17.4532 1.29385 17.5302 1.17852 17.6273 1.08143C17.7244 0.984344 17.8397 0.907411 17.9667 0.855057C18.0936 0.802704 18.2297 0.775963 18.367 0.776372C18.5043 0.776781 18.6402 0.804331 18.7669 0.85744C18.8935 0.910549 19.0084 0.988168 19.1049 1.08583C20.3178 2.29218 21.2795 3.72712 21.9341 5.30759C22.5888 6.88805 22.9235 8.58267 22.9189 10.2934C22.9185 10.5696 22.8085 10.8345 22.6132 11.0298C22.4178 11.2252 22.153 11.3351 21.8767 11.3355L21.8766 11.3356Z" fill="url(#paint0_linear_530_9949)"/>
<path d="M1.04223 11.3359C0.765885 11.3358 0.500904 11.2259 0.305496 11.0305C0.110087 10.8351 0.000228246 10.5701 4.71598e-05 10.2938C-0.00457172 8.58307 0.330137 6.88846 0.984802 5.30799C1.63947 3.72752 2.60109 2.29259 3.81401 1.08624C4.00976 0.892655 4.27416 0.784413 4.54946 0.78516C4.82476 0.785907 5.08858 0.895582 5.28327 1.09022C5.47796 1.28486 5.58771 1.54865 5.58853 1.82395C5.58934 2.09925 5.48117 2.36368 5.28764 2.55948C4.26887 3.57285 3.4612 4.77823 2.91138 6.10583C2.36157 7.43344 2.08053 8.85691 2.08452 10.2939C2.08434 10.5702 1.97448 10.8352 1.77907 11.0306C1.58366 11.226 1.31868 11.3359 1.04233 11.336L1.04223 11.3359Z" fill="url(#paint1_linear_530_9949)"/>
<path d="M21.2299 17.6173C20.4529 16.9616 19.8285 16.144 19.4005 15.2218C18.9724 14.2996 18.7511 13.2949 18.7519 12.2782V9.3751C18.7486 7.62355 18.1154 5.93162 16.968 4.60828C15.8205 3.28494 14.2353 2.4185 12.5019 2.16719V1.04219C12.5019 0.765783 12.3921 0.500698 12.1966 0.30525C12.0012 0.109801 11.7361 0 11.4597 0C11.1833 0 10.9182 0.109801 10.7227 0.30525C10.5273 0.500698 10.4175 0.765783 10.4175 1.04219V2.16719C8.68396 2.41825 7.09861 3.28462 5.95109 4.60801C4.80357 5.93141 4.17049 7.62348 4.16749 9.3751V12.2796C4.16776 13.2984 3.94524 14.3049 3.51552 15.2286C3.08581 16.1524 2.4593 16.971 1.6799 17.6271C1.397 17.8694 1.19515 18.1926 1.10151 18.5532C1.00786 18.9137 1.02693 19.2943 1.15613 19.6437C1.28533 19.9931 1.51846 20.2945 1.82416 20.5074C2.12985 20.7203 2.49342 20.8344 2.86593 20.8344H20.0534C20.4271 20.8342 20.7918 20.7193 21.098 20.5051C21.4043 20.2909 21.6373 19.9879 21.7657 19.6369C21.894 19.2859 21.9115 18.904 21.8156 18.5428C21.7198 18.1815 21.5153 17.8585 21.2299 17.6173Z" fill="url(#paint2_linear_530_9949)"/>
<path d="M11.4598 25C12.3598 24.9989 13.2319 24.6874 13.929 24.1181C14.626 23.5489 15.1055 22.7566 15.2864 21.875H7.63171C7.81321 22.7566 8.29301 23.5488 8.99029 24.118C9.68757 24.6872 10.5597 24.9987 11.4598 25Z" fill="url(#paint3_linear_530_9949)"/>
<defs>
<linearGradient id="paint0_linear_530_9949" x1="20.1759" y1="17.317" x2="20.1759" y2="0.774678" gradientUnits="userSpaceOnUse">
<stop stop-color="#87B7FF"/>
<stop offset="1" stop-color="#8FFFDF"/>
</linearGradient>
<linearGradient id="paint1_linear_530_9949" x1="2.84965" y1="17.3126" x2="2.84965" y2="0.783469" gradientUnits="userSpaceOnUse">
<stop stop-color="#87B7FF"/>
<stop offset="1" stop-color="#8FFFDF"/>
</linearGradient>
<linearGradient id="paint2_linear_530_9949" x1="11.6663" y1="32.6361" x2="11.6663" y2="-0.00333257" gradientUnits="userSpaceOnUse">
<stop stop-color="#87B7FF"/>
<stop offset="1" stop-color="#8FFFDF"/>
</linearGradient>
<linearGradient id="paint3_linear_530_9949" x1="11.5349" y1="26.7702" x2="11.5349" y2="21.8745" gradientUnits="userSpaceOnUse">
<stop stop-color="#87B7FF"/>
<stop offset="1" stop-color="#8FFFDF"/>
</linearGradient>
</defs>
</svg>
