<svg width="21" height="22" viewBox="0 0 21 22" fill="none" xmlns="http://www.w3.org/2000/svg">
<path d="M18.47 8.99738H2.47V16.9974C2.47 19.9974 3.47 20.9974 6.47 20.9974H14.47C17.47 20.9974 18.47 19.9974 18.47 16.9974V8.99738ZM20 5.99738V6.99738C20 8.09738 19.47 8.99738 18 8.99738H3C1.47 8.99738 1 8.09738 1 6.99738V5.99738C1 4.89738 1.47 3.99738 3 3.99738H18C19.47 3.99738 20 4.89738 20 5.99738ZM10.14 3.99738H4.62C4.45557 3.81904 4.3668 3.58383 4.3724 3.34132C4.37799 3.09881 4.47752 2.86794 4.65 2.69738L6.07 1.27738C6.24972 1.09967 6.49226 1 6.745 1C6.99774 1 7.24028 1.09967 7.42 1.27738L10.14 3.99738ZM16.37 3.99738H10.85L13.57 1.27738C13.7497 1.09967 13.9923 1 14.245 1C14.4977 1 14.7403 1.09967 14.92 1.27738L16.34 2.69738C16.7 3.05738 16.71 3.62738 16.37 3.99738Z" stroke="url(#paint0_linear_1057_1209)" stroke-width="1.5" stroke-miterlimit="10" stroke-linecap="round" stroke-linejoin="round"/>
<path d="M7.43994 8.99756V14.1376C7.43994 14.9376 8.31994 15.4076 8.98994 14.9776L9.92994 14.3576C10.0932 14.25 10.2844 14.1927 10.4799 14.1927C10.6754 14.1927 10.8667 14.25 11.0299 14.3576L11.9199 14.9576C12.0701 15.0577 12.2447 15.1151 12.4249 15.1238C12.6052 15.1325 12.7845 15.0921 12.9436 15.0069C13.1027 14.9217 13.2357 14.7949 13.3284 14.64C13.4211 14.4852 13.47 14.308 13.4699 14.1276V8.99756H7.43994Z" stroke="url(#paint1_linear_1057_1209)" stroke-width="1.5" stroke-miterlimit="10" stroke-linecap="round" stroke-linejoin="round"/>
<defs>
<linearGradient id="paint0_linear_1057_1209" x1="10.5" y1="1" x2="10.5" y2="20.9974" gradientUnits="userSpaceOnUse">
<stop stop-color="#50EBC5"/>
<stop offset="1" stop-color="#4CB4DC"/>
</linearGradient>
<linearGradient id="paint1_linear_1057_1209" x1="10.4549" y1="8.99756" x2="10.4549" y2="15.1405" gradientUnits="userSpaceOnUse">
<stop stop-color="#50EBC5"/>
<stop offset="1" stop-color="#4CB4DC"/>
</linearGradient>
</defs>
</svg>
