<svg width="13" height="13" viewBox="0 0 13 13" fill="none" xmlns="http://www.w3.org/2000/svg">
<path d="M11.0719 1.92806C8.54668 -0.597113 4.45323 -0.597113 1.92806 1.92806C-0.597113 4.45323 -0.597113 8.54668 1.92806 11.0719C4.45323 13.597 8.54668 13.597 11.0719 11.0719C13.597 8.54668 13.5965 4.45323 11.0719 1.92806ZM10.0187 4.90116L6.08978 8.83065C5.99279 8.92761 5.86125 8.98209 5.72409 8.98209C5.58694 8.98209 5.4554 8.92761 5.3584 8.83065L2.98116 6.45289C2.93314 6.40486 2.89505 6.34785 2.86906 6.28511C2.84307 6.22236 2.82969 6.15511 2.82969 6.0872C2.82969 5.95004 2.88418 5.81849 2.98116 5.72151C3.07815 5.62452 3.20969 5.57003 3.34685 5.57003C3.48401 5.57003 3.61556 5.62452 3.71254 5.72151L5.72409 7.73306L9.28737 4.16927C9.33543 4.12124 9.39247 4.08316 9.45525 4.05718C9.51803 4.0312 9.5853 4.01784 9.65324 4.01787C9.72118 4.01789 9.78845 4.0313 9.85121 4.05732C9.91397 4.08334 9.97098 4.12147 10.019 4.16953C10.067 4.21758 10.1051 4.27463 10.1311 4.3374C10.1571 4.40018 10.1704 4.46746 10.1704 4.5354C10.1704 4.60334 10.157 4.67061 10.131 4.73336C10.1049 4.79612 10.0668 4.85314 10.0187 4.90116Z" fill="#00FFC2"/>
</svg>
