<svg width="24" height="24" viewBox="0 0 24 24" fill="none" xmlns="http://www.w3.org/2000/svg">
<path d="M11.568 6.29706e-05C5.17969 6.29706e-05 0 5.17975 0 11.5731C0 14.6403 1.21875 17.5856 3.38711 19.754C7.89648 24.2837 15.2191 24.304 19.7488 19.7946C24.2785 15.2852 24.2988 7.96256 19.7895 3.43288C19.7742 3.41764 19.759 3.40241 19.7488 3.39225C17.5855 1.20866 14.6402 -0.0100933 11.568 6.29706e-05ZM11.568 22.1255C5.74844 22.1255 1.01055 17.3926 1.01055 11.5731C1.01055 5.75358 5.74844 1.01569 11.568 1.01569C17.3875 1.01569 22.1203 5.7485 22.1203 11.568C22.1203 17.3876 17.3875 22.1255 11.568 22.1255Z" fill="url(#paint0_linear_1057_1191)"/>
<path d="M14.6454 7.65283C14.6454 7.37354 14.4168 7.14502 14.1375 7.14502H8.99849C8.71919 7.14502 8.49067 7.37354 8.49067 7.65283C8.49067 7.93213 8.71919 8.16064 8.99849 8.16064H10.4711C11.2075 8.16572 11.8575 8.63291 12.0911 9.32861H8.99849C8.71919 9.32861 8.49067 9.55713 8.49067 9.83643C8.49067 10.1157 8.71919 10.3442 8.99849 10.3442H12.0911C12.0098 10.6083 11.8625 10.8521 11.6696 11.0501C11.3547 11.3751 10.9231 11.5579 10.4711 11.563H8.99849C8.72935 11.5528 8.50083 11.7661 8.49067 12.0353C8.4856 12.1774 8.54146 12.3196 8.6481 12.4161L12.3247 15.8896C12.5278 16.0825 12.8528 16.0724 13.0407 15.8642C13.2286 15.6712 13.2235 15.3614 13.0305 15.1735C13.0254 15.1685 13.0204 15.1685 13.0204 15.1634L10.2731 12.5786H10.4661C11.1872 12.5735 11.8778 12.2841 12.3856 11.7712C12.7766 11.3853 13.0407 10.8876 13.1321 10.3442H14.1375C14.4168 10.3442 14.6454 10.1157 14.6454 9.83643C14.6454 9.55713 14.4168 9.32861 14.1375 9.32861H13.1321C13.061 8.89697 12.868 8.49072 12.5786 8.16064H14.1325C14.4168 8.16064 14.6454 7.93213 14.6454 7.65283Z" fill="url(#paint1_linear_1057_1191)"/>
<path d="M11.568 2.71191C6.68289 2.71191 2.71179 6.68301 2.71179 11.5682C2.71179 16.4533 6.68289 20.4244 11.568 20.4244C16.4532 20.4244 20.4243 16.4533 20.4243 11.5682C20.4243 6.68301 16.4532 2.71191 11.568 2.71191ZM11.568 19.4088C7.24656 19.4088 3.72742 15.8896 3.72742 11.5682C3.72742 7.24668 7.24656 3.72754 11.568 3.72754C15.8895 3.72754 19.4087 7.24668 19.4087 11.5682C19.4087 15.8896 15.8895 19.4088 11.568 19.4088Z" fill="url(#paint2_linear_1057_1191)"/>
<defs>
<linearGradient id="paint0_linear_1057_1191" x1="11.5794" y1="0" x2="11.5794" y2="23.164" gradientUnits="userSpaceOnUse">
<stop stop-color="#4FEBC4"/>
<stop offset="1" stop-color="#4BB1DC"/>
</linearGradient>
<linearGradient id="paint1_linear_1057_1191" x1="11.5679" y1="7.14502" x2="11.5679" y2="16.0276" gradientUnits="userSpaceOnUse">
<stop stop-color="#4FEBC4"/>
<stop offset="1" stop-color="#4BB1DC"/>
</linearGradient>
<linearGradient id="paint2_linear_1057_1191" x1="11.568" y1="2.71191" x2="11.568" y2="20.4244" gradientUnits="userSpaceOnUse">
<stop stop-color="#4FEBC4"/>
<stop offset="1" stop-color="#4BB1DC"/>
</linearGradient>
</defs>
</svg>
