<svg width="20" height="21" viewBox="0 0 20 21" fill="none" xmlns="http://www.w3.org/2000/svg">
<path d="M9.99012 5.43815e-05C4.47319 5.43815e-05 0 4.47324 0 9.99456C0 12.6434 1.05251 15.187 2.92511 17.0596C6.81942 20.9714 13.1433 20.9889 17.0551 17.0946C20.967 13.2003 20.9845 6.87648 17.0902 2.96464C17.077 2.95148 17.0639 2.93832 17.0551 2.92955C15.1869 1.0438 12.6433 -0.00871657 9.99012 5.43815e-05ZM9.99012 19.1076C4.96436 19.1076 0.87271 15.0203 0.87271 9.99456C0.87271 4.9688 4.96436 0.87715 9.99012 0.87715C15.0159 0.87715 19.1031 4.96441 19.1031 9.99017C19.1031 15.0159 15.0159 19.1076 9.99012 19.1076Z" fill="#37474F"/>
<path d="M12.6477 6.60896C12.6477 6.36776 12.4504 6.17041 12.2092 6.17041H7.7711C7.5299 6.17041 7.33255 6.36776 7.33255 6.60896C7.33255 6.85016 7.5299 7.04751 7.7711 7.04751H9.04289C9.67878 7.05189 10.2401 7.45535 10.4419 8.05617H7.7711C7.5299 8.05617 7.33255 8.25351 7.33255 8.49471C7.33255 8.73591 7.5299 8.93326 7.7711 8.93326H10.4419C10.3717 9.16131 10.2445 9.37181 10.0779 9.54284C9.80596 9.82351 9.43319 9.98139 9.04289 9.98577H7.7711C7.53867 9.977 7.34132 10.1612 7.33255 10.3936C7.32816 10.5164 7.37641 10.6392 7.4685 10.7225L10.6436 13.7222C10.819 13.8888 11.0997 13.8801 11.2619 13.7003C11.4242 13.5336 11.4198 13.2661 11.2532 13.1038C11.2488 13.0995 11.2444 13.0995 11.2444 13.0951L8.87185 10.8629H9.0385C9.66124 10.8585 10.2577 10.6085 10.6962 10.1656C11.0339 9.83228 11.2619 9.40251 11.3409 8.93326H12.2092C12.4504 8.93326 12.6477 8.73591 12.6477 8.49471C12.6477 8.25351 12.4504 8.05617 12.2092 8.05617H11.3409C11.2795 7.6834 11.1128 7.33256 10.8629 7.04751H12.2048C12.4504 7.04751 12.6477 6.85016 12.6477 6.60896Z" fill="#37474F"/>
<path d="M9.99019 2.3418C5.77136 2.3418 2.34192 5.77124 2.34192 9.99007C2.34192 14.2089 5.77136 17.6383 9.99019 17.6383C14.209 17.6383 17.6385 14.2089 17.6385 9.99007C17.6385 5.77124 14.209 2.3418 9.99019 2.3418ZM9.99019 16.7612C6.25815 16.7612 3.21901 13.7221 3.21901 9.99007C3.21901 6.25803 6.25815 3.21889 9.99019 3.21889C13.7222 3.21889 16.7614 6.25803 16.7614 9.99007C16.7614 13.7221 13.7222 16.7612 9.99019 16.7612Z" fill="#37474F"/>
</svg>
