<svg width="16" height="18" viewBox="0 0 16 18" fill="none" xmlns="http://www.w3.org/2000/svg">
<path d="M14.0134 2.67714C12.2566 2.16578 10.5575 1.47368 8.94331 0.611938C8.65968 0.437234 8.33311 0.344727 7.99999 0.344727C7.66688 0.344727 7.3403 0.437234 7.05667 0.611938C5.44269 1.47357 3.74378 2.16567 1.98715 2.67714C1.61298 2.79531 1.28771 3.03258 1.06091 3.35278C0.834102 3.67298 0.718203 4.05855 0.730873 4.45074L0.928873 10.4267C1.37011 13.429 4.51891 15.9328 6.35707 17.1574C6.84333 17.4825 7.41509 17.656 7.99999 17.656C8.5849 17.656 9.15666 17.4825 9.64291 17.1574C11.4811 15.9328 14.6299 13.429 15.077 10.3587L15.269 4.45134C15.2818 4.05915 15.1661 3.67353 14.9394 3.35323C14.7127 3.03293 14.3875 2.79551 14.0134 2.67714ZM13.884 10.2515C13.5102 12.7955 10.6496 15.0439 8.97739 16.1583C8.68823 16.352 8.34803 16.4554 7.99999 16.4554C7.65195 16.4554 7.31176 16.352 7.02259 16.1583C5.35039 15.0439 2.48983 12.7951 2.12191 10.3199L1.92991 4.41258C1.92555 4.28242 1.96375 4.1544 2.03872 4.04791C2.11369 3.94143 2.22135 3.86231 2.34535 3.82254C4.19647 3.28225 5.9857 2.54894 7.68355 1.6347C7.77806 1.57435 7.88786 1.54229 7.99999 1.54229C8.11213 1.54229 8.22192 1.57435 8.31643 1.6347C10.0145 2.54891 11.8041 3.28206 13.6555 3.82206C13.7794 3.86195 13.8869 3.94112 13.9617 4.04759C14.0366 4.15406 14.0747 4.28202 14.0703 4.4121L13.884 10.2515ZM9.06115 7.9869C9.05888 8.15551 9.01573 8.32106 8.93541 8.46933C8.85509 8.6176 8.73999 8.74417 8.59999 8.83818V10.4719C8.59999 10.631 8.53678 10.7836 8.42426 10.8961C8.31174 11.0086 8.15912 11.0719 7.99999 11.0719C7.84086 11.0719 7.68825 11.0086 7.57573 10.8961C7.46321 10.7836 7.39999 10.631 7.39999 10.4719V8.83818C7.26 8.74417 7.1449 8.6176 7.06458 8.46933C6.98425 8.32106 6.94111 8.15551 6.93883 7.9869C6.93883 7.70546 7.05063 7.43555 7.24964 7.23654C7.44865 7.03754 7.71856 6.92574 7.99999 6.92574C8.28143 6.92574 8.55134 7.03754 8.75035 7.23654C8.94935 7.43555 9.06115 7.70546 9.06115 7.9869Z" fill="#37474F"/>
</svg>
