<svg width="20" height="20" viewBox="0 0 20 20" fill="none" xmlns="http://www.w3.org/2000/svg">
<circle cx="9.72022" cy="10.2798" r="9.3119" fill="black" fill-opacity="0.75"/>
<path d="M13.5614 13.2218L13.5614 13.2218L13.5603 13.2208L11.0851 10.8083L11.0848 10.808L10.548 10.2916L13.5603 7.363C13.626 7.29909 13.6806 7.22693 13.7152 7.14615C13.7486 7.0681 13.7693 6.98229 13.7693 6.89518C13.7693 6.80624 13.7563 6.71881 13.7144 6.63637C13.6816 6.56045 13.6349 6.48191 13.5726 6.42137L13.5727 6.42131L13.5704 6.4193C13.5059 6.36292 13.4325 6.31047 13.3502 6.27713C13.2672 6.24352 13.1729 6.23086 13.0876 6.23086C12.9987 6.23086 12.9114 6.25082 12.8265 6.28256L12.8265 6.28254L12.825 6.28313C12.7427 6.31647 12.6687 6.36915 12.6088 6.42737L9.11508 9.82405C9.05335 9.88406 9.00603 9.95672 8.97253 10.0349L8.97251 10.0349L8.9719 10.0364C8.93915 10.1192 8.91844 10.2046 8.91844 10.2919C8.91844 10.379 8.93907 10.4648 8.97253 10.5428C9.00603 10.621 9.05335 10.6937 9.11508 10.7537L12.6088 14.1504L12.6088 14.1504L12.6099 14.1514C12.7391 14.2704 12.908 14.3289 13.0814 14.3289C13.2576 14.3289 13.4264 14.2565 13.5479 14.1384C13.6757 14.0141 13.7443 13.8556 13.7446 13.6837C13.7511 13.5109 13.6825 13.3461 13.5614 13.2218Z" fill="white" stroke="white" stroke-width="0.116399"/>
<path d="M5.87906 7.33785L5.87904 7.33787L5.88012 7.33891L8.35535 9.7514L8.35562 9.75166L8.89248 10.2681L5.88017 13.1967C5.81444 13.2606 5.75989 13.3328 5.72527 13.4135C5.69182 13.4916 5.67119 13.5774 5.67119 13.6645C5.67119 13.7535 5.68414 13.8409 5.72607 13.9233C5.75881 13.9992 5.80556 14.0778 5.86782 14.1383L5.86777 14.1384L5.87007 14.1404C5.9345 14.1968 6.00795 14.2492 6.09024 14.2826C6.17321 14.3162 6.26754 14.3288 6.35282 14.3288C6.44179 14.3288 6.52906 14.3089 6.61394 14.2771L6.61395 14.2772L6.61541 14.2766C6.6977 14.2432 6.77177 14.1905 6.83165 14.1323L10.3254 10.7356C10.3871 10.6756 10.4344 10.603 10.4679 10.5248L10.4679 10.5248L10.4685 10.5233C10.5013 10.4405 10.522 10.3551 10.522 10.2678C10.522 10.1807 10.5014 10.0949 10.4679 10.0169C10.4344 9.93869 10.3871 9.86603 10.3254 9.80602L6.83165 6.40934L6.83167 6.40932L6.83051 6.40826C6.70134 6.28929 6.53246 6.23084 6.359 6.23084C6.18281 6.23084 6.01409 6.30315 5.89252 6.42134C5.76471 6.5456 5.69619 6.70407 5.69588 6.876C5.68938 7.04878 5.75794 7.21356 5.87906 7.33785Z" fill="white" stroke="white" stroke-width="0.116399"/>
</svg>
