<svg width="54" height="54" viewBox="0 0 54 54" fill="none" xmlns="http://www.w3.org/2000/svg">
<g filter="url(#filter0_d_1606_35)">
<circle cx="27" cy="21" r="16" fill="#115B7A"/>
</g>
<path d="M33.3608 23.6152L32.1233 22.3777C31.7544 22.0118 31.2565 21.8055 30.7369 21.8033C30.2173 21.8011 29.7177 22.0031 29.3457 22.3659C29.1472 22.5655 28.8853 22.6897 28.6052 22.7172C28.325 22.7446 28.044 22.6735 27.8106 22.5161C26.8894 21.9013 26.0979 21.1114 25.4813 20.1913C25.3267 19.9553 25.2582 19.6732 25.2873 19.3926C25.3164 19.1119 25.4413 18.8499 25.6411 18.6506C26.0005 18.2783 26.2 17.78 26.1967 17.2625C26.1935 16.7449 25.9878 16.2492 25.6236 15.8814L24.3861 14.6439C24.0156 14.2747 23.5139 14.0674 22.9908 14.0674C22.4678 14.0674 21.966 14.2747 21.5956 14.6439L21.2395 15.0005C19.3832 16.8568 19.5222 20.7594 23.3843 24.6193C25.7131 26.9486 28.057 27.924 29.9577 27.924C30.5172 27.9426 31.0748 27.8497 31.598 27.6507C32.1213 27.4516 32.5996 27.1504 33.0053 26.7647L33.3619 26.408C33.7318 26.0374 33.9395 25.5351 33.9393 25.0114C33.9391 24.4878 33.731 23.9856 33.3608 23.6152ZM32.5654 25.6127L32.2088 25.9693C30.7463 27.4318 27.5181 27.1646 24.1786 23.8245C20.839 20.4844 20.5712 17.2539 22.0337 15.7914L22.3876 15.4354C22.5469 15.2766 22.7626 15.1875 22.9875 15.1875C23.2123 15.1875 23.4281 15.2766 23.5874 15.4354L24.8249 16.6729C24.9813 16.8301 25.0701 17.0422 25.0723 17.2639C25.0745 17.4856 24.9899 17.6995 24.8367 17.8597C24.4566 18.2423 24.2195 18.7438 24.1651 19.2803C24.1107 19.8168 24.2424 20.3557 24.538 20.8067C25.2386 21.8551 26.1396 22.7547 27.1891 23.4538C27.6387 23.7495 28.1762 23.8819 28.7117 23.8289C29.2473 23.776 29.7484 23.5409 30.1315 23.163C30.2915 23.0079 30.5059 22.9218 30.7287 22.9232C30.9515 22.9246 31.1648 23.0133 31.3229 23.1703L32.5604 24.4078C32.6401 24.4864 32.7036 24.58 32.747 24.6832C32.7904 24.7864 32.8131 24.8972 32.8135 25.0092C32.814 25.1212 32.7923 25.2321 32.7497 25.3357C32.7072 25.4393 32.6445 25.5334 32.5654 25.6127Z" fill="white"/>
<defs>
<filter id="filter0_d_1606_35" x="0" y="0" width="54" height="54" filterUnits="userSpaceOnUse" color-interpolation-filters="sRGB">
<feFlood flood-opacity="0" result="BackgroundImageFix"/>
<feColorMatrix in="SourceAlpha" type="matrix" values="0 0 0 0 0 0 0 0 0 0 0 0 0 0 0 0 0 0 127 0" result="hardAlpha"/>
<feOffset dy="6"/>
<feGaussianBlur stdDeviation="5.5"/>
<feComposite in2="hardAlpha" operator="out"/>
<feColorMatrix type="matrix" values="0 0 0 0 0.854167 0 0 0 0 0.854167 0 0 0 0 0.854167 0 0 0 0.25 0"/>
<feBlend mode="normal" in2="BackgroundImageFix" result="effect1_dropShadow_1606_35"/>
<feBlend mode="normal" in="SourceGraphic" in2="effect1_dropShadow_1606_35" result="shape"/>
</filter>
</defs>
</svg>
