<svg width="19" height="18" viewBox="0 0 19 18" fill="none" xmlns="http://www.w3.org/2000/svg">
<path d="M9.49575 11.5677C10.1717 11.5677 10.82 11.2991 11.298 10.8212C11.7759 10.3432 12.0445 9.6949 12.0445 9.01894C12.0445 8.34298 11.7759 7.6947 11.298 7.21672C10.82 6.73874 10.1717 6.47021 9.49575 6.47021C8.81978 6.47021 8.1715 6.73874 7.69353 7.21672C7.21555 7.6947 6.94702 8.34298 6.94702 9.01894C6.94702 9.6949 7.21555 10.3432 7.69353 10.8212C8.1715 11.2991 8.81978 11.5677 9.49575 11.5677Z" stroke="#37474F" stroke-miterlimit="10" stroke-linecap="round" stroke-linejoin="round"/>
<path d="M1 9.76668V8.27143C1 7.38787 1.72214 6.65724 2.61419 6.65724C4.15192 6.65724 4.78061 5.56978 4.0075 4.23595C3.56572 3.47133 3.82909 2.47733 4.6022 2.03555L6.07196 1.19447C6.74313 0.795169 7.6097 1.03305 8.009 1.70421L8.10245 1.86563C8.86707 3.19947 10.1244 3.19947 10.8976 1.86563L10.991 1.70421C11.3903 1.03305 12.2569 0.795169 12.928 1.19447L14.3978 2.03555C15.1709 2.47733 15.4343 3.47133 14.9925 4.23595C14.2194 5.56978 14.8481 6.65724 16.3858 6.65724C17.2694 6.65724 18 7.37938 18 8.27143V9.76668C18 10.6502 17.2779 11.3809 16.3858 11.3809C14.8481 11.3809 14.2194 12.4683 14.9925 13.8022C15.4343 14.5753 15.1709 15.5608 14.3978 16.0026L12.928 16.8436C12.2569 17.2429 11.3903 17.0051 10.991 16.3339L10.8976 16.1725C10.1329 14.8386 8.87556 14.8386 8.10245 16.1725L8.009 16.3339C7.6097 17.0051 6.74313 17.2429 6.07196 16.8436L4.6022 16.0026C4.23187 15.7893 3.96126 15.4379 3.84977 15.0254C3.73827 14.6128 3.795 14.1729 4.0075 13.8022C4.78061 12.4683 4.15192 11.3809 2.61419 11.3809C1.72214 11.3809 1 10.6502 1 9.76668Z" stroke="#37474F" stroke-miterlimit="10" stroke-linecap="round" stroke-linejoin="round"/>
</svg>
