<svg width="19" height="19" viewBox="0 0 19 19" fill="none" xmlns="http://www.w3.org/2000/svg">
<path d="M15.0212 9.5C16.7887 9.5 18.0837 8.065 17.9087 6.30625L17.6637 3.9C17.3487 1.625 16.4737 0.75 14.1812 0.75H11.5125L12.125 6.88375C12.2737 8.3275 13.5775 9.5 15.0212 9.5ZM3.93496 9.5C5.37871 9.5 6.68246 8.3275 6.82246 6.88375L7.01496 4.95L7.43496 0.75H4.76621C2.47371 0.75 1.59871 1.625 1.28371 3.9L1.04746 6.30625C0.872458 8.065 2.16746 9.5 3.93496 9.5ZM9.49996 13.875C8.03871 13.875 7.31246 14.6013 7.31246 16.0625V18.25H11.6875V16.0625C11.6875 14.6013 10.9612 13.875 9.49996 13.875Z" stroke="#37474F" stroke-width="1.5" stroke-linecap="round" stroke-linejoin="round"/>
</svg>
