<svg width="50" height="50" viewBox="0 0 50 50" fill="none" xmlns="http://www.w3.org/2000/svg">
<g filter="url(#filter0_d_2721_27)">
<circle cx="25" cy="21" r="14" fill="white"/>
</g>
<path d="M26.0981 16.0036L19.8771 22.2246C19.6403 22.4614 19.4035 22.9272 19.3561 23.2667L19.0166 25.643C18.8903 26.5035 19.4982 27.1035 20.3587 26.9851L22.735 26.6456C23.0666 26.5983 23.5324 26.3614 23.7771 26.1246L29.9981 19.9036C31.0718 18.8299 31.5771 17.5825 29.9981 16.0036C28.4192 14.4247 27.1718 14.9299 26.0981 16.0036Z" stroke="#39C19D" stroke-width="1.2" stroke-miterlimit="10" stroke-linecap="round" stroke-linejoin="round"/>
<path d="M25.3157 17.3684C25.5807 18.1212 26.0829 18.807 26.7742 19.36C27.4655 19.913 28.3226 20.3147 29.2636 20.5267" stroke="#39C19D" stroke-width="1.2" stroke-miterlimit="10" stroke-linecap="round" stroke-linejoin="round"/>
<defs>
<filter id="filter0_d_2721_27" x="0" y="0" width="50" height="50" filterUnits="userSpaceOnUse" color-interpolation-filters="sRGB">
<feFlood flood-opacity="0" result="BackgroundImageFix"/>
<feColorMatrix in="SourceAlpha" type="matrix" values="0 0 0 0 0 0 0 0 0 0 0 0 0 0 0 0 0 0 127 0" result="hardAlpha"/>
<feOffset dy="4"/>
<feGaussianBlur stdDeviation="5.5"/>
<feComposite in2="hardAlpha" operator="out"/>
<feColorMatrix type="matrix" values="0 0 0 0 0.7375 0 0 0 0 0.7375 0 0 0 0 0.7375 0 0 0 0.25 0"/>
<feBlend mode="normal" in2="BackgroundImageFix" result="effect1_dropShadow_2721_27"/>
<feBlend mode="normal" in="SourceGraphic" in2="effect1_dropShadow_2721_27" result="shape"/>
</filter>
</defs>
</svg>
