<svg width="15" height="15" viewBox="0 0 15 15" fill="none" xmlns="http://www.w3.org/2000/svg">
<path fill-rule="evenodd" clip-rule="evenodd" d="M6.66826 0.833584C6.66826 0.375114 7.04319 0 7.50143 0C7.95967 0 8.3346 0.375114 8.3346 0.833584V7.50227C8.3346 7.96074 7.95967 8.33585 7.50143 8.33585C7.04319 8.33585 6.66826 7.96074 6.66826 7.50227V0.833584ZM11.7756 3.54284C11.4674 3.21774 11.459 2.70926 11.784 2.38416C12.1172 2.05072 12.6671 2.05906 12.9837 2.40083C14.2335 3.73457 15 5.51844 15 7.49403C15 11.7203 11.509 15.1297 7.25988 14.9963C3.19402 14.8713 -0.11365 11.3535 0.00299325 7.28564C0.0613149 5.3934 0.819497 3.68455 2.02759 2.40083C2.34419 2.05906 2.88575 2.05072 3.21902 2.38416C3.53562 2.70092 3.53562 3.20941 3.22735 3.5345C2.26088 4.57648 1.66933 5.96857 1.66933 7.50237C1.66933 10.7533 4.3188 13.3791 7.57648 13.3291C10.7675 13.2958 13.4087 10.545 13.3337 7.35233C13.3003 5.87688 12.7171 4.54314 11.7756 3.54284Z" fill="#FF5552"/>
</svg>
