<svg width="21" height="21" viewBox="0 0 21 21" fill="none" xmlns="http://www.w3.org/2000/svg">
<path d="M2.42313 2.42341C2.64617 2.42341 2.82698 2.24261 2.82698 2.01957C2.82698 1.79653 2.64617 1.61572 2.42313 1.61572C2.2001 1.61572 2.01929 1.79653 2.01929 2.01957C2.01929 2.24261 2.2001 2.42341 2.42313 2.42341Z" fill="#37474F"/>
<path d="M4.4423 2.42341C4.66534 2.42341 4.84614 2.24261 4.84614 2.01957C4.84614 1.79653 4.66534 1.61572 4.4423 1.61572C4.21926 1.61572 4.03845 1.79653 4.03845 2.01957C4.03845 2.24261 4.21926 2.42341 4.4423 2.42341Z" fill="#37474F"/>
<path d="M6.46159 2.42341C6.68462 2.42341 6.86543 2.24261 6.86543 2.01957C6.86543 1.79653 6.68462 1.61572 6.46159 1.61572C6.23855 1.61572 6.05774 1.79653 6.05774 2.01957C6.05774 2.24261 6.23855 2.42341 6.46159 2.42341Z" fill="#37474F"/>
<path d="M18.9808 4.03865H0.403846C0.296739 4.03865 0.19402 3.9961 0.118284 3.92036C0.042548 3.84463 0 3.74191 0 3.6348C0 3.5277 0.042548 3.42498 0.118284 3.34924C0.19402 3.27351 0.296739 3.23096 0.403846 3.23096H18.9808C19.0879 3.23096 19.1906 3.27351 19.2663 3.34924C19.3421 3.42498 19.3846 3.5277 19.3846 3.6348C19.3846 3.74191 19.3421 3.84463 19.2663 3.92036C19.1906 3.9961 19.0879 4.03865 18.9808 4.03865ZM12.5192 15.3463C12.4121 15.3463 12.3094 15.3038 12.2337 15.228C12.1579 15.1523 12.1154 15.0496 12.1154 14.9425V13.3271C12.1154 13.22 12.1579 13.1173 12.2337 13.0415C12.3094 12.9658 12.4121 12.9233 12.5192 12.9233C12.6263 12.9233 12.729 12.9658 12.8048 13.0415C12.8805 13.1173 12.9231 13.22 12.9231 13.3271V14.9425C12.9231 15.0496 12.8805 15.1523 12.8048 15.228C12.729 15.3038 12.6263 15.3463 12.5192 15.3463ZM19.8329 18.9809C19.9004 19.0477 19.9423 19.1361 19.9512 19.2306C19.96 19.3251 19.9353 19.4198 19.8813 19.4979C19.4736 20.0556 18.9704 20.5368 18.3952 20.9194C18.3316 20.9693 18.2538 20.9976 18.1731 21.0002C18.0868 20.9995 18.003 20.9712 17.9339 20.9195C17.8649 20.8677 17.8143 20.7952 17.7894 20.7126C17.7646 20.6299 17.7669 20.5415 17.7959 20.4603C17.825 20.3791 17.8793 20.3093 17.9509 20.2611C18.4412 19.9331 18.8715 19.5233 19.2231 19.0496C19.2558 19.0013 19.2986 18.9607 19.3485 18.9306C19.3984 18.9004 19.4542 18.8814 19.5122 18.8749C19.5701 18.8684 19.6288 18.8745 19.6841 18.8928C19.7395 18.9111 19.7902 18.9412 19.8329 18.9809Z" fill="#37474F"/>
<path d="M21 13.9892V16.069C21.001 16.6921 20.9014 17.3112 20.7052 17.9025C20.6823 17.9667 20.6435 18.0241 20.5924 18.0692C20.5414 18.1144 20.4797 18.1459 20.4132 18.1608C20.3467 18.1757 20.2774 18.1736 20.212 18.1545C20.1465 18.1355 20.087 18.1002 20.0388 18.0519C19.9883 17.9993 19.953 17.9339 19.9366 17.8628C19.9203 17.7917 19.9235 17.7175 19.9459 17.6481C20.1091 17.1376 20.1922 16.6049 20.1923 16.069V13.9892C20.1992 13.8316 20.1478 13.677 20.048 13.5549C19.9482 13.4327 19.8069 13.3516 19.6511 13.3269C19.566 13.3171 19.4797 13.3257 19.3982 13.3522C19.3167 13.3787 19.2418 13.4224 19.1786 13.4804C19.1159 13.5378 19.066 13.6077 19.0319 13.6856C18.9978 13.7635 18.9804 13.8477 18.9808 13.9327C18.9808 14.0398 18.9382 14.1425 18.8625 14.2182C18.7867 14.294 18.684 14.3365 18.5769 14.3365C18.4698 14.3365 18.3671 14.294 18.2913 14.2182C18.2156 14.1425 18.1731 14.0398 18.1731 13.9327V13.1815C18.18 13.0239 18.1286 12.8693 18.0288 12.7472C17.929 12.625 17.7877 12.5439 17.6319 12.5192C17.5468 12.5094 17.4605 12.5181 17.379 12.5445C17.2974 12.571 17.2226 12.6147 17.1594 12.6727C17.0967 12.7301 17.0467 12.8 17.0126 12.8779C16.9786 12.9558 16.9612 13.04 16.9615 13.125C16.9615 13.2321 16.919 13.3348 16.8432 13.4106C16.7675 13.4863 16.6648 13.5288 16.5577 13.5288C16.4506 13.5288 16.3479 13.4863 16.2721 13.4106C16.1964 13.3348 16.1538 13.2321 16.1538 13.125V12.7777C16.1607 12.6201 16.1094 12.4655 16.0096 12.3433C15.9098 12.2212 15.7685 12.14 15.6127 12.1154C15.5275 12.1056 15.4413 12.1142 15.3597 12.1407C15.2782 12.1672 15.2033 12.2109 15.1402 12.2688C15.0775 12.3263 15.0275 12.3962 14.9934 12.4741C14.9593 12.552 14.9419 12.6361 14.9423 12.7211C14.9423 12.8283 14.8997 12.931 14.824 13.0067C14.7483 13.0824 14.6456 13.125 14.5384 13.125C14.4313 13.125 14.3286 13.0824 14.2529 13.0067C14.1772 12.931 14.1346 12.8283 14.1346 12.7211V9.08653C14.1351 9.00124 14.1176 8.91681 14.0832 8.83876C14.0488 8.76071 13.9983 8.6908 13.935 8.63362C13.8717 8.57643 13.797 8.53326 13.7159 8.50692C13.6348 8.48058 13.549 8.47166 13.4642 8.48076C13.3084 8.50541 13.1671 8.58655 13.0673 8.70871C12.9675 8.83086 12.9162 8.98548 12.9231 9.14307V13.3269C12.9231 13.434 12.8805 13.5367 12.8048 13.6125C12.729 13.6882 12.6263 13.7308 12.5192 13.7308C12.4121 13.7308 12.3094 13.6882 12.2337 13.6125C12.1579 13.5367 12.1154 13.434 12.1154 13.3269C12.1155 13.1644 12.0828 13.0034 12.0194 12.8538C11.9561 12.7041 11.8632 12.5687 11.7464 12.4556C11.6296 12.3426 11.4912 12.2542 11.3395 12.1957C11.1878 12.1373 11.0259 12.11 10.8635 12.1154C10.7635 12.1254 10.6709 12.1724 10.6037 12.247C10.5364 12.3217 10.4995 12.4188 10.5 12.5192V16.069C10.4996 16.8983 10.7039 17.7148 11.0949 18.4461C11.4859 19.1774 12.0515 19.8008 12.7413 20.2609C12.8197 20.3241 12.8717 20.4142 12.8871 20.5136C12.9025 20.613 12.8802 20.7146 12.8246 20.7985C12.7691 20.8824 12.6842 20.9425 12.5866 20.9671C12.489 20.9916 12.3858 20.9789 12.2971 20.9313C11.4974 20.4005 10.8412 19.6804 10.3868 18.835C9.93237 17.9896 9.69381 17.045 9.6923 16.0852V12.5192C9.69186 12.2088 9.81059 11.91 10.024 11.6846C10.2374 11.4592 10.5292 11.3242 10.8392 11.3077C11.2981 11.2933 11.7483 11.4357 12.1154 11.7115V9.14307C12.1094 8.78509 12.2353 8.43741 12.4691 8.1663C12.703 7.8952 13.0285 7.71963 13.3835 7.67307C13.581 7.652 13.7808 7.67294 13.9698 7.73453C14.1587 7.79612 14.3325 7.89696 14.4797 8.03043C14.6269 8.16391 14.7442 8.327 14.8239 8.50901C14.9036 8.69102 14.944 8.88783 14.9423 9.08653V11.445C15.1759 11.3329 15.4353 11.2855 15.6934 11.3077C15.9063 11.3325 16.1107 11.4054 16.2912 11.5208C16.4717 11.6363 16.6236 11.7913 16.7354 11.974C16.9154 11.8425 17.1241 11.7559 17.3443 11.7212C17.5645 11.6866 17.7898 11.705 18.0015 11.7749C18.2131 11.8448 18.4051 11.9642 18.5613 12.1231C18.7176 12.2821 18.8337 12.476 18.9 12.6888C19.154 12.5501 19.4439 12.491 19.7319 12.5192C20.0869 12.5658 20.4123 12.7414 20.6462 13.0125C20.8801 13.2836 21.006 13.6312 21 13.9892ZM0.403846 8.88461C0.296739 8.88461 0.19402 8.84206 0.118284 8.76632C0.042548 8.69059 0 8.58787 0 8.48076V1.61538C0 1.18696 0.170192 0.776078 0.473135 0.473135C0.776078 0.170192 1.18696 0 1.61538 0H9.28845C9.39556 0 9.49828 0.042548 9.57402 0.118284C9.64975 0.19402 9.6923 0.296739 9.6923 0.403846C9.6923 0.510952 9.64975 0.613672 9.57402 0.689408C9.49828 0.765144 9.39556 0.807692 9.28845 0.807692H1.61538C1.40117 0.807692 1.19573 0.892788 1.04426 1.04426C0.892788 1.19573 0.807692 1.40117 0.807692 1.61538V8.48076C0.807692 8.58787 0.765144 8.69059 0.689408 8.76632C0.613672 8.84206 0.510952 8.88461 0.403846 8.88461Z" fill="#37474F"/>
<path d="M10.5 14.9429C10.5 15.05 10.4574 15.1527 10.3817 15.2284C10.306 15.3042 10.2033 15.3467 10.0961 15.3467H1.61538C1.18696 15.3467 0.776078 15.1765 0.473135 14.8736C0.170192 14.5706 0 14.1598 0 13.7313V10.0967C0 9.98961 0.042548 9.88689 0.118284 9.81115C0.19402 9.73542 0.296739 9.69287 0.403846 9.69287C0.510952 9.69287 0.613672 9.73542 0.689408 9.81115C0.765144 9.88689 0.807692 9.98961 0.807692 10.0967V13.7313C0.807692 13.9455 0.892788 14.151 1.04426 14.3025C1.19573 14.4539 1.40117 14.539 1.61538 14.539H10.0961C10.2033 14.539 10.306 14.5816 10.3817 14.6573C10.4574 14.733 10.5 14.8358 10.5 14.9429Z" fill="#37474F"/>
<path d="M11.3077 0.403846C11.3077 0.180808 11.1269 0 10.9038 0C10.6808 0 10.5 0.180808 10.5 0.403846C10.5 0.626884 10.6808 0.807692 10.9038 0.807692C11.1269 0.807692 11.3077 0.626884 11.3077 0.403846Z" fill="#37474F"/>
<path d="M19.3846 1.61538V13.125C19.3846 13.2321 19.342 13.3348 19.2663 13.4106C19.1906 13.4863 19.0878 13.5288 18.9807 13.5288C18.8736 13.5288 18.7709 13.4863 18.6952 13.4106C18.6194 13.3348 18.5769 13.2321 18.5769 13.125V1.61538C18.5769 1.40117 18.4918 1.19573 18.3403 1.04426C18.1889 0.892788 17.9834 0.807692 17.7692 0.807692H12.5192C12.4121 0.807692 12.3094 0.765144 12.2336 0.689408C12.1579 0.613672 12.1154 0.510952 12.1154 0.403846C12.1154 0.296739 12.1579 0.19402 12.2336 0.118284C12.3094 0.042548 12.4121 0 12.5192 0H17.7692C18.1976 0 18.6085 0.170192 18.9114 0.473135C19.2144 0.776078 19.3846 1.18696 19.3846 1.61538Z" fill="#37474F"/>
<path d="M15.8752 9.28846H14.5385C14.4314 9.28846 14.3287 9.24591 14.2529 9.17018C14.1772 9.09444 14.1347 8.99172 14.1347 8.88461C14.1347 8.77751 14.1772 8.67479 14.2529 8.59905C14.3287 8.52331 14.4314 8.48077 14.5385 8.48077H15.8954C16.0769 8.48143 16.2523 8.41531 16.3881 8.295C16.4451 8.24378 16.4913 8.18166 16.5239 8.11229C16.5565 8.04293 16.5749 7.96773 16.5779 7.89115C16.575 7.80338 16.5542 7.71713 16.5168 7.63767C16.4794 7.55822 16.4261 7.48722 16.3604 7.42901C16.2946 7.37081 16.2177 7.32662 16.1343 7.29915C16.0509 7.27168 15.9627 7.2615 15.8752 7.26923H12.3941C12.2126 7.26856 12.0372 7.33469 11.9014 7.455C11.8444 7.50621 11.7982 7.56834 11.7656 7.6377C11.733 7.70707 11.7146 7.78226 11.7116 7.85884C11.7147 7.94479 11.7349 8.02925 11.771 8.10728C11.8072 8.18531 11.8585 8.25534 11.9221 8.31326C11.9857 8.37119 12.0602 8.41584 12.1412 8.4446C12.2223 8.47336 12.3082 8.48566 12.3941 8.48077H12.5516C12.6587 8.48077 12.7614 8.52331 12.8371 8.59905C12.9129 8.67479 12.9554 8.77751 12.9554 8.88461C12.9554 8.99172 12.9129 9.09444 12.8371 9.17018C12.7614 9.24591 12.6587 9.28846 12.5516 9.28846H12.3941C12.0094 9.29716 11.637 9.15347 11.3578 8.8887C11.0787 8.62393 10.9155 8.25956 10.9039 7.875C10.9061 7.68508 10.947 7.4976 11.024 7.32401C11.1011 7.15042 11.2128 6.99437 11.3522 6.86538C11.6366 6.60495 12.0084 6.46082 12.3941 6.46154H15.8752C16.2599 6.45284 16.6324 6.59653 16.9115 6.8613C17.1906 7.12606 17.3538 7.49044 17.3654 7.875C17.3632 8.06492 17.3224 8.2524 17.2453 8.42598C17.1682 8.59957 17.0566 8.75563 16.9172 8.88461C16.6327 9.14504 16.2609 9.28917 15.8752 9.28846ZM9.28851 10.0962H2.42313C2.31603 10.0962 2.21331 10.0536 2.13757 9.97787C2.06184 9.90213 2.01929 9.79941 2.01929 9.6923V5.65385C2.01929 5.54674 2.06184 5.44402 2.13757 5.36828C2.21331 5.29255 2.31603 5.25 2.42313 5.25H9.28851C9.39562 5.25 9.49834 5.29255 9.57407 5.36828C9.64981 5.44402 9.69236 5.54674 9.69236 5.65385V9.6923C9.69236 9.79941 9.64981 9.90213 9.57407 9.97787C9.49834 10.0536 9.39562 10.0962 9.28851 10.0962ZM2.82698 9.28846H8.88467V6.05769H2.82698V9.28846ZM8.88467 11.7115H2.82698C2.71987 11.7115 2.61715 11.669 2.54142 11.5933C2.46568 11.5175 2.42313 11.4148 2.42313 11.3077C2.42313 11.2006 2.46568 11.0979 2.54142 11.0221C2.61715 10.9464 2.71987 10.9038 2.82698 10.9038H8.88467C8.99177 10.9038 9.09449 10.9464 9.17023 11.0221C9.24596 11.0979 9.28851 11.2006 9.28851 11.3077C9.28851 11.4148 9.24596 11.5175 9.17023 11.5933C9.09449 11.669 8.99177 11.7115 8.88467 11.7115ZM6.46159 13.3269H2.82698C2.71987 13.3269 2.61715 13.2844 2.54142 13.2086C2.46568 13.1329 2.42313 13.0302 2.42313 12.9231C2.42313 12.816 2.46568 12.7132 2.54142 12.6375C2.61715 12.5618 2.71987 12.5192 2.82698 12.5192H6.46159C6.5687 12.5192 6.67142 12.5618 6.74715 12.6375C6.82289 12.7132 6.86544 12.816 6.86544 12.9231C6.86544 13.0302 6.82289 13.1329 6.74715 13.2086C6.67142 13.2844 6.5687 13.3269 6.46159 13.3269Z" fill="#37474F"/>
</svg>
