<svg width="17" height="21" viewBox="0 0 17 21" fill="none" xmlns="http://www.w3.org/2000/svg">
<path d="M0.454545 21H13.8636C13.9842 21 14.0998 20.9539 14.185 20.8719C14.2703 20.7898 14.3182 20.6785 14.3182 20.5625V17.9812H16.5455C16.666 17.9812 16.7816 17.9352 16.8669 17.8531C16.9521 17.7711 17 17.6598 17 17.5437V3.51312C17.0002 3.44776 16.9852 3.38319 16.9561 3.32413C16.927 3.26508 16.8846 3.21305 16.8318 3.17188L12.8864 0.109375L12.8182 0.06125L12.7636 0.030625C12.7113 0.0116751 12.6559 0.00132294 12.6 0H3.13636C3.01581 0 2.90019 0.0460936 2.81495 0.128141C2.72971 0.210188 2.68182 0.321468 2.68182 0.4375V3.01875H0.454545C0.333992 3.01875 0.218377 3.06484 0.133133 3.14689C0.0478896 3.22894 0 3.34022 0 3.45625V20.5625C0 20.6785 0.0478896 20.7898 0.133133 20.8719C0.218377 20.9539 0.333992 21 0.454545 21ZM10.3727 4.375L12.85 6.30437H10.3727V4.375ZM13.0545 1.35625L15.3273 3.10625H13.0545V1.35625ZM3.59091 0.875H12.1455V3.56125C12.1455 3.67728 12.1933 3.78856 12.2786 3.87061C12.3638 3.95266 12.4794 3.99875 12.6 3.99875H16.0909V17.1237H14.3182V6.53188C14.3184 6.46652 14.3034 6.40194 14.2743 6.34288C14.2452 6.28383 14.2027 6.2318 14.15 6.19062L10.2045 3.12812C10.1844 3.1123 10.1612 3.10041 10.1364 3.09312L10.0909 3.04938C10.037 3.03042 9.98014 3.02007 9.92272 3.01875H3.59091V0.875ZM0.909091 3.89375H9.46363V6.74187C9.46363 6.85791 9.51152 6.96919 9.59677 7.05123C9.68201 7.13328 9.79763 7.17937 9.91818 7.17937H13.4091V20.125H0.909091V3.89375Z" fill="#37474F"/>
<path d="M11.1819 8.63184H3.13643C3.01588 8.63184 2.90026 8.67793 2.81502 8.75998C2.72977 8.84202 2.68188 8.9533 2.68188 9.06934C2.68188 9.18537 2.72977 9.29665 2.81502 9.3787C2.90026 9.46074 3.01588 9.50684 3.13643 9.50684H11.1819C11.3024 9.50684 11.4181 9.46074 11.5033 9.3787C11.5885 9.29665 11.6364 9.18537 11.6364 9.06934C11.6364 8.9533 11.5885 8.84202 11.5033 8.75998C11.4181 8.67793 11.3024 8.63184 11.1819 8.63184ZM11.1819 10.7493H3.13643C3.01588 10.7493 2.90026 10.7954 2.81502 10.8775C2.72977 10.9595 2.68188 11.0708 2.68188 11.1868C2.68188 11.3029 2.72977 11.4141 2.81502 11.4962C2.90026 11.5782 3.01588 11.6243 3.13643 11.6243H11.1819C11.3024 11.6243 11.4181 11.5782 11.5033 11.4962C11.5885 11.4141 11.6364 11.3029 11.6364 11.1868C11.6364 11.0708 11.5885 10.9595 11.5033 10.8775C11.4181 10.7954 11.3024 10.7493 11.1819 10.7493ZM11.1819 12.8668H3.13643C3.01588 12.8668 2.90026 12.9129 2.81502 12.995C2.72977 13.077 2.68188 13.1883 2.68188 13.3043C2.68188 13.4204 2.72977 13.5316 2.81502 13.6137C2.90026 13.6957 3.01588 13.7418 3.13643 13.7418H11.1819C11.3024 13.7418 11.4181 13.6957 11.5033 13.6137C11.5885 13.5316 11.6364 13.4204 11.6364 13.3043C11.6364 13.1883 11.5885 13.077 11.5033 12.995C11.4181 12.9129 11.3024 12.8668 11.1819 12.8668ZM11.1819 14.9887H3.13643C3.01588 14.9887 2.90026 15.0348 2.81502 15.1169C2.72977 15.1989 2.68188 15.3102 2.68188 15.4262C2.68188 15.5422 2.72977 15.6535 2.81502 15.7356C2.90026 15.8176 3.01588 15.8637 3.13643 15.8637H11.1819C11.3024 15.8637 11.4181 15.8176 11.5033 15.7356C11.5885 15.6535 11.6364 15.5422 11.6364 15.4262C11.6364 15.3102 11.5885 15.1989 11.5033 15.1169C11.4181 15.0348 11.3024 14.9887 11.1819 14.9887ZM11.1819 17.1062H3.13643C3.01588 17.1062 2.90026 17.1523 2.81502 17.2344C2.72977 17.3164 2.68188 17.4277 2.68188 17.5437C2.68188 17.6597 2.72977 17.771 2.81502 17.8531C2.90026 17.9351 3.01588 17.9812 3.13643 17.9812H11.1819C11.3024 17.9812 11.4181 17.9351 11.5033 17.8531C11.5885 17.771 11.6364 17.6597 11.6364 17.5437C11.6364 17.4277 11.5885 17.3164 11.5033 17.2344C11.4181 17.1523 11.3024 17.1062 11.1819 17.1062Z" fill="#37474F"/>
</svg>
