<svg width="22" height="19" viewBox="0 0 22 19" fill="none" xmlns="http://www.w3.org/2000/svg">
<path d="M11.2877 0C11.0482 0 10.8336 0.107414 10.6892 0.276906L10.6101 0.334236C8.24015 -0.3659 5.55139 0.1756 3.67462 1.95871C2.01046 3.53979 1.37381 5.72742 1.76467 7.7726L1.74046 7.79528L0.683128 8.79982C-0.227709 9.66519 -0.227709 11.0683 0.683128 11.9336C1.22317 12.4467 1.96215 12.6556 2.66416 12.5603C2.76516 12.9292 2.96777 13.2782 3.27198 13.5671C3.68348 13.9581 4.21051 14.1725 4.74869 14.2102C4.78829 14.7216 5.01389 15.2225 5.42549 15.6135C5.83711 16.0047 6.36427 16.2189 6.90258 16.2566C6.94212 16.768 7.16773 17.269 7.57941 17.6602C8.41609 18.455 9.73032 18.5197 10.6448 17.8543L11.1642 18.3477C12.0795 19.2174 13.5635 19.2174 14.4788 18.3477C14.889 17.9581 15.1151 17.4603 15.1578 16.9511C15.6924 16.9114 16.2154 16.6973 16.6246 16.3086C17.0348 15.9189 17.2603 15.4203 17.3011 14.9107C17.8294 14.8677 18.3451 14.6541 18.7496 14.2699C19.0677 13.9676 19.2746 13.5999 19.3707 13.2123C20.0622 13.2962 20.7858 13.0857 21.3168 12.5812C22.2277 11.7158 22.2277 10.3128 21.3168 9.44741L20.3815 8.55873L20.5598 7.89529C20.9738 6.35472 20.7646 4.72382 19.9786 3.32725C18.8196 1.26811 16.5783 0.00531695 14.1641 0.00531695H12.5624C12.4902 0.00177235 12.4177 0 12.3448 0H11.2877ZM18.1744 8.63606L18.9406 9.39358C18.9886 9.44116 19.042 9.4817 19.099 9.51477L20.1725 10.5347C20.4513 10.7996 20.4513 11.229 20.1725 11.4939C19.8937 11.7588 19.4416 11.7588 19.1628 11.4939L17.3679 9.78856C17.052 9.48831 16.5396 9.48831 16.2234 9.78856L16.2056 9.80549C15.8896 10.1057 15.8896 10.5925 16.2056 10.8928L17.6051 12.2224C17.8843 12.4875 17.8843 12.9174 17.6051 13.1824C17.3506 13.4244 16.9502 13.4459 16.6709 13.2456C16.3475 13.0137 15.8934 13.0448 15.6083 13.3182C15.3234 13.5918 15.295 14.0235 15.5423 14.3284C15.7577 14.5939 15.7365 14.9778 15.4801 15.2214C15.2223 15.4663 14.8149 15.4852 14.5352 15.2766C14.2139 15.037 13.7549 15.0627 13.4652 15.3362C13.1755 15.6098 13.1459 16.0456 13.3961 16.3525C13.6161 16.6221 13.5951 17.0128 13.3343 17.2605C13.0511 17.5296 12.5918 17.5296 12.3086 17.2605L11.8035 16.7807L11.9352 16.6557C12.846 15.7902 12.846 14.3871 11.9352 13.5217C11.5236 13.1307 10.9964 12.9164 10.4581 12.8788C10.4185 12.3672 10.1929 11.8663 9.78126 11.4752C9.36975 11.0842 8.84272 10.8699 8.30454 10.8322C8.26494 10.3207 8.03935 9.81989 7.62775 9.42883C7.08771 8.91575 6.34873 8.70687 5.64672 8.8022C5.54572 8.43329 5.34311 8.08429 5.0389 7.79528C4.56157 7.34176 3.9288 7.12592 3.30351 7.14774C3.13414 5.68588 3.6393 4.16685 4.81904 3.04599C5.93415 1.98654 7.42372 1.4997 8.88298 1.58545L7.15845 2.83481C6.0374 3.64695 5.82841 5.2004 6.69461 6.28238C7.54056 7.33905 9.09771 7.55048 10.1925 6.75733L12.3126 5.22141H14.5804L18.1744 8.63606ZM8.07977 4.11828L11.5802 1.58241H12.3448C12.397 1.58241 12.4487 1.58382 12.5 1.58659C12.5141 1.58735 12.5282 1.58773 12.5423 1.58773H14.1641C16.0412 1.58773 17.7428 2.56977 18.6074 4.10608C19.1626 5.09275 19.3277 6.22827 19.0814 7.31253L15.5957 3.8663C15.4485 3.72064 15.25 3.639 15.0433 3.639H12.0583C11.8929 3.639 11.7317 3.69129 11.5976 3.78846L9.27121 5.47384C8.85591 5.77472 8.24294 5.69148 7.92205 5.29064C7.62142 4.91514 7.69069 4.40016 8.07977 4.11828ZM9.78375 14.6066C10.0628 14.3442 10.5128 14.345 10.7908 14.6091C11.0695 14.874 11.0695 15.3033 10.7908 15.5682L9.73342 16.5729C9.45463 16.8378 9.00262 16.8378 8.72381 16.5729C8.44503 16.308 8.44503 15.8785 8.72381 15.6136L9.78375 14.6066ZM8.63939 13.5192L7.57952 14.5262C7.30073 14.7911 6.84871 14.7911 6.56991 14.5262C6.29665 14.2665 6.29122 13.8489 6.55362 13.5829L6.57041 13.5671L7.62775 12.5626L7.64413 12.5469C7.924 12.2977 8.36361 12.3029 8.63685 12.5625C8.91479 12.8265 8.91564 13.2541 8.63939 13.5192ZM6.48282 11.4752L5.42549 12.4797L5.40911 12.4954C5.12923 12.7447 4.68963 12.7395 4.41638 12.4799C4.1376 12.215 4.1376 11.7856 4.41638 11.5207L5.47372 10.5161C5.7525 10.2512 6.20452 10.2512 6.48332 10.5161C6.75658 10.7757 6.76202 11.1935 6.4996 11.4594L6.48282 11.4752ZM3.89448 9.84179L2.83716 10.8463C2.55836 11.1112 2.10635 11.1112 1.82755 10.8463C1.54875 10.5815 1.54875 10.152 1.82755 9.88713L2.88487 8.88257C3.16367 8.61769 3.61569 8.61769 3.89448 8.88257C4.17328 9.14745 4.17328 9.57691 3.89448 9.84179Z" fill="#37474F"/>
</svg>
