<svg width="21" height="21" viewBox="0 0 21 21" fill="none" xmlns="http://www.w3.org/2000/svg">
<path d="M10.5 1.75C8.76942 1.75 7.07769 2.26318 5.63876 3.22464C4.19983 4.1861 3.07832 5.55267 2.41606 7.15152C1.75379 8.75037 1.58051 10.5097 1.91813 12.207C2.25575 13.9044 3.08911 15.4635 4.31282 16.6872C5.53653 17.9109 7.09563 18.7442 8.79296 19.0819C10.4903 19.4195 12.2496 19.2462 13.8485 18.5839C15.4473 17.9217 16.8139 16.8002 17.7754 15.3612C18.7368 13.9223 19.25 12.2306 19.25 10.5C19.2474 8.18015 18.3247 5.95605 16.6843 4.31567C15.044 2.67528 12.8199 1.75258 10.5 1.75ZM10.5 17.5C9.11553 17.5 7.76216 17.0895 6.61101 16.3203C5.45987 15.5511 4.56266 14.4579 4.03285 13.1788C3.50303 11.8997 3.36441 10.4922 3.63451 9.13437C3.9046 7.7765 4.57129 6.52922 5.55026 5.55025C6.52922 4.57128 7.7765 3.9046 9.13437 3.6345C10.4922 3.36441 11.8997 3.50303 13.1788 4.03284C14.4579 4.56266 15.5511 5.45986 16.3203 6.61101C17.0895 7.76215 17.5 9.11553 17.5 10.5C17.4979 12.3559 16.7597 14.1351 15.4474 15.4474C14.1351 16.7597 12.3559 17.4979 10.5 17.5ZM10.5 10.0625C10.2679 10.0625 10.0454 10.1547 9.88129 10.3188C9.71719 10.4829 9.625 10.7054 9.625 10.9375V13.5625C9.625 13.7946 9.71719 14.0171 9.88129 14.1812C10.0454 14.3453 10.2679 14.4375 10.5 14.4375C10.7321 14.4375 10.9546 14.3453 11.1187 14.1812C11.2828 14.0171 11.375 13.7946 11.375 13.5625V10.9375C11.375 10.7054 11.2828 10.4829 11.1187 10.3188C10.9546 10.1547 10.7321 10.0625 10.5 10.0625ZM10.5 6.5625C10.2837 6.5625 10.0722 6.62665 9.89235 6.74683C9.71248 6.86701 9.57229 7.03783 9.48951 7.23769C9.40673 7.43755 9.38507 7.65746 9.42727 7.86963C9.46947 8.0818 9.57364 8.27668 9.72661 8.42965C9.87957 8.58261 10.0745 8.68678 10.2866 8.72898C10.4988 8.77119 10.7187 8.74953 10.9186 8.66674C11.1184 8.58396 11.2892 8.44377 11.4094 8.2639C11.5296 8.08404 11.5938 7.87257 11.5938 7.65625C11.5938 7.36617 11.4785 7.08797 11.2734 6.88285C11.0683 6.67773 10.7901 6.5625 10.5 6.5625Z" fill="#37474F"/>
</svg>
