<svg width="19" height="19" viewBox="0 0 19 19" fill="none" xmlns="http://www.w3.org/2000/svg">
<path d="M9.5 0.75C7.76942 0.75 6.07769 1.26318 4.63876 2.22464C3.19983 3.1861 2.07832 4.55267 1.41606 6.15152C0.753791 7.75037 0.580512 9.50971 0.918133 11.207C1.25575 12.9044 2.08911 14.4635 3.31282 15.6872C4.53653 16.9109 6.09563 17.7442 7.79296 18.0819C9.4903 18.4195 11.2496 18.2462 12.8485 17.5839C14.4473 16.9217 15.8139 15.8002 16.7754 14.3612C17.7368 12.9223 18.25 11.2306 18.25 9.5C18.2474 7.18015 17.3247 4.95605 15.6843 3.31567C14.044 1.67528 11.8199 0.75258 9.5 0.75ZM9.5 16.5C8.11553 16.5 6.76216 16.0895 5.61101 15.3203C4.45987 14.5511 3.56266 13.4579 3.03285 12.1788C2.50303 10.8997 2.36441 9.49223 2.63451 8.13437C2.9046 6.7765 3.57129 5.52922 4.55026 4.55025C5.52922 3.57128 6.7765 2.9046 8.13437 2.6345C9.49224 2.36441 10.8997 2.50303 12.1788 3.03284C13.4579 3.56266 14.5511 4.45986 15.3203 5.61101C16.0895 6.76215 16.5 8.11553 16.5 9.5C16.4979 11.3559 15.7597 13.1351 14.4474 14.4474C13.1351 15.7597 11.3559 16.4979 9.5 16.5ZM9.5 9.0625C9.26794 9.0625 9.04538 9.15469 8.88129 9.31878C8.71719 9.48288 8.625 9.70543 8.625 9.9375V12.5625C8.625 12.7946 8.71719 13.0171 8.88129 13.1812C9.04538 13.3453 9.26794 13.4375 9.5 13.4375C9.73207 13.4375 9.95463 13.3453 10.1187 13.1812C10.2828 13.0171 10.375 12.7946 10.375 12.5625V9.9375C10.375 9.70543 10.2828 9.48288 10.1187 9.31878C9.95463 9.15469 9.73207 9.0625 9.5 9.0625ZM9.5 5.5625C9.28368 5.5625 9.07222 5.62665 8.89235 5.74683C8.71248 5.86701 8.57229 6.03783 8.48951 6.23769C8.40673 6.43755 8.38507 6.65746 8.42727 6.86963C8.46947 7.0818 8.57364 7.27668 8.72661 7.42965C8.87957 7.58261 9.07446 7.68678 9.28662 7.72898C9.49879 7.77119 9.71871 7.74953 9.91856 7.66674C10.1184 7.58396 10.2892 7.44377 10.4094 7.2639C10.5296 7.08404 10.5938 6.87257 10.5938 6.65625C10.5938 6.36617 10.4785 6.08797 10.2734 5.88285C10.0683 5.67773 9.79008 5.5625 9.5 5.5625Z" fill="#37474F"/>
</svg>
