<svg width="35" height="35" viewBox="0 0 35 35" fill="none" xmlns="http://www.w3.org/2000/svg">
<circle cx="17.5" cy="17.5" r="17.5" fill="black" fill-opacity="0.6"/>
<path d="M24.5104 16.6055H24.5091L19.4573 16.6703L19.457 16.6703L18.3321 16.6922L18.4191 10.5155C18.421 10.3849 18.4032 10.2588 18.3576 10.1448C18.313 10.0333 18.248 9.92747 18.1619 9.84131C18.0721 9.75149 17.9726 9.67825 17.8505 9.63873C17.7407 9.59498 17.6155 9.56339 17.4942 9.56509L17.4942 9.56502L17.4916 9.5652C17.3689 9.57338 17.243 9.59461 17.1284 9.64312C17.0133 9.69188 16.9063 9.7732 16.8203 9.85921C16.7321 9.94744 16.6647 10.0544 16.611 10.1723L16.611 10.1723L16.6104 10.1735C16.5619 10.2881 16.5405 10.4145 16.5388 10.5329L16.4385 17.6546C16.4368 17.7753 16.4619 17.8947 16.5066 18.0064L16.5066 18.0064L16.5071 18.0077C16.5576 18.1243 16.6223 18.2298 16.7085 18.3161C16.7947 18.4023 16.9005 18.4672 17.012 18.5118C17.1237 18.5565 17.2431 18.5816 17.3638 18.5799L24.4855 18.4796L24.4855 18.4796L24.4869 18.4796C24.7336 18.4694 24.9605 18.3596 25.1342 18.1859C25.3096 18.0104 25.4058 17.7701 25.4092 17.5311C25.4127 17.2794 25.323 17.0539 25.1523 16.8828C24.9874 16.7047 24.7554 16.6087 24.5104 16.6055Z" fill="white" stroke="white" stroke-width="0.1"/>
<path d="M10.4896 18.3945L10.4909 18.3945L15.5427 18.3297L15.543 18.3297L16.6679 18.3078L16.5809 24.4845C16.579 24.6151 16.5968 24.7412 16.6424 24.8552C16.687 24.9667 16.752 25.0725 16.8381 25.1587C16.9279 25.2485 17.0274 25.3217 17.1495 25.3613C17.2593 25.405 17.3845 25.4366 17.5058 25.4349L17.5058 25.435L17.5084 25.4348C17.6311 25.4266 17.757 25.4054 17.8716 25.3569C17.9867 25.3081 18.0937 25.2268 18.1797 25.1408C18.2679 25.0526 18.3353 24.9456 18.389 24.8277L18.389 24.8277L18.3896 24.8265C18.4381 24.7119 18.4595 24.5855 18.4612 24.4671L18.5615 17.3454C18.5632 17.2247 18.5381 17.1053 18.4934 16.9936L18.4934 16.9936L18.4929 16.9923C18.4424 16.8757 18.3777 16.7702 18.2915 16.6839C18.2053 16.5977 18.0995 16.5328 17.988 16.4882C17.8763 16.4435 17.7569 16.4184 17.6362 16.4201L10.5145 16.5204L10.5145 16.5204L10.5131 16.5204C10.2664 16.5306 10.0395 16.6404 9.86578 16.8141C9.69037 16.9896 9.59418 17.2299 9.59081 17.4689C9.58727 17.7206 9.67698 17.9461 9.84772 18.1172C10.0126 18.2953 10.2446 18.3913 10.4896 18.3945Z" fill="white" stroke="white" stroke-width="0.1"/>
</svg>
