<svg width="21" height="19" viewBox="0 0 21 19" fill="none" xmlns="http://www.w3.org/2000/svg">
<path d="M8.35632 5.21387V16.5904C8.35632 16.7115 8.32642 16.8307 8.26928 16.9375C8.21213 17.0443 8.12951 17.1353 8.02874 17.2025L7.01797 17.8763C6.91988 17.9417 6.80752 17.9826 6.69034 17.9955C6.57316 18.0083 6.4546 17.9929 6.34464 17.9504C6.23469 17.9079 6.13656 17.8396 6.05852 17.7512C5.98048 17.6628 5.92483 17.557 5.89624 17.4426L4.67813 12.5702" stroke="#37474F" stroke-width="1.5" stroke-linecap="round" stroke-linejoin="round"/>
<path d="M4.67823 12.5704C3.70271 12.5704 2.76715 12.1828 2.07736 11.493C1.38756 10.8032 1.00004 9.86769 1.00004 8.89217C1.00004 7.91665 1.38756 6.98109 2.07736 6.2913C2.76715 5.6015 3.70271 5.21398 4.67823 5.21398H8.35642C8.35642 5.21398 13.3635 5.21398 18.1819 1.17278C18.289 1.08259 18.4197 1.02487 18.5586 1.00641C18.6974 0.987957 18.8387 1.00953 18.9657 1.0686C19.0927 1.12766 19.2002 1.22176 19.2755 1.33984C19.3509 1.45791 19.3909 1.59504 19.391 1.73511V16.0492C19.3909 16.1893 19.3509 16.3264 19.2755 16.4445C19.2002 16.5626 19.0927 16.6567 18.9657 16.7157C18.8387 16.7748 18.6974 16.7964 18.5586 16.7779C18.4197 16.7595 18.289 16.7017 18.1819 16.6116C13.3635 12.5704 8.35642 12.5704 8.35642 12.5704H4.67823Z" stroke="#37474F" stroke-width="1.5" stroke-linecap="round" stroke-linejoin="round"/>
</svg>
