<svg width="15" height="15" viewBox="0 0 15 15" fill="none" xmlns="http://www.w3.org/2000/svg">
<path d="M12.0719 2.92806C9.54668 0.402887 5.45323 0.402887 2.92806 2.92806C0.402887 5.45323 0.402887 9.54668 2.92806 12.0719C5.45323 14.597 9.54668 14.597 12.0719 12.0719C14.597 9.54668 14.5965 5.45323 12.0719 2.92806ZM11.0187 5.90116L7.08978 9.83065C6.99279 9.92761 6.86125 9.98209 6.72409 9.98209C6.58694 9.98209 6.4554 9.92761 6.3584 9.83065L3.98116 7.45289C3.93314 7.40486 3.89505 7.34785 3.86906 7.28511C3.84307 7.22236 3.82969 7.15511 3.82969 7.0872C3.82969 6.95004 3.88418 6.81849 3.98116 6.72151C4.07815 6.62452 4.20969 6.57003 4.34685 6.57003C4.48401 6.57003 4.61556 6.62452 4.71254 6.72151L6.72409 8.73306L10.2874 5.16927C10.3354 5.12124 10.3925 5.08316 10.4552 5.05718C10.518 5.0312 10.5853 5.01784 10.6532 5.01787C10.7212 5.01789 10.7885 5.0313 10.8512 5.05732C10.914 5.08334 10.971 5.12147 11.019 5.16953C11.067 5.21758 11.1051 5.27463 11.1311 5.3374C11.1571 5.40018 11.1704 5.46746 11.1704 5.5354C11.1704 5.60334 11.157 5.67061 11.131 5.73336C11.1049 5.79612 11.0668 5.85314 11.0187 5.90116Z" fill="#FF8A00"/>
</svg>
