<svg width="14" height="15" viewBox="0 0 14 15" fill="none" xmlns="http://www.w3.org/2000/svg">
<path d="M13.4157 10.334L12.1656 8.99458C11.7929 8.59852 11.29 8.37523 10.7651 8.37283C10.2402 8.37044 9.73547 8.58914 9.3597 8.98179C9.1592 9.19785 8.89468 9.33228 8.61166 9.36194C8.32864 9.39161 8.04482 9.31466 7.80903 9.14434C6.8784 8.47889 6.07892 7.62395 5.45603 6.62812C5.29986 6.37267 5.23065 6.06736 5.26004 5.76361C5.28943 5.45987 5.41564 5.17627 5.61741 4.96058C5.98055 4.55759 6.18204 4.0183 6.17875 3.45814C6.17546 2.89798 5.96765 2.36146 5.59979 1.9634L4.34971 0.624009C3.97545 0.224389 3.46861 0 2.94024 0C2.41186 0 1.90503 0.224389 1.53077 0.624009L1.17108 1.01C-0.704045 3.01908 -0.563694 7.24302 3.33771 11.4207C5.69014 13.9418 8.05791 14.9975 9.97793 14.9975C10.5431 15.0176 11.1064 14.9171 11.635 14.7016C12.1635 14.4862 12.6468 14.1602 13.0565 13.7427L13.4168 13.3567C13.7905 12.9555 14.0002 12.4119 14 11.8451C13.9998 11.2783 13.7896 10.7348 13.4157 10.334ZM12.6122 12.4959L12.2519 12.8818C10.7746 14.4648 7.51356 14.1756 4.14003 10.5604C0.76651 6.94531 0.496037 3.4489 1.97341 1.86599L2.33082 1.48061C2.49174 1.30881 2.70966 1.21235 2.93683 1.21235C3.164 1.21235 3.38191 1.30881 3.54283 1.48061L4.79292 2.82C4.95092 2.99013 5.0406 3.21969 5.04283 3.45969C5.04506 3.69969 4.95966 3.93112 4.80485 4.10459C4.42089 4.5186 4.18138 5.06141 4.12645 5.64209C4.07152 6.22276 4.20451 6.80603 4.50313 7.29416C5.21087 8.42893 6.12099 9.40262 7.18115 10.1592C7.63537 10.4792 8.17832 10.6226 8.7193 10.5653C9.26028 10.508 9.76654 10.2536 10.1535 9.84448C10.3151 9.67665 10.5317 9.58345 10.7568 9.58493C10.9818 9.58641 11.1973 9.68245 11.357 9.85239L12.6071 11.1918C12.6877 11.2769 12.7517 11.3782 12.7956 11.4899C12.8395 11.6016 12.8623 11.7215 12.8628 11.8427C12.8633 11.9639 12.8414 12.084 12.7984 12.1961C12.7554 12.3082 12.6921 12.4101 12.6122 12.4959Z" fill="#115B7A"/>
</svg>
