<svg width="21" height="20" viewBox="0 0 21 20" fill="none" xmlns="http://www.w3.org/2000/svg">
<path d="M15.7353 19.9033H5.26471C2.46723 19.9033 0.68883 18.3573 0.528974 15.7745L0.00944222 8.13722C-0.0704858 6.98005 0.359127 5.86916 1.21835 5.02675C2.06759 4.18433 3.26651 3.70294 4.50539 3.70294C4.82511 3.70294 5.13483 3.52705 5.28469 3.24933L6.00404 1.92553C6.59351 0.84242 8.07217 0 9.36103 0H11.649C12.9378 0 14.4065 0.84242 14.996 1.91627L15.7153 3.26785C15.8652 3.52705 16.1649 3.70294 16.4946 3.70294C17.7335 3.70294 18.9324 4.18433 19.7816 5.02675C20.6409 5.87842 21.0705 6.98005 20.9906 8.13722L20.471 15.7838C20.2912 18.4036 18.5627 19.9033 15.7353 19.9033ZM9.36103 1.3886C8.6217 1.3886 7.68253 1.92553 7.34284 2.54577L6.62349 3.87883C6.20386 4.62868 5.39459 5.09155 4.50539 5.09155C3.66615 5.09155 2.88684 5.4063 2.30737 5.971C1.73789 6.53569 1.44815 7.27628 1.50809 8.04464L2.02762 15.6912C2.14751 17.5612 3.23654 18.5147 5.26471 18.5147H15.7353C17.7535 18.5147 18.8425 17.5612 18.9724 15.6912L19.4919 8.04464C19.5419 7.27628 19.2621 6.53569 18.6926 5.971C18.1131 5.4063 17.3339 5.09155 16.4946 5.09155C15.6054 5.09155 14.7961 4.62868 14.3765 3.89735L13.6472 2.54577C13.3175 1.93479 12.3783 1.39786 11.639 1.39786H9.36103V1.3886Z" fill="#292D32"/>
<path d="M11.999 6.9428H9.00174C8.59211 6.9428 8.25241 6.62805 8.25241 6.2485C8.25241 5.86895 8.59211 5.5542 9.00174 5.5542H11.999C12.4087 5.5542 12.7484 5.86895 12.7484 6.2485C12.7484 6.62805 12.4087 6.9428 11.999 6.9428Z" fill="#292D32"/>
<path d="M10.5003 16.2003C8.29227 16.2003 6.50388 14.5433 6.50388 12.4974C6.50388 10.4515 8.29227 8.79443 10.5003 8.79443C12.7083 8.79443 14.4967 10.4515 14.4967 12.4974C14.4967 14.5433 12.7083 16.2003 10.5003 16.2003ZM10.5003 10.183C9.12152 10.183 8.00253 11.2199 8.00253 12.4974C8.00253 13.7749 9.12152 14.8117 10.5003 14.8117C11.879 14.8117 12.998 13.7749 12.998 12.4974C12.998 11.2199 11.879 10.183 10.5003 10.183Z" fill="#292D32"/>
</svg>
