<svg width="31" height="31" viewBox="0 0 31 31" fill="none" xmlns="http://www.w3.org/2000/svg">
<circle cx="15.3846" cy="15.3846" r="15.3846" fill="#302D2E"/>
<path d="M20.8846 11.4473H18.7596L18.2534 10.0285C18.2184 9.93143 18.1543 9.84752 18.0698 9.78823C17.9854 9.72894 17.8847 9.69717 17.7815 9.69727H12.9877C12.7768 9.69727 12.5877 9.83008 12.5174 10.0285L12.0096 11.4473H9.88461C9.19399 11.4473 8.63461 12.0066 8.63461 12.6973V19.8223C8.63461 20.5129 9.19399 21.0723 9.88461 21.0723H20.8846C21.5752 21.0723 22.1346 20.5129 22.1346 19.8223V12.6973C22.1346 12.0066 21.5752 11.4473 20.8846 11.4473ZM15.3846 18.5723C14.0034 18.5723 12.8846 17.4535 12.8846 16.0723C12.8846 14.691 14.0034 13.5723 15.3846 13.5723C16.7659 13.5723 17.8846 14.691 17.8846 16.0723C17.8846 17.4535 16.7659 18.5723 15.3846 18.5723ZM13.8846 16.0723C13.8846 16.4701 14.0426 16.8516 14.324 17.1329C14.6053 17.4142 14.9868 17.5723 15.3846 17.5723C15.7824 17.5723 16.164 17.4142 16.4453 17.1329C16.7266 16.8516 16.8846 16.4701 16.8846 16.0723C16.8846 15.6744 16.7266 15.2929 16.4453 15.0116C16.164 14.7303 15.7824 14.5723 15.3846 14.5723C14.9868 14.5723 14.6053 14.7303 14.324 15.0116C14.0426 15.2929 13.8846 15.6744 13.8846 16.0723Z" fill="white"/>
</svg>
