<svg width="35" height="35" viewBox="0 0 35 35" fill="none" xmlns="http://www.w3.org/2000/svg">
<path d="M17.5 35.0001C27.165 35.0001 35 27.1651 35 17.5001C35 7.83508 27.165 0 17.5 0C7.83502 0 0 7.83508 0 17.5001C0 27.1651 7.83502 35.0001 17.5 35.0001Z" fill="#4FD8B3"/>
<path d="M22.6144 34.2159C23.0276 34.0961 23.4362 33.9611 23.8394 33.8112C24.384 33.6 24.9177 33.3616 25.4384 33.097C25.9583 32.8319 26.4647 32.541 26.9555 32.2253C27.4461 31.9101 27.9206 31.5706 28.3774 31.2081C28.8341 30.846 29.2726 30.4612 29.6909 30.0553C30.1102 29.6482 30.5089 29.2204 30.8853 28.7734C31.2608 28.3276 31.6138 27.8632 31.943 27.3822C32.2725 26.9001 32.5777 26.4018 32.8574 25.8892C33.1368 25.3772 33.3905 24.8515 33.6175 24.3142C33.8453 23.7773 34.046 23.2294 34.2191 22.6725C34.2224 22.6568 34.2257 22.6411 34.2289 22.6255L23.3024 11.6989C22.541 10.9363 21.6364 10.3316 20.6407 9.91965C19.6449 9.50765 18.5776 9.29643 17.5 9.29811C16.4226 9.29614 15.3553 9.50702 14.3596 9.91864C13.3639 10.3303 12.4592 10.9345 11.6977 11.6967C8.49954 14.8959 8.49954 20.1 11.6977 23.2992L22.6133 34.2148L22.6144 34.2159Z" fill="#39C19D"/>
<path d="M17.5011 9.30128C16.4236 9.29931 15.3564 9.51019 14.3606 9.92181C13.3649 10.3334 12.4603 10.9377 11.6987 11.6999C8.4995 14.8991 8.4995 20.1032 11.6998 23.3024C14.899 26.5005 20.1031 26.5005 23.3023 23.3024C26.5004 20.1032 26.5004 14.8991 23.3023 11.6999C22.5412 10.9377 21.637 10.3334 20.6416 9.92181C19.6462 9.51019 18.5793 9.2993 17.5022 9.30128H17.5011ZM17.5011 10.3885C19.3189 10.3885 21.1367 11.083 22.5279 12.4732C23.1891 13.1329 23.7137 13.9166 24.0717 14.7794C24.4296 15.6422 24.6138 16.5671 24.6138 17.5011C24.6138 18.4352 24.4296 19.3601 24.0717 20.2229C23.7137 21.0856 23.1891 21.8693 22.5279 22.5291C21.8682 23.1903 21.0845 23.7149 20.2217 24.0728C19.3589 24.4308 18.434 24.615 17.5 24.615C16.5659 24.615 15.641 24.4308 14.7782 24.0728C13.9155 23.7149 13.1318 23.1903 12.472 22.5291C11.8108 21.8693 11.2862 21.0856 10.9283 20.2229C10.5703 19.3601 10.3861 18.4352 10.3861 17.5011C10.3861 16.5671 10.5703 15.6422 10.9283 14.7794C11.2862 13.9166 11.8108 13.1329 12.472 12.4732C13.1316 11.8114 13.9154 11.2866 14.7785 10.9289C15.6415 10.5711 16.5668 10.3875 17.5011 10.3885ZM20.7386 15.3125C20.635 15.3223 20.5363 15.3614 20.4542 15.4252L16.4576 18.4221L14.6059 16.5714C14.5555 16.5192 14.4951 16.4775 14.4284 16.4489C14.3617 16.4202 14.2899 16.4051 14.2173 16.4045C14.1447 16.4039 14.0727 16.4177 14.0055 16.4452C13.9383 16.4727 13.8772 16.5133 13.8258 16.5647C13.7745 16.616 13.7339 16.6771 13.7064 16.7443C13.6789 16.8115 13.6651 16.8835 13.6657 16.9561C13.6663 17.0287 13.6814 17.1005 13.7101 17.1672C13.7387 17.2339 13.7804 17.2943 13.8326 17.3447L16.0201 19.5322C16.1131 19.6252 16.2365 19.6816 16.3676 19.6911C16.4988 19.7005 16.629 19.6624 16.7343 19.5836L21.1093 16.3024C21.202 16.2348 21.2711 16.1398 21.3069 16.0308C21.3426 15.9218 21.3432 15.8043 21.3085 15.695C21.2737 15.5856 21.2055 15.49 21.1135 15.4215C21.0214 15.3531 20.9101 15.3153 20.7954 15.3136C20.7769 15.3127 20.7582 15.3127 20.7397 15.3136L20.7386 15.3125Z" fill="white"/>
</svg>
