<svg width="20" height="20" viewBox="0 0 20 20" fill="none" xmlns="http://www.w3.org/2000/svg">
<path d="M18.4562 8.65312C18.2937 3.8625 14.6719 0 10.2906 0H9.70937C5.35625 0 1.73437 3.83437 1.54375 8.5875C0.812497 8.79688 0.278122 9.46563 0.278122 10.2594V12.2937C0.278122 13.2563 1.05937 14.0406 2.025 14.0406C2.55312 14.0406 3.025 13.8031 3.34687 13.4281C3.6625 14.6438 4.16875 15.8 4.81562 16.7844C6.14687 18.8156 7.92187 19.9563 9.80937 19.9969L9.91562 20C11.8281 20 13.6344 18.8969 15.0062 16.8969C15.1187 16.7313 15.2281 16.5562 15.3344 16.3812L15.9437 16.375C16.5352 16.3769 17.109 16.1732 17.5668 15.7986C18.0245 15.4241 18.3379 14.902 18.4531 14.3219H18.4687L18.4906 14.1094C18.4937 14.0813 18.4937 14.0531 18.4937 14.025C19.2031 13.8031 19.7219 13.1438 19.7219 12.3656V10.3313C19.7219 9.53125 19.1875 8.8625 18.4562 8.65312ZM3.05 8.85312C2.91562 8.75313 2.76562 8.675 2.60625 8.61563C2.78437 4.43437 5.92812 1.06563 9.70937 1.06563H10.2906C14.0969 1.06563 17.2437 4.46563 17.3906 8.68125C17.2406 8.73438 17.1 8.80937 16.9719 8.9C16.4875 4.99062 13.8437 2.42188 10.1906 2.34375H10.05C8.15312 2.34375 6.40625 3.07188 5.12812 4.39062C4.01875 5.54063 3.30625 7.08125 3.05 8.85312ZM14.7031 15.325L12.1906 15.3594C12.0938 15.1744 11.9483 15.0193 11.7699 14.9108C11.5915 14.8024 11.3869 14.7446 11.1781 14.7437H10.2156C9.57812 14.7437 9.0625 15.2625 9.0625 15.8938C9.0625 16.5312 9.58125 17.0469 10.2156 17.0469H11.1781C11.6187 17.0469 12.0031 16.7906 12.1937 16.4219L14.0344 16.3969C12.8625 18.0125 11.3781 18.9313 9.9125 18.9313H9.82812C8.3 18.8969 6.83437 17.9281 5.7 16.1969C4.62187 14.5531 4.00312 12.4313 4.00312 10.375V10.2625L4.00625 10.15C4.05 8.09688 4.70312 6.3625 5.89375 5.12813C6.97187 4.01562 8.44062 3.40313 10.0281 3.40313H10.0344C10.075 3.40313 10.1156 3.40312 10.1625 3.40625C13.5906 3.48125 15.9875 6.275 15.9875 10.1969C15.9875 10.2688 15.9875 10.3375 15.9844 10.4125C15.9531 12.1219 15.4937 13.8563 14.7031 15.325ZM17.4219 14.0437C17.3125 14.7656 16.6781 15.3094 15.9406 15.3094H15.9031C16.1781 14.7219 16.4094 14.0938 16.5969 13.4281C16.8062 13.7 17.0937 13.9062 17.425 14.0188C17.4219 14.025 17.4219 14.0344 17.4219 14.0437Z" fill="#37474F"/>
</svg>
