<svg width="17" height="13" viewBox="0 0 17 13" fill="none" xmlns="http://www.w3.org/2000/svg">
<path d="M14.5852 12.5047H2.41477C1.77457 12.5039 1.1608 12.2453 0.708101 11.7856C0.255406 11.3259 0.000751858 10.7026 0 10.0524V2.65536C0.000751858 2.00522 0.255406 1.38193 0.708101 0.922211C1.1608 0.462493 1.77457 0.203889 2.41477 0.203125H14.5852C15.2254 0.203889 15.8392 0.462493 16.2919 0.922211C16.7446 1.38193 16.9992 2.00522 17 2.65536V10.0524C16.9992 10.7026 16.7446 11.3259 16.2919 11.7856C15.8392 12.2453 15.2254 12.5039 14.5852 12.5047ZM2.41477 1.06862C2.00037 1.06862 1.60294 1.23579 1.30992 1.53336C1.01689 1.83094 0.852273 2.23453 0.852273 2.65536V10.0524C0.852273 10.4733 1.01689 10.8769 1.30992 11.1744C1.60294 11.472 2.00037 11.6392 2.41477 11.6392H14.5852C14.9996 11.6392 15.3971 11.472 15.6901 11.1744C15.9831 10.8769 16.1477 10.4733 16.1477 10.0524V2.65536C16.1477 2.23453 15.9831 1.83094 15.6901 1.53336C15.3971 1.23579 14.9996 1.06862 14.5852 1.06862H2.41477Z" fill="#115B7A"/>
<path d="M8.5 8.10808C7.9743 8.10892 7.46267 7.93573 7.04261 7.61475L0.409087 2.51987C0.362219 2.48647 0.32246 2.44381 0.292185 2.39446C0.261911 2.3451 0.241742 2.29006 0.232884 2.23261C0.224025 2.17516 0.226658 2.11649 0.240625 2.0601C0.254593 2.0037 0.279608 1.95075 0.314178 1.90439C0.348747 1.85804 0.392161 1.81924 0.441828 1.7903C0.491494 1.76136 0.546394 1.74289 0.603248 1.73598C0.660102 1.72907 0.717745 1.73386 0.772733 1.75008C0.827721 1.7663 0.878927 1.7936 0.923292 1.83036L7.55681 6.93101C7.82922 7.13751 8.16006 7.24908 8.5 7.24908C8.83993 7.24908 9.17077 7.13751 9.44318 6.93101L16.0767 1.83036C16.1211 1.7936 16.1723 1.7663 16.2273 1.75008C16.2822 1.73386 16.3399 1.72907 16.3967 1.73598C16.4536 1.74289 16.5085 1.76136 16.5582 1.7903C16.6078 1.81924 16.6512 1.85804 16.6858 1.90439C16.7204 1.95075 16.7454 2.0037 16.7594 2.0601C16.7733 2.11649 16.776 2.17516 16.7671 2.23261C16.7583 2.29006 16.7381 2.3451 16.7078 2.39446C16.6775 2.44381 16.6378 2.48647 16.5909 2.51987L9.95738 7.61475C9.53732 7.93573 9.02569 8.10892 8.5 8.10808Z" fill="#115B7A"/>
<path d="M0.59374 11.2989C0.507311 11.299 0.422888 11.2725 0.351671 11.2227C0.280453 11.173 0.22581 11.1025 0.194991 11.0205C0.164171 10.9385 0.158633 10.8489 0.179111 10.7636C0.199589 10.6784 0.245116 10.6014 0.309649 10.543L5.53692 5.80878C5.62131 5.73227 5.73217 5.69293 5.84512 5.69942C5.95807 5.70592 6.06385 5.75771 6.13919 5.8434C6.21454 5.9291 6.25328 6.04168 6.24688 6.15638C6.24049 6.27108 6.18949 6.3785 6.1051 6.45502L0.877831 11.1893C0.800202 11.261 0.698684 11.3002 0.59374 11.2989ZM16.4062 11.2989C16.3013 11.3002 16.1998 11.261 16.1221 11.1893L10.8949 6.45502C10.8105 6.3785 10.7595 6.27108 10.7531 6.15638C10.7467 6.04168 10.7854 5.9291 10.8608 5.8434C10.9361 5.75771 11.0419 5.70592 11.1549 5.69942C11.2678 5.69293 11.3787 5.73227 11.4631 5.80878L16.6875 10.543C16.752 10.6014 16.7975 10.6784 16.818 10.7636C16.8385 10.8489 16.833 10.9385 16.8021 11.0205C16.7713 11.1025 16.7167 11.173 16.6455 11.2227C16.5743 11.2725 16.4898 11.299 16.4034 11.2989H16.4062Z" fill="#115B7A"/>
</svg>
