<svg width="26" height="26" viewBox="0 0 26 26" fill="none" xmlns="http://www.w3.org/2000/svg">
<path d="M22.1 0H3.9C1.74703 0.00238043 0.00238043 1.74703 0 3.9V15.6889V22.1C0.00238043 24.253 1.74703 25.9976 3.9 26H22.1C22.337 25.9997 22.5708 25.9714 22.8014 25.9286C22.8873 25.9129 22.9693 25.8892 23.0532 25.8679C23.191 25.8327 23.3263 25.7916 23.4594 25.7415C23.5562 25.7052 23.6507 25.6672 23.7437 25.6237C23.8529 25.5722 23.9572 25.5127 24.0615 25.4511C24.1593 25.3936 24.258 25.3398 24.3501 25.2743C24.3576 25.2689 24.3662 25.2653 24.3737 25.2599C24.3834 25.2529 24.3917 25.2442 24.401 25.2367C24.4188 25.2223 24.4411 25.2153 24.4574 25.199C24.466 25.1904 24.4687 25.1788 24.4767 25.1698C25.3962 24.4564 25.9986 23.3536 26 22.1V18.2914V3.9C25.9976 1.74703 24.253 0.00238043 22.1 0ZM22.8474 24.577C22.6049 24.6522 22.3541 24.6998 22.1 24.7H3.9C2.46479 24.6982 1.30182 23.5352 1.3 22.1V15.958L6.1915 11.0665C7.08073 10.1804 8.51927 10.1804 9.4085 11.0665L13.8348 15.4924C13.8373 15.4949 13.8379 15.4984 13.8404 15.5009L22.9001 24.5606C22.8827 24.5663 22.8651 24.5716 22.8474 24.577ZM24.7 22.1C24.6991 22.7712 24.4374 23.3768 24.0195 23.8381L15.2206 15.0399L16.5928 13.6678C17.4914 12.807 18.9086 12.807 19.8072 13.6678L24.7 18.5605V22.1ZM24.7 16.7223L20.7264 12.7486C19.3305 11.3547 17.0695 11.3547 15.6736 12.7486L14.3014 14.1208L10.3276 10.1474C8.93083 8.75342 6.66916 8.75342 5.27236 10.1474L1.3 14.1197V3.9C1.30182 2.46479 2.46479 1.30182 3.9 1.3H22.1C23.5352 1.30182 24.6982 2.46479 24.7 3.9V16.7223ZM14.95 5.2C13.873 5.2 13 6.07304 13 7.15C13 8.22696 13.873 9.1 14.95 9.1C16.0265 9.09881 16.8988 8.22648 16.9 7.15C16.9 6.07304 16.027 5.2 14.95 5.2ZM14.95 7.8C14.591 7.8 14.3 7.50896 14.3 7.15C14.3 6.79104 14.591 6.5 14.95 6.5C15.3087 6.50071 15.5993 6.79128 15.6 7.15C15.6 7.50896 15.309 7.8 14.95 7.8Z" fill="#B3B3B3"/>
</svg>
