<svg width="20" height="20" viewBox="0 0 20 20" fill="none" xmlns="http://www.w3.org/2000/svg">
<path d="M18.4562 8.65313C18.2937 3.8625 14.6718 0 10.2906 0H9.70933C5.3562 0 1.73433 3.83437 1.5437 8.5875C0.812451 8.79687 0.278076 9.46563 0.278076 10.2594V12.2938C0.278076 13.2563 1.05933 14.0406 2.02495 14.0406C2.55308 14.0406 3.02495 13.8031 3.34683 13.4281C3.66245 14.6438 4.1687 15.8 4.81558 16.7844C6.14683 18.8156 7.92183 19.9563 9.80933 19.9969L9.91558 20C11.8281 20 13.6343 18.8969 15.0062 16.8969C15.1187 16.7312 15.2281 16.5562 15.3343 16.3812L15.9437 16.375C16.5352 16.3769 17.1089 16.1732 17.5667 15.7986C18.0245 15.4241 18.3378 14.902 18.4531 14.3219H18.4687L18.4906 14.1094C18.4937 14.0813 18.4937 14.0531 18.4937 14.025C19.2031 13.8031 19.7218 13.1437 19.7218 12.3656V10.3313C19.7218 9.53125 19.1874 8.8625 18.4562 8.65313ZM3.04995 8.85312C2.91558 8.75312 2.76558 8.675 2.6062 8.61562C2.78433 4.43437 5.92808 1.06563 9.70933 1.06563H10.2906C14.0968 1.06563 17.2437 4.46563 17.3906 8.68125C17.2406 8.73438 17.1 8.80937 16.9718 8.9C16.4875 4.99062 13.8437 2.42188 10.1906 2.34375H10.05C8.15308 2.34375 6.4062 3.07188 5.12808 4.39063C4.0187 5.54063 3.3062 7.08125 3.04995 8.85312ZM14.7031 15.325L12.1906 15.3594C12.0937 15.1744 11.9483 15.0193 11.7699 14.9108C11.5915 14.8024 11.3869 14.7446 11.1781 14.7438H10.2156C9.57808 14.7438 9.06245 15.2625 9.06245 15.8938C9.06245 16.5313 9.5812 17.0469 10.2156 17.0469H11.1781C11.6187 17.0469 12.0031 16.7906 12.1937 16.4219L14.0343 16.3969C12.8625 18.0125 11.3781 18.9313 9.91245 18.9313H9.82808C8.29995 18.8969 6.83433 17.9281 5.69995 16.1969C4.62183 14.5531 4.00308 12.4313 4.00308 10.375V10.2625L4.0062 10.15C4.04995 8.09687 4.70308 6.3625 5.8937 5.12812C6.97183 4.01562 8.44058 3.40313 10.0281 3.40313H10.0343C10.075 3.40313 10.1156 3.40312 10.1625 3.40625C13.5906 3.48125 15.9874 6.275 15.9874 10.1969C15.9874 10.2688 15.9875 10.3375 15.9843 10.4125C15.9531 12.1219 15.4937 13.8563 14.7031 15.325ZM17.4218 14.0437C17.3124 14.7656 16.6781 15.3094 15.9406 15.3094H15.9031C16.1781 14.7219 16.4093 14.0938 16.5968 13.4281C16.8062 13.7 17.0937 13.9063 17.4249 14.0188C17.4218 14.025 17.4218 14.0344 17.4218 14.0437Z" fill="#37474F"/>
</svg>
