<svg width="12" height="16" viewBox="0 0 12 16" fill="none" xmlns="http://www.w3.org/2000/svg">
<path d="M6 15.2727C6.12304 15.272 6.24222 15.2297 6.33818 15.1527C6.54545 14.9673 12 10.5709 12 6C12 4.4087 11.3679 2.88258 10.2426 1.75736C9.11742 0.632141 7.5913 0 6 0C4.4087 0 2.88258 0.632141 1.75736 1.75736C0.632141 2.88258 0 4.4087 0 6C0 10.5709 5.45455 14.9673 5.66182 15.1527C5.75779 15.2297 5.87697 15.272 6 15.2727ZM1.09091 6C1.09091 4.69803 1.60812 3.44938 2.52875 2.52875C3.44938 1.60812 4.69803 1.09091 6 1.09091C7.30197 1.09091 8.55062 1.60812 9.47125 2.52875C10.3919 3.44938 10.9091 4.69803 10.9091 6C10.9091 9.43636 7.16182 12.9873 6 14.0127C4.83818 12.9873 1.09091 9.43636 1.09091 6Z" fill="url(#paint0_linear_112_237)"/>
<path d="M8.7274 6.0001C8.7274 5.4607 8.56745 4.93341 8.26778 4.48491C7.9681 4.03641 7.54216 3.68685 7.04381 3.48043C6.54547 3.27401 5.99711 3.22 5.46807 3.32523C4.93903 3.43046 4.45307 3.69021 4.07166 4.07163C3.69024 4.45304 3.4305 4.939 3.32526 5.46804C3.22003 5.99708 3.27404 6.54544 3.48046 7.04378C3.68688 7.54213 4.03644 7.96807 4.48494 8.26775C4.93344 8.56742 5.46073 8.72737 6.00013 8.72737C6.72345 8.72737 7.41714 8.44004 7.92861 7.92857C8.44007 7.41711 8.7274 6.72342 8.7274 6.0001ZM4.36377 6.0001C4.36377 5.67646 4.45974 5.36008 4.63955 5.09099C4.81935 4.82189 5.07492 4.61215 5.37392 4.4883C5.67293 4.36445 6.00195 4.33204 6.31937 4.39518C6.63679 4.45832 6.92837 4.61417 7.15722 4.84302C7.38607 5.07187 7.54191 5.36344 7.60505 5.68086C7.66819 5.99829 7.63579 6.3273 7.51194 6.62631C7.38808 6.92532 7.17835 7.18088 6.90925 7.36069C6.64015 7.54049 6.32377 7.63647 6.00013 7.63647C5.56614 7.63647 5.14993 7.46406 4.84305 7.15719C4.53617 6.85031 4.36377 6.43409 4.36377 6.0001Z" fill="url(#paint1_linear_112_237)"/>
<defs>
<linearGradient id="paint0_linear_112_237" x1="6" y1="0" x2="6" y2="15.2727" gradientUnits="userSpaceOnUse">
<stop stop-color="#4FEEC2"/>
<stop offset="1" stop-color="#4AB1DC"/>
</linearGradient>
<linearGradient id="paint1_linear_112_237" x1="6.00013" y1="3.27283" x2="6.00013" y2="8.72737" gradientUnits="userSpaceOnUse">
<stop stop-color="#4FEEC2"/>
<stop offset="1" stop-color="#4AB1DC"/>
</linearGradient>
</defs>
</svg>
