<svg width="22" height="22" viewBox="0 0 22 22" fill="none" xmlns="http://www.w3.org/2000/svg">
<path d="M11 1.375C8.72664 1.375 6.875 3.22664 6.875 5.5V6.875H4.01624C2.36319 6.875 1.06673 8.38411 1.43946 9.97546L3.38245 18.2738C3.70761 19.6621 4.99388 20.625 6.44397 20.625H15.556C17.0061 20.625 18.2924 19.6621 18.6176 18.2738L20.5605 9.97546C20.9333 8.38411 19.6368 6.875 17.9838 6.875H15.125V5.5C15.125 3.22664 13.2734 1.375 11 1.375ZM11 2.75C12.5354 2.75 13.75 3.96461 13.75 5.5V6.875H8.25V5.5C8.25 3.96461 9.46461 2.75 11 2.75ZM4.01624 8.25H17.9838C18.8314 8.25 19.3916 8.93782 19.2218 9.6626L17.2788 17.9609C17.1059 18.6993 16.4021 19.25 15.556 19.25H6.44397C5.59794 19.25 4.89412 18.6993 4.72119 17.9609L2.7782 9.6626C2.60845 8.93782 3.16857 8.25 4.01624 8.25Z" fill="#37474F"/>
<path d="M7.5625 9.625C7.38016 9.625 7.2053 9.69743 7.07636 9.82636C6.94743 9.9553 6.875 10.1302 6.875 10.3125C6.875 12.5859 8.72664 14.4375 11 14.4375C13.2734 14.4375 15.125 12.5859 15.125 10.3125C15.125 10.1302 15.0526 9.9553 14.9236 9.82636C14.7947 9.69743 14.6198 9.625 14.4375 9.625C14.2552 9.625 14.0803 9.69743 13.9514 9.82636C13.8224 9.9553 13.75 10.1302 13.75 10.3125C13.75 11.8479 12.5354 13.0625 11 13.0625C9.46461 13.0625 8.25 11.8479 8.25 10.3125C8.25 10.1302 8.17757 9.9553 8.04864 9.82636C7.9197 9.69743 7.74484 9.625 7.5625 9.625Z" fill="#37474F"/>
</svg>
