<svg width="21" height="22" viewBox="0 0 21 22" fill="none" xmlns="http://www.w3.org/2000/svg">
<path d="M18.47 8.99738H2.47V16.9974C2.47 19.9974 3.47 20.9974 6.47 20.9974H14.47C17.47 20.9974 18.47 19.9974 18.47 16.9974V8.99738ZM20 5.99738V6.99738C20 8.09738 19.47 8.99738 18 8.99738H3C1.47 8.99738 1 8.09738 1 6.99738V5.99738C1 4.89738 1.47 3.99738 3 3.99738H18C19.47 3.99738 20 4.89738 20 5.99738ZM10.14 3.99738H4.62C4.45557 3.81904 4.3668 3.58383 4.3724 3.34132C4.37799 3.09881 4.47752 2.86794 4.65 2.69738L6.07 1.27738C6.24972 1.09967 6.49226 1 6.745 1C6.99774 1 7.24028 1.09967 7.42 1.27738L10.14 3.99738ZM16.37 3.99738H10.85L13.57 1.27738C13.7497 1.09967 13.9923 1 14.245 1C14.4977 1 14.7403 1.09967 14.92 1.27738L16.34 2.69738C16.7 3.05738 16.71 3.62738 16.37 3.99738Z" stroke="#A9A9A9" stroke-width="1.5" stroke-miterlimit="10" stroke-linecap="round" stroke-linejoin="round"/>
<path d="M7.44 8.99756V14.1376C7.44 14.9376 8.32 15.4076 8.99 14.9776L9.93 14.3576C10.0933 14.25 10.2845 14.1927 10.48 14.1927C10.6755 14.1927 10.8667 14.25 11.03 14.3576L11.92 14.9576C12.0702 15.0577 12.2447 15.1151 12.425 15.1238C12.6053 15.1325 12.7845 15.0921 12.9437 15.0069C13.1028 14.9217 13.2358 14.7949 13.3285 14.64C13.4212 14.4852 13.4701 14.308 13.47 14.1276V8.99756H7.44Z" stroke="#A9A9A9" stroke-width="1.5" stroke-miterlimit="10" stroke-linecap="round" stroke-linejoin="round"/>
</svg>
