<svg width="20" height="20" viewBox="0 0 20 20" fill="none" xmlns="http://www.w3.org/2000/svg">
<path d="M16.518 20H3.48852C2.56331 20 1.67599 19.6325 1.02177 18.9782C0.36754 18.324 0 17.4367 0 16.5115V3.48197C0.00173699 2.55789 0.370044 1.67225 1.02408 1.01945C1.67812 0.366638 2.56445 -1.63251e-06 3.48852 0H16.518C16.9753 0 17.4281 0.0900637 17.8505 0.265049C18.273 0.440034 18.6568 0.696514 18.9802 1.01984C19.3035 1.34318 19.56 1.72702 19.7349 2.14948C19.9099 2.57193 20 3.02471 20 3.48197V16.5115C20 17.4356 19.6334 18.3219 18.9806 18.9759C18.3277 19.63 17.4421 19.9983 16.518 20ZM3.48852 1.63934C3.246 1.63848 3.00568 1.68551 2.78137 1.77772C2.55705 1.86993 2.35315 2.00552 2.18135 2.17671C2.00955 2.3479 1.87324 2.55132 1.78023 2.77531C1.68722 2.99929 1.63934 3.23944 1.63934 3.48197V16.5115C1.63934 17.0019 1.83417 17.4723 2.18096 17.819C2.52775 18.1658 2.99809 18.3607 3.48852 18.3607H16.518C16.7606 18.3607 17.0007 18.3128 17.2247 18.2198C17.4487 18.1268 17.6521 17.9904 17.8233 17.8186C17.9945 17.6468 18.1301 17.4429 18.2223 17.2186C18.3145 16.9943 18.3615 16.754 18.3607 16.5115V3.48197C18.3607 2.99327 18.1665 2.52459 17.821 2.17904C17.4754 1.83348 17.0067 1.63934 16.518 1.63934H3.48852Z" fill="#A9A9A9"/>
<path d="M7.39011 10.8197C7.16374 10.8189 6.94016 10.7697 6.73437 10.6754C6.44655 10.5447 6.20288 10.3332 6.03293 10.0666C5.86299 9.80004 5.77408 9.48988 5.77699 9.17377V0.819672C5.77699 0.602282 5.86335 0.393795 6.01707 0.240076C6.17079 0.0863581 6.37927 0 6.59666 0C6.81405 0 7.02254 0.0863581 7.17626 0.240076C7.32998 0.393795 7.41634 0.602282 7.41634 0.819672V9.17377L8.95732 7.80984C9.24692 7.55129 9.62156 7.40839 10.0098 7.40839C10.398 7.40839 10.7726 7.55129 11.0622 7.80984L12.6426 9.18033L12.5901 0.819672C12.5901 0.602282 12.6765 0.393795 12.8302 0.240076C12.9839 0.0863581 13.1924 0 13.4098 0C13.6272 0 13.8357 0.0863581 13.9894 0.240076C14.1431 0.393795 14.2295 0.602282 14.2295 0.819672V9.17377C14.2324 9.48988 14.1435 9.80004 13.9735 10.0666C13.8036 10.3332 13.5599 10.5447 13.2721 10.6754C12.9928 10.8038 12.6822 10.848 12.3782 10.8026C12.0742 10.7572 11.7901 10.6241 11.5606 10.4197L9.99994 9.06885L8.43929 10.4262C8.14935 10.6811 7.77615 10.8211 7.39011 10.8197ZM10.9835 15.9475H5.08191C4.86452 15.9475 4.65603 15.8612 4.50231 15.7075C4.3486 15.5537 4.26224 15.3453 4.26224 15.1279C4.26224 14.9105 4.3486 14.702 4.50231 14.5483C4.65603 14.3946 4.86452 14.3082 5.08191 14.3082H10.9835C11.2009 14.3082 11.4094 14.3946 11.5631 14.5483C11.7169 14.702 11.8032 14.9105 11.8032 15.1279C11.8032 15.3453 11.7169 15.5537 11.5631 15.7075C11.4094 15.8612 11.2009 15.9475 10.9835 15.9475Z" fill="#A9A9A9"/>
</svg>
