<svg width="49" height="49" viewBox="0 0 49 49" fill="none" xmlns="http://www.w3.org/2000/svg">
<path d="M41.5127 0.509033H7.76001C3.76724 0.513448 0.531697 3.74899 0.527283 7.74176V29.6048V41.4945C0.531697 45.4873 3.76724 48.7228 7.76001 48.7272H41.5127C41.9523 48.7266 42.3858 48.6742 42.8135 48.5948C42.9729 48.5656 43.1249 48.5216 43.2805 48.4822C43.5361 48.4169 43.7869 48.3408 44.0339 48.2478C44.2134 48.1806 44.3886 48.1101 44.5611 48.0293C44.7636 47.9339 44.9571 47.8234 45.1504 47.7092C45.3317 47.6027 45.5149 47.5028 45.6856 47.3814C45.6996 47.3714 45.7155 47.3648 45.7295 47.3546C45.7474 47.3417 45.7629 47.3256 45.7801 47.3116C45.8131 47.285 45.8544 47.2719 45.8846 47.2417C45.9006 47.2257 45.9056 47.2042 45.9205 47.1876C47.6257 45.8646 48.743 43.8193 48.7455 41.4945V34.4313V7.74176C48.7411 3.74899 45.5055 0.513448 41.5127 0.509033ZM42.8989 46.0882C42.4491 46.2276 41.9841 46.316 41.5127 46.3163H7.76001C5.09836 46.3129 2.94158 44.1561 2.93819 41.4945V30.1039L12.0097 21.0324C13.6588 19.389 16.3267 19.389 17.9758 21.0324L26.1845 29.2404C26.1891 29.2451 26.1903 29.2514 26.195 29.2562L42.9966 46.0578C42.9642 46.0684 42.9316 46.0782 42.8989 46.0882ZM46.3346 41.4945C46.3329 42.7392 45.8475 43.8624 45.0726 44.7178L28.7545 28.4012L31.2993 25.8565C32.9658 24.2603 35.5942 24.2603 37.2607 25.8565L46.3346 34.9304V41.4945ZM46.3346 31.5212L38.9653 24.152C36.3766 21.5668 32.1834 21.5668 29.5947 24.152L27.0499 26.6968L19.6804 19.3278C17.0899 16.7426 12.8956 16.7426 10.3051 19.3278L2.93819 26.6947V7.74176C2.94158 5.08011 5.09836 2.92333 7.76001 2.91994H41.5127C44.1744 2.92333 46.3312 5.08011 46.3346 7.74176V31.5212ZM28.2527 10.1527C26.2555 10.1527 24.6364 11.7718 24.6364 13.769C24.6364 15.7663 26.2555 17.3854 28.2527 17.3854C30.2491 17.3832 31.8669 15.7654 31.8691 13.769C31.8691 11.7718 30.25 10.1527 28.2527 10.1527ZM28.2527 14.9745C27.587 14.9745 27.0473 14.4347 27.0473 13.769C27.0473 13.1033 27.587 12.5636 28.2527 12.5636C28.918 12.5649 29.4569 13.1038 29.4582 13.769C29.4582 14.4347 28.9184 14.9745 28.2527 14.9745Z" fill="#B3B3B3"/>
</svg>
