<svg width="14" height="19" viewBox="0 0 14 19" fill="none" xmlns="http://www.w3.org/2000/svg">
<path d="M6.9956 8.61215C6.90762 8.60357 6.80205 8.60357 6.70528 8.61215C5.69549 8.57871 4.73869 8.16322 4.0375 7.45366C3.33632 6.74409 2.94581 5.79619 2.94868 4.81068C2.94868 2.70828 4.69062 1.00062 6.85484 1.00062C7.36722 0.991604 7.87642 1.08112 8.35334 1.26404C8.83026 1.44697 9.26556 1.71974 9.63441 2.06676C10.0033 2.41378 10.2984 2.82827 10.503 3.28656C10.7077 3.74485 10.8177 4.23796 10.827 4.73774C10.8362 5.23752 10.7445 5.73418 10.5569 6.19937C10.3694 6.66455 10.0897 7.08915 9.73395 7.44893C9.37817 7.8087 8.95323 8.0966 8.48338 8.29619C8.01354 8.49577 7.50799 8.60314 6.9956 8.61215ZM2.59677 11.7786C0.467742 13.1688 0.467742 15.4342 2.59677 16.8158C5.01613 18.3947 8.98387 18.3947 11.4032 16.8158C13.5323 15.4256 13.5323 13.1602 11.4032 11.7786C8.99267 10.2083 5.02493 10.2083 2.59677 11.7786Z" stroke="#37474F" stroke-width="1.5" stroke-linecap="round" stroke-linejoin="round"/>
</svg>
