<svg width="17" height="17" viewBox="0 0 17 17" fill="none" xmlns="http://www.w3.org/2000/svg">
<path d="M8.49999 8.10526C10.4621 8.10526 12.0526 6.5147 12.0526 4.55263C12.0526 2.59057 10.4621 1 8.49999 1C6.53792 1 4.94736 2.59057 4.94736 4.55263C4.94736 6.5147 6.53792 8.10526 8.49999 8.10526Z" stroke="#37474F" stroke-width="1.5" stroke-miterlimit="10"/>
<path d="M12.0526 9.09272C10.9539 8.46537 9.70271 8.10547 8.42296 8.10547C5.06956 8.10547 1.85589 10.5852 1.11598 13.8738C0.950849 14.6068 0.741261 15.845 2.21472 16.0002H7.29563" stroke="#37474F" stroke-width="1.5" stroke-miterlimit="10" stroke-linecap="round"/>
<path d="M10.7291 16.0001C9.71681 16.0001 8.89474 15.1156 8.89474 14.0264C8.89474 12.9373 9.71681 12.0527 10.7291 12.0527H15.2105" stroke="#37474F" stroke-width="1.5" stroke-miterlimit="10" stroke-linecap="round"/>
<path d="M14.4211 10.4736L16 12.449L14.4211 14.421" stroke="#37474F" stroke-width="1.5" stroke-miterlimit="10" stroke-linecap="round" stroke-linejoin="round"/>
</svg>
