<svg width="17" height="16" viewBox="0 0 17 16" fill="none" xmlns="http://www.w3.org/2000/svg">
<path d="M11.8247 0C10.3976 0 9.05213 0.656399 8.155 1.72302C7.25783 0.656399 5.91237 0 4.48525 0C1.95712 0 0 1.969 0 4.5125C0 7.63006 2.77262 10.1327 6.97237 13.9885L8.155 15.0554L9.33763 13.9885C13.5373 10.1327 16.31 7.63002 16.31 4.5125C16.31 1.969 14.3529 0 11.8247 0ZM8.65826 12.9091L8.49284 13.0609L8.155 13.3657L7.81719 13.061L7.65198 12.9093C5.67525 11.0947 3.96807 9.52755 2.83951 8.1263C1.74341 6.76532 1.25462 5.65079 1.25462 4.5125C1.25462 3.61604 1.58481 2.79011 2.1844 2.18691C2.78199 1.58572 3.5991 1.25462 4.48525 1.25462C5.50988 1.25462 6.52282 1.73164 7.19483 2.5306L8.155 3.67214L9.11513 2.5306C9.78718 1.73164 10.8001 1.25462 11.8247 1.25462C12.7109 1.25462 13.528 1.58572 14.1256 2.18687C14.7252 2.79011 15.0554 3.616 15.0554 4.5125C15.0554 5.65079 14.5666 6.76528 13.4706 8.12622C12.342 9.52747 10.6349 11.0945 8.65826 12.9091Z" fill="#3A3A3A"/>
</svg>
