<svg width="14" height="14" viewBox="0 0 14 14" fill="none" xmlns="http://www.w3.org/2000/svg">
<path d="M13.3608 9.61524L12.1233 8.37774C11.7544 8.01181 11.2565 7.8055 10.7369 7.80329C10.2173 7.80108 9.71767 8.00315 9.34568 8.36592C9.14719 8.56554 8.88534 8.68975 8.60517 8.71716C8.325 8.74457 8.04403 8.67348 7.81062 8.51611C6.88936 7.90128 6.09792 7.11137 5.48131 6.1913C5.32671 5.95528 5.25819 5.67319 5.28729 5.39256C5.31639 5.11192 5.44133 4.84989 5.64106 4.65061C6.00055 4.27828 6.20001 3.78001 6.19675 3.26246C6.19349 2.74491 5.98777 2.2492 5.62362 1.88142L4.38612 0.643923C4.01563 0.274702 3.51389 0.0673828 2.99084 0.0673828C2.46778 0.0673828 1.96605 0.274702 1.59556 0.643923L1.23949 1.00055C-0.616757 2.8568 -0.477819 6.75942 3.38431 10.6193C5.71306 12.9486 8.05699 13.924 9.95768 13.924C10.5172 13.9426 11.0748 13.8497 11.598 13.6507C12.1213 13.4516 12.5996 13.1504 13.0053 12.7647L13.3619 12.408C13.7318 12.0374 13.9395 11.5351 13.9393 11.0114C13.9391 10.4878 13.731 9.9856 13.3608 9.61524ZM12.5654 11.6127L12.2088 11.9693C10.7463 13.4318 7.51812 13.1646 4.17856 9.82449C0.838994 6.48436 0.571243 3.25392 2.03374 1.79142L2.38756 1.43536C2.54686 1.27663 2.76258 1.18751 2.98746 1.18751C3.21235 1.18751 3.42806 1.27663 3.58737 1.43536L4.82487 2.67286C4.98128 2.83005 5.07006 3.04215 5.07227 3.26389C5.07447 3.48564 4.98993 3.69946 4.83668 3.85974C4.45659 4.24225 4.21949 4.74377 4.16511 5.28027C4.11073 5.81678 4.24238 6.35567 4.53799 6.80667C5.23861 7.85512 6.13957 8.75474 7.18906 9.4538C7.63871 9.74945 8.17619 9.88188 8.71172 9.82895C9.24726 9.77602 9.74842 9.54094 10.1315 9.16299C10.2915 9.00792 10.5059 8.92182 10.7287 8.92318C10.9515 8.92455 11.1648 9.01328 11.3229 9.1703L12.5604 10.4078C12.6401 10.4864 12.7036 10.58 12.747 10.6832C12.7904 10.7864 12.8131 10.8972 12.8135 11.0092C12.814 11.1212 12.7923 11.2321 12.7497 11.3357C12.7072 11.4393 12.6445 11.5334 12.5654 11.6127Z" fill="white"/>
</svg>
