<svg width="16" height="16" viewBox="0 0 16 16" fill="none" xmlns="http://www.w3.org/2000/svg">
<path d="M13.1331 10.2857C12.7019 10.2889 12.277 10.3898 11.8904 10.5808C11.5037 10.7718 11.1653 11.048 10.9005 11.3886L5.60157 8.73716C5.66973 8.49723 5.7062 8.24941 5.71006 8.00001C5.7062 7.75061 5.66973 7.50279 5.60157 7.26287L10.9005 4.61144C11.1653 4.95206 11.5037 5.22824 11.8904 5.41925C12.277 5.61026 12.7019 5.71113 13.1331 5.71429C13.6978 5.71429 14.2498 5.54673 14.7193 5.23278C15.1888 4.91883 15.5547 4.47261 15.7708 3.95053C15.9869 3.42846 16.0435 2.85398 15.9333 2.29975C15.8231 1.74551 15.5512 1.23642 15.1519 0.83684C14.7527 0.437261 14.2439 0.165144 13.6901 0.0549006C13.1363 -0.0553431 12.5622 0.00123796 12.0406 0.217489C11.5189 0.433739 11.073 0.799947 10.7593 1.2698C10.4455 1.73966 10.2781 2.29206 10.2781 2.85715C10.282 3.10655 10.3184 3.35437 10.3866 3.59429L5.08766 6.24572C4.8229 5.9051 4.48448 5.62892 4.09781 5.43791C3.71113 5.2469 3.28624 5.14603 2.85503 5.14287C2.09783 5.14287 1.37164 5.44389 0.836218 5.9797C0.300797 6.51552 0 7.24225 0 8.00001C0 8.75777 0.300797 9.4845 0.836218 10.0203C1.37164 10.5561 2.09783 10.8572 2.85503 10.8572C3.28624 10.854 3.71113 10.7531 4.09781 10.5621C4.48448 10.3711 4.8229 10.0949 5.08766 9.7543L10.3866 12.4057C10.2326 12.9829 10.2632 13.5938 10.4742 14.1527C10.6852 14.7115 11.0659 15.1901 11.5628 15.5211C12.0597 15.8522 12.6478 16.0191 13.2444 15.9983C13.8409 15.9775 14.416 15.7701 14.8887 15.4052C15.3613 15.0404 15.7078 14.5364 15.8795 13.9643C16.0511 13.3921 16.0392 12.7805 15.8454 12.2155C15.6517 11.6504 15.2858 11.1604 14.7993 10.8142C14.3128 10.4681 13.7301 10.2833 13.1331 10.2857ZM13.1331 1.14286C13.4719 1.14286 13.8031 1.2434 14.0848 1.43177C14.3665 1.62014 14.5861 1.88787 14.7158 2.20112C14.8454 2.51436 14.8793 2.85905 14.8132 3.19159C14.7471 3.52413 14.584 3.82959 14.3444 4.06933C14.1048 4.30908 13.7996 4.47235 13.4673 4.5385C13.135 4.60464 12.7906 4.57069 12.4776 4.44094C12.1646 4.31119 11.897 4.09147 11.7088 3.80956C11.5206 3.52764 11.4201 3.1962 11.4201 2.85715C11.4201 2.40249 11.6006 1.96645 11.9218 1.64496C12.2431 1.32347 12.6788 1.14286 13.1331 1.14286ZM2.85503 9.7143C2.51623 9.7143 2.18503 9.61376 1.90333 9.42539C1.62162 9.23702 1.40206 8.96929 1.27241 8.65604C1.14275 8.3428 1.10883 7.99811 1.17493 7.66557C1.24102 7.33303 1.40417 7.02757 1.64374 6.78783C1.88331 6.54808 2.18854 6.38481 2.52084 6.31866C2.85313 6.25252 3.19756 6.28647 3.51057 6.41622C3.82358 6.54597 4.09112 6.76569 4.27935 7.0476C4.46758 7.32952 4.56805 7.66096 4.56805 8.00001C4.56805 8.45467 4.38757 8.89071 4.06631 9.2122C3.74506 9.53369 3.30935 9.7143 2.85503 9.7143ZM13.1331 14.8572C12.7943 14.8572 12.4631 14.7566 12.1814 14.5683C11.8997 14.3799 11.6802 14.1122 11.5505 13.7989C11.4209 13.4857 11.3869 13.141 11.453 12.8084C11.5191 12.4759 11.6823 12.1704 11.9218 11.9307C12.1614 11.6909 12.4666 11.5277 12.7989 11.4615C13.1312 11.3954 13.4757 11.4293 13.7887 11.5591C14.1017 11.6888 14.3692 11.9086 14.5575 12.1905C14.7457 12.4724 14.8461 12.8038 14.8461 13.1429C14.8461 13.5975 14.6657 14.0336 14.3444 14.3551C14.0232 14.6766 13.5875 14.8572 13.1331 14.8572Z" fill="#37474F"/>
</svg>
