<svg width="29" height="29" viewBox="0 0 29 29" fill="none" xmlns="http://www.w3.org/2000/svg">
<path d="M9.7295 8.27433L13.05 4.9385V18.8475C13.05 19.2321 13.2028 19.601 13.4747 19.873C13.7466 20.145 14.1154 20.2978 14.5 20.2978C14.8846 20.2978 15.2534 20.145 15.5253 19.873C15.7972 19.601 15.95 19.2321 15.95 18.8475V4.9385L19.2705 8.27433C19.4053 8.41027 19.5657 8.51817 19.7424 8.5918C19.9191 8.66544 20.1086 8.70335 20.3 8.70335C20.4914 8.70335 20.6809 8.66544 20.8576 8.5918C21.0343 8.51817 21.1947 8.41027 21.3295 8.27433C21.4654 8.1395 21.5733 7.97909 21.6469 7.80235C21.7205 7.62561 21.7584 7.43604 21.7584 7.24458C21.7584 7.05311 21.7205 6.86354 21.6469 6.6868C21.5733 6.51006 21.4654 6.34965 21.3295 6.21482L15.5295 0.413373C15.3916 0.281331 15.229 0.177826 15.051 0.108797C14.698 -0.0362656 14.302 -0.0362656 13.949 0.108797C13.771 0.177826 13.6084 0.281331 13.4705 0.413373L7.6705 6.21482C7.5353 6.35005 7.42806 6.51059 7.35489 6.68728C7.28173 6.86396 7.24407 7.05333 7.24407 7.24458C7.24407 7.43582 7.28173 7.62519 7.35489 7.80188C7.42806 7.97856 7.5353 8.1391 7.6705 8.27433C7.8057 8.40956 7.9662 8.51683 8.14284 8.59002C8.31948 8.6632 8.5088 8.70087 8.7 8.70087C8.8912 8.70087 9.08052 8.6632 9.25716 8.59002C9.4338 8.51683 9.5943 8.40956 9.7295 8.27433ZM27.55 14.4964C27.1654 14.4964 26.7966 14.6492 26.5247 14.9212C26.2528 15.1932 26.1 15.5621 26.1 15.9467V24.6489C26.1 25.0336 25.9472 25.4025 25.6753 25.6745C25.4034 25.9465 25.0346 26.0993 24.65 26.0993H4.35C3.96544 26.0993 3.59662 25.9465 3.3247 25.6745C3.05277 25.4025 2.9 25.0336 2.9 24.6489V15.9467C2.9 15.5621 2.74723 15.1932 2.47531 14.9212C2.20338 14.6492 1.83456 14.4964 1.45 14.4964C1.06544 14.4964 0.696623 14.6492 0.424695 14.9212C0.152767 15.1932 0 15.5621 0 15.9467V24.6489C0 25.8029 0.458302 26.9096 1.27409 27.7256C2.08987 28.5416 3.19631 29 4.35 29H24.65C25.8037 29 26.9101 28.5416 27.7259 27.7256C28.5417 26.9096 29 25.8029 29 24.6489V15.9467C29 15.5621 28.8472 15.1932 28.5753 14.9212C28.3034 14.6492 27.9346 14.4964 27.55 14.4964Z" fill="#B7B7B7"/>
</svg>
