<svg width="22" height="22" viewBox="0 0 22 22" fill="none" xmlns="http://www.w3.org/2000/svg">
<path d="M1.68811 10.22V14.71C1.68811 19.2 3.48811 21 7.97811 21H13.3681C17.8581 21 19.6581 19.2 19.6581 14.71V10.22" stroke="url(#paint0_linear_1764_408)" stroke-width="1.5" stroke-linecap="round" stroke-linejoin="round"/>
<path d="M10.6781 11C12.5081 11 13.8581 9.51 13.6781 7.68L13.0181 1H8.34809L7.67809 7.68C7.49809 9.51 8.84809 11 10.6781 11Z" stroke="url(#paint1_linear_1764_408)" stroke-width="1.5" stroke-linecap="round" stroke-linejoin="round"/>
<path d="M16.9881 11C19.0081 11 20.4881 9.36 20.2881 7.35L20.0081 4.6C19.6481 2 18.6481 1 16.0281 1H12.9781L13.6781 8.01C13.8481 9.66 15.3381 11 16.9881 11ZM4.31811 11C5.96811 11 7.4581 9.66 7.6181 8.01L7.83811 5.8L8.31811 1H5.26811C2.64811 1 1.64811 2 1.28811 4.6L1.01811 7.35C0.818105 9.36 2.29811 11 4.31811 11ZM10.6781 16C9.00811 16 8.17811 16.83 8.17811 18.5V21H13.1781V18.5C13.1781 16.83 12.3481 16 10.6781 16Z" stroke="url(#paint2_linear_1764_408)" stroke-width="1.5" stroke-linecap="round" stroke-linejoin="round"/>
<defs>
<linearGradient id="paint0_linear_1764_408" x1="10.6731" y1="10.22" x2="10.6731" y2="21" gradientUnits="userSpaceOnUse">
<stop stop-color="#4EEEC2"/>
<stop offset="1" stop-color="#49AFDC"/>
</linearGradient>
<linearGradient id="paint1_linear_1764_408" x1="10.6781" y1="1" x2="10.6781" y2="11" gradientUnits="userSpaceOnUse">
<stop stop-color="#4EEEC2"/>
<stop offset="1" stop-color="#49AFDC"/>
</linearGradient>
<linearGradient id="paint2_linear_1764_408" x1="10.6531" y1="1" x2="10.6531" y2="21" gradientUnits="userSpaceOnUse">
<stop stop-color="#4EEEC2"/>
<stop offset="1" stop-color="#49AFDC"/>
</linearGradient>
</defs>
</svg>
