<svg width="14" height="16" viewBox="0 0 14 16" fill="none" xmlns="http://www.w3.org/2000/svg">
<path d="M7 15.875C7.12688 15.8743 7.24978 15.8307 7.34875 15.7513C7.5625 15.56 13.1875 11.0262 13.1875 6.3125C13.1875 4.67147 12.5356 3.09766 11.3752 1.93728C10.2148 0.776896 8.64103 0.125 7 0.125C5.35897 0.125 3.78516 0.776896 2.62478 1.93728C1.4644 3.09766 0.8125 4.67147 0.8125 6.3125C0.8125 11.0262 6.4375 15.56 6.65125 15.7513C6.75022 15.8307 6.87312 15.8743 7 15.875ZM1.9375 6.3125C1.9375 4.96984 2.47087 3.68217 3.42027 2.73277C4.36967 1.78337 5.65734 1.25 7 1.25C8.34266 1.25 9.63032 1.78337 10.5797 2.73277C11.5291 3.68217 12.0625 4.96984 12.0625 6.3125C12.0625 9.85625 8.19812 13.5181 7 14.5756C5.80188 13.5181 1.9375 9.85625 1.9375 6.3125Z" fill="#115B7A"/>
<path d="M9.8125 6.3125C9.8125 5.75624 9.64755 5.21247 9.33851 4.74996C9.02947 4.28745 8.59022 3.92696 8.0763 3.71409C7.56238 3.50122 6.99688 3.44552 6.45131 3.55404C5.90574 3.66256 5.4046 3.93043 5.01126 4.32376C4.61793 4.7171 4.35006 5.21824 4.24154 5.76381C4.13302 6.30938 4.18872 6.87488 4.40159 7.3888C4.61446 7.90272 4.97495 8.34197 5.43746 8.65101C5.89997 8.96005 6.44374 9.125 7 9.125C7.74592 9.125 8.46129 8.82869 8.98874 8.30124C9.51619 7.77379 9.8125 7.05842 9.8125 6.3125ZM5.3125 6.3125C5.3125 5.97875 5.41147 5.65248 5.5969 5.37498C5.78232 5.09747 6.04587 4.88118 6.35422 4.75345C6.66257 4.62573 7.00187 4.59231 7.32922 4.65743C7.65656 4.72254 7.95724 4.88326 8.19324 5.11926C8.42925 5.35526 8.58996 5.65594 8.65508 5.98329C8.72019 6.31063 8.68677 6.64993 8.55905 6.95828C8.43133 7.26663 8.21503 7.53018 7.93753 7.71561C7.66002 7.90103 7.33376 8 7 8C6.55245 8 6.12323 7.82221 5.80676 7.50574C5.49029 7.18928 5.3125 6.76005 5.3125 6.3125Z" fill="#115B7A"/>
</svg>
