<svg width="21" height="21" viewBox="0 0 21 21" fill="none" xmlns="http://www.w3.org/2000/svg">
<path d="M2.63379 9.81738V13.7461C2.63379 17.6749 4.20879 19.2499 8.13754 19.2499H12.8538C16.7825 19.2499 18.3575 17.6749 18.3575 13.7461V9.81738" stroke="#37474F" stroke-width="1.5" stroke-linecap="round" stroke-linejoin="round"/>
<path d="M10.5001 10.5C12.1013 10.5 13.2826 9.19625 13.1251 7.595L12.5476 1.75H8.4613L7.87505 7.595C7.71755 9.19625 8.8988 10.5 10.5001 10.5Z" stroke="#37474F" stroke-width="1.5" stroke-linecap="round" stroke-linejoin="round"/>
<path d="M16.0212 10.5C17.7887 10.5 19.0837 9.065 18.9087 7.30625L18.6637 4.9C18.3487 2.625 17.4737 1.75 15.1812 1.75H12.5125L13.125 7.88375C13.2737 9.3275 14.5775 10.5 16.0212 10.5ZM4.93496 10.5C6.37871 10.5 7.68246 9.3275 7.82246 7.88375L8.01496 5.95L8.43496 1.75H5.76621C3.47371 1.75 2.59871 2.625 2.28371 4.9L2.04746 7.30625C1.87246 9.065 3.16746 10.5 4.93496 10.5ZM10.5 14.875C9.03871 14.875 8.31246 15.6013 8.31246 17.0625V19.25H12.6875V17.0625C12.6875 15.6013 11.9612 14.875 10.5 14.875Z" stroke="#37474F" stroke-width="1.5" stroke-linecap="round" stroke-linejoin="round"/>
</svg>
