<svg width="52" height="52" viewBox="0 0 52 52" fill="none" xmlns="http://www.w3.org/2000/svg">
<g filter="url(#filter0_d_866_154)">
<rect x="11" y="6" width="30" height="30" rx="5" fill="white"/>
</g>
<path d="M27.28 15.1707L20.0232 22.4275C19.7469 22.7038 19.4706 23.2471 19.4154 23.6431L19.0194 26.4151C18.872 27.4189 19.5811 28.1188 20.5849 27.9806L23.3569 27.5846C23.7437 27.5294 24.287 27.2531 24.5725 26.9768L31.8293 19.72C33.0818 18.4676 33.6711 17.0125 31.8293 15.1707C29.9875 13.3289 28.5324 13.9182 27.28 15.1707Z" stroke="#39C19D" stroke-width="1.5" stroke-miterlimit="10" stroke-linecap="round" stroke-linejoin="round"/>
<path d="M26.3673 16.7627C26.6764 17.6408 27.2622 18.4408 28.0686 19.0859C28.875 19.7309 29.8749 20.1996 30.9725 20.4469" stroke="#39C19D" stroke-width="1.5" stroke-miterlimit="10" stroke-linecap="round" stroke-linejoin="round"/>
<defs>
<filter id="filter0_d_866_154" x="0" y="0" width="52" height="52" filterUnits="userSpaceOnUse" color-interpolation-filters="sRGB">
<feFlood flood-opacity="0" result="BackgroundImageFix"/>
<feColorMatrix in="SourceAlpha" type="matrix" values="0 0 0 0 0 0 0 0 0 0 0 0 0 0 0 0 0 0 127 0" result="hardAlpha"/>
<feOffset dy="5"/>
<feGaussianBlur stdDeviation="5.5"/>
<feComposite in2="hardAlpha" operator="out"/>
<feColorMatrix type="matrix" values="0 0 0 0 0.470833 0 0 0 0 0.470833 0 0 0 0 0.470833 0 0 0 0.15 0"/>
<feBlend mode="normal" in2="BackgroundImageFix" result="effect1_dropShadow_866_154"/>
<feBlend mode="normal" in="SourceGraphic" in2="effect1_dropShadow_866_154" result="shape"/>
</filter>
</defs>
</svg>
