<svg width="17" height="16" viewBox="0 0 17 16" fill="none" xmlns="http://www.w3.org/2000/svg">
<path fill-rule="evenodd" clip-rule="evenodd" d="M7.11648 0.889158C7.11648 0.400121 7.5166 0 8.00563 0C8.49467 0 8.89479 0.400121 8.89479 0.889158V8.00242C8.89479 8.49146 8.49467 8.89158 8.00563 8.89158C7.5166 8.89158 7.11648 8.49146 7.11648 8.00242V0.889158ZM12.567 3.77889C12.238 3.43212 12.2291 2.88973 12.5759 2.54296C12.9315 2.1873 13.5184 2.19619 13.8563 2.56074C15.19 3.9834 16.008 5.88619 16.008 7.9935C16.008 12.5015 12.2825 16.1382 7.74776 15.9959C3.40867 15.8625 -0.121288 12.1103 0.0031944 7.77121C0.0654354 5.75282 0.874569 3.93005 2.16385 2.56074C2.50173 2.19619 3.07968 2.1873 3.43534 2.54296C3.77322 2.88084 3.77322 3.42323 3.44424 3.77C2.41281 4.88144 1.78151 6.36634 1.78151 8.00239C1.78151 11.4701 4.60903 14.271 8.08564 14.2176C11.4911 14.182 14.3097 11.2478 14.2297 7.84234C14.1942 6.26853 13.5717 4.84588 12.567 3.77889Z" fill="#FF5552"/>
</svg>
