<svg width="19" height="19" viewBox="0 0 19 19" fill="none" xmlns="http://www.w3.org/2000/svg">
<path d="M10.8696 2.77859L12.263 5.56526C12.453 5.95318 12.9596 6.32526 13.3871 6.39651L15.9126 6.81609C17.5276 7.08526 17.9075 8.25693 16.7438 9.41276L14.7805 11.3761C14.448 11.7086 14.2659 12.3498 14.3688 12.809L14.9309 15.2394C15.3742 17.1632 14.353 17.9073 12.6509 16.9019L10.2838 15.5007C9.8563 15.2473 9.15172 15.2473 8.7163 15.5007L6.34922 16.9019C4.65505 17.9073 3.62588 17.1553 4.06922 15.2394L4.6313 12.809C4.73422 12.3498 4.55213 11.7086 4.21963 11.3761L2.2563 9.41276C1.10047 8.25693 1.47255 7.08526 3.08755 6.81609L5.61297 6.39651C6.03255 6.32526 6.53922 5.95318 6.72922 5.56526L8.12255 2.77859C8.88255 1.26651 10.1176 1.26651 10.8696 2.77859Z" stroke="#37474F" stroke-width="1.5" stroke-linecap="round" stroke-linejoin="round"/>
</svg>
