<svg width="19" height="17" viewBox="0 0 19 17" fill="none" xmlns="http://www.w3.org/2000/svg">
<path d="M11.2544 1.5H7.74561C4.43811 1.5 2.78436 1.5 1.75624 2.5255C1.04749 3.23075 0.827863 4.23263 0.758738 5.86538C0.745613 6.18913 0.738613 6.35188 0.798988 6.4595C0.860238 6.56713 1.10086 6.70275 1.58386 6.97225C1.85593 7.12393 2.08256 7.34551 2.24033 7.61409C2.39809 7.88267 2.48127 8.18851 2.48127 8.5C2.48127 8.81149 2.39809 9.11733 2.24033 9.38591C2.08256 9.65449 1.85593 9.87607 1.58386 10.0278C1.10086 10.2981 0.859363 10.4329 0.798988 10.5405C0.738613 10.6481 0.745613 10.81 0.759613 11.1338C0.827863 12.7674 1.04836 13.7692 1.75624 14.4745C2.78349 15.5 4.43724 15.5 7.74561 15.5H11.2544C14.5619 15.5 16.2156 15.5 17.2437 14.4745C17.9525 13.7692 18.1721 12.7674 18.2412 11.1346C18.2544 10.8109 18.2614 10.6481 18.201 10.5405C18.1397 10.4329 17.8991 10.2981 17.4161 10.0278C17.144 9.87607 16.9174 9.65449 16.7597 9.38591C16.6019 9.11733 16.5187 8.81149 16.5187 8.5C16.5187 8.18851 16.6019 7.88267 16.7597 7.61409C16.9174 7.34551 17.144 7.12393 17.4161 6.97225C17.8991 6.70275 18.1406 6.56713 18.201 6.4595C18.2614 6.35188 18.2544 6.19 18.2404 5.86538C18.1721 4.23263 17.9516 3.23162 17.2437 2.5255C16.2165 1.5 14.5627 1.5 11.2544 1.5Z" stroke="#37474F" stroke-width="1.5"/>
<path d="M6.875 11.125L12.125 5.875" stroke="#37474F" stroke-width="1.5" stroke-linecap="round"/>
<path d="M12.5625 10.6875C12.5625 10.9196 12.4703 11.1421 12.3062 11.3062C12.1421 11.4703 11.9196 11.5625 11.6875 11.5625C11.4554 11.5625 11.2329 11.4703 11.0688 11.3062C10.9047 11.1421 10.8125 10.9196 10.8125 10.6875C10.8125 10.4554 10.9047 10.2329 11.0688 10.0688C11.2329 9.90469 11.4554 9.8125 11.6875 9.8125C11.9196 9.8125 12.1421 9.90469 12.3062 10.0688C12.4703 10.2329 12.5625 10.4554 12.5625 10.6875ZM8.1875 6.3125C8.1875 6.54456 8.09531 6.76712 7.93122 6.93122C7.76712 7.09531 7.54456 7.1875 7.3125 7.1875C7.08044 7.1875 6.85788 7.09531 6.69378 6.93122C6.52969 6.76712 6.4375 6.54456 6.4375 6.3125C6.4375 6.08044 6.52969 5.85788 6.69378 5.69378C6.85788 5.52969 7.08044 5.4375 7.3125 5.4375C7.54456 5.4375 7.76712 5.52969 7.93122 5.69378C8.09531 5.85788 8.1875 6.08044 8.1875 6.3125Z" fill="#37474F"/>
</svg>
